<svg fill="none" height="70" viewBox="0 0 70 70" width="70" xmlns="http://www.w3.org/2000/svg"><g fill="#6d30fb"><path d="m35 65.0667c-.0995 0-.1987-.0108-.2959-.0324-7.3218-1.6231-13.1306-5.1068-17.2647-10.3543-3.2887-4.1745-5.5081-9.4487-6.5966-15.6765-1.83208-10.4791.1503-19.9482.2355-20.3462.0564-.2633.1893-.504.3819-.6921.1927-.1881.4366-.315.7012-.365 16.0843-3.0386 21.6152-11.91765 21.6686-12.00693.1217-.20143.2934-.36802.4984-.48365.2049-.11564.4363-.17639.6717-.17639.2353 0 .4667.06075.6717.17639.205.11563.3766.28222.4984.48365.0112.01832 1.4106 2.26448 4.7612 4.85233 3.0968 2.3917 8.5437 5.5747 16.9072 7.1546.2646.05.5085.1769.7012.365.1926.1881.3255.4288.3819.6921.0852.398 2.067 9.8671.2355 20.3462-1.0884 6.2278-3.3077 11.502-6.5965 15.6765-4.1341 5.2475-9.9429 8.7312-17.2647 10.3543-.0972.0216-.1964.0324-.296.0324zm-21.4089-44.962c-.4319 2.5496-1.4883 10.3064-.0423 18.5001 1.0168 5.7608 3.0566 10.6104 6.0627 14.4137 3.6766 4.6518 8.8533 7.7729 15.3885 9.2794 6.5352-1.5065 11.712-4.6276 15.3885-9.2794 3.0061-3.8033 5.0458-8.6529 6.0625-14.4137 1.4462-8.1937.39-15.9507-.0421-18.5001-12.6445-2.6136-19.0011-8.6365-21.4089-11.51811-2.4072 2.88131-8.7637 8.90421-21.4089 11.51811z"/><path d="m35 51.1437c-2.8684 0-5.6725-.8506-8.0575-2.4443-2.385-1.5936-4.2439-3.8587-5.3415-6.5088-1.0977-2.6501-1.3849-5.5662-.8253-8.3795s1.9409-5.3975 3.9692-7.4258 4.6125-3.4096 7.4259-3.9692c2.8133-.5596 5.7294-.2724 8.3795.8254 2.6501 1.0977 4.9151 2.9566 6.5088 5.3416 1.5936 2.385 2.4442 5.189 2.4442 8.0575-.0044 3.8451-1.5338 7.5316-4.2527 10.2505-2.719 2.7189-6.4054 4.2483-10.2506 4.2526zm0-26.2719c-2.3276.0001-4.603.6903-6.5383 1.9835-1.9354 1.2932-3.4438 3.1312-4.3345 5.2817-.8907 2.1504-1.1238 4.5167-.6697 6.7996.4542 2.2829 1.575 4.3799 3.2209 6.0258s3.7429 2.7667 6.0258 3.2208 4.6492.221 6.7997-.6697c2.1504-.8908 3.9884-2.3992 5.2816-4.3346 1.2932-1.9353 1.9834-4.2107 1.9834-6.5383-.0036-3.1202-1.2447-6.1116-3.451-8.3179s-5.1977-3.4473-8.3179-3.4509z"/><path d="m33.5098 43.074c-.3458.0004-.6789-.1307-.9316-.3666l-5.5645-5.1817c-.1314-.1224-.2374-.2694-.312-.4327-.0745-.1634-.1162-.3398-.1226-.5192-.0064-.1795.0226-.3584.0854-.5266.0628-.1683.1581-.3225.2804-.4539.1224-.1314.2695-.2374.4328-.3119.1633-.0746.3397-.1163.5192-.1227.1794-.0063.3584.0227.5266.0854.1682.0628.3224.1581.4538.2805l4.5984 4.2824 8.5771-8.577c.2564-.2565.6041-.4005.9667-.4005s.7104.144.9668.4004.4005.6041.4005.9667c0 .3627-.144.7104-.4004.9668l-9.5102 9.51c-.1268.1272-.2774.228-.4433.2967-.1658.0688-.3436.1041-.5231.1039z"/></g></svg>