<svg fill="none" height="70" viewBox="0 0 70 70" width="70" xmlns="http://www.w3.org/2000/svg"><g fill="#6d30fb"><path d="m46.4 42.35h-7.8l1.625-5.4c.4971-1.6147.3408-3.3599-.4352-4.8605-.7761-1.5006-2.1099-2.6369-3.7148-3.1645-.4609-.152-.9482-.2071-1.4314-.1619-.4832.0451-.9519.1896-1.3767.4243s-.7965.5546-1.092.9396c-.2954.385-.5081.8269-.6249 1.298l-.25 1.05c-.9428 3.7835-2.8956 7.2399-5.65 10l-1.425 1.4c-.3621-.4561-.8217-.8254-1.3452-1.0806-.5234-.2553-1.0974-.39-1.6798-.3944h-1.825c-1.0257-.0001-2.0102.4039-2.7402 1.1245-.7299.7206-1.1466 1.6998-1.1598 2.7255v16.1c0 1.0343.4109 2.0263 1.1423 2.7577s1.7234 1.1423 2.7577 1.1423h1.825c.6714-.0016 1.3308-.1775 1.9137-.5106.5828-.333 1.0692-.8118 1.4113-1.3894l.35.175c2.2596 1.1283 4.7495 1.7187 7.275 1.725h8.975c1.4838.0072 2.946-.3546 4.2552-1.0529 1.3092-.6982 2.4242-1.711 3.2448-2.9471 1.7466-2.6116 2.6777-5.6833 2.675-8.825v-6.225c.0001-.6412-.127-1.2759-.3739-1.8677-.2468-.5917-.6086-1.1286-1.0642-1.5796-.4557-.451-.9963-.8072-1.5905-1.048s-1.2303-.3613-1.8714-.3547zm-23.9 20c0 .3713-.1475.7274-.41.9899-.2626.2626-.6187.4101-.99.4101h-1.725c-.3713 0-.7274-.1475-.9899-.4101-.2626-.2625-.4101-.6186-.4101-.9899v-16.1c0-.3713.1475-.7274.4101-.99.2625-.2625.6186-.41.9899-.41h1.825c.3537.0253.6847.1839.926.4438.2412.2598.3749.6016.374.9562zm26.25-8.925c.0105 2.6678-.7727 5.2785-2.25 7.5-.591.8836-1.3906 1.6081-2.328 2.1095s-1.9839.7643-3.047.7655h-8.975c-2.1344-.0021-4.2394-.4984-6.15-1.45l-1-.5v-15.35l2.3-2.3c3.0773-3.0768 5.2631-6.93 6.325-11.15l.25-1.025c.0743-.2742.254-.5079.5-.65.1262-.0551.2624-.0835.4-.0835.1377 0 .2739.0284.4.0835.4927.1638.9483.4232 1.3406.7632.3924.34.7138.7541.946 1.2185s.3706.97.4072 1.4879-.0292 1.0379-.1938 1.5304l-2.1 7.025c-.0543.1863-.0645.3827-.0298.5736s.1134.3711.2298.5264c.1136.1582.264.2864.4382.3736.1743.0871.3671.1305.5618.1264h9.475c.3086 0 .6142.0608.8993.1789.2852.1181.5442.2912.7624.5094.2183.2182.3914.4773.5095.7624.118.2851.1788.5907.1788.8993z"/><path d="m27.5 18.25-.8 4.625c-.0962.5119-.0437 1.0406.1512 1.5235.195.483.5243.8999.9488 1.2015.47.3504 1.0389.5429 1.625.55.4526-.0071.8974-.1183 1.3-.325l4.275-2.2 4.175 2.2c.4591.2424.9774.35 1.495.3101.5177-.0398 1.0134-.2253 1.43-.5351.4203-.2996.7468-.7125.9415-1.1905s.2497-1.0014.1585-1.5095l-.7-4.65 3.275-3.25c.3782-.3577.6472-.8154.7755-1.3199s.1108-1.0351-.0505-1.5301c-.1615-.4944-.4576-.9341-.855-1.2697s-.8804-.5538-1.395-.6303l-4.675-.67497-2.075-4.275c-.2334-.46279-.5907-.85171-1.0321-1.12344s-.9495-.4156-1.4679-.4156c-.5183 0-1.0264.14387-1.4678.4156s-.7987.66065-1.0322 1.12344l-2.075 4.225-4.675.67497c-.5145.0765-.9975.2947-1.3949.6303s-.6935.7753-.8551 1.2697c-.1716.5019-.1945 1.0426-.0659 1.5571.1286.5146.4033.9809.7909 1.3429zm-1.5-5.575 5.325-.775c.2406.0156.4804-.0401.6894-.1602s.3779-.2991.4856-.5148l2.5-4.82497c.022-.04787.0572-.08843.1015-.11687s.0959-.04356.1485-.04356c.0527 0 .1042.01512.1486.04356.0443.02844.0795.069.1014.11687l2.5 4.82497c.0899.1826.2238.3399.3896.4577.1659.1179.3585.1926.5604.2173l5.325.775c.0518.0106.0999.0346.1394.0698.0396.0351.0691.08.0856.1302.0242.0418.0369.0893.0369.1375 0 .0483-.0127.0957-.0369.1375l-3.85 3.75c-.1456.1455-.2552.323-.3203.5182-.0651.1953-.0838.4031-.0547.6068l.925 5.275c.017.0532.0137.1108-.0095.1616-.0231.0508-.0642.0913-.1155.1134-.0432.0325-.0959.05-.15.05-.054 0-.1067-.0175-.15-.05l-4.75-2.5c-.1756-.0985-.3736-.1503-.575-.1503-.2013 0-.3993.0518-.575.1503l-4.775 2.5c-.0393.0304-.0877.0469-.1375.0469-.0497 0-.0981-.0165-.1375-.0469-.0512-.0221-.0924-.0626-.1155-.1134s-.0265-.1084-.0095-.1616l.925-5.275c.0292-.2037.0105-.4115-.0546-.6068-.0651-.1952-.1748-.3727-.3204-.5182l-3.85-3.75c-.0241-.0418-.0368-.0892-.0368-.1375 0-.0482.0127-.0957.0368-.1375-.0649.0037-.1293-.0138-.1834-.0499-.0541-.036-.095-.0887-.1166-.1501z"/><path d="m18.35 33.125c.3724.0068.7416-.0697 1.0807-.2239.339-.1542.6393-.3822.8789-.6673s.4125-.6202.506-.9808c.0935-.3605.1053-.7373.0344-1.103l-.675-3.8 2.8-2.725c.3528-.3237.6052-.742.7272-1.205s.1084-.9513-.039-1.4068c-.1475-.4556-.4227-.8592-.7928-1.1629-.3702-.3037-.8198-.4947-1.2954-.5503l-3.825-.55-1.725-3.475c-.2301-.3998-.5616-.7319-.961-.9629-.3994-.2309-.8526-.3525-1.314-.3525-.4613 0-.9145.1216-1.3139.3525-.3994.231-.7309.5631-.9611.9629l-1.72497 3.475-3.825.55c-.47557.0556-.92516.2466-1.29533.5503s-.64534.7073-.7928 1.1629c-.14746.4555-.161.9438-.03901 1.4068s.37437.8813.72714 1.205l2.775 2.725-.675 3.8c-.08661.4711-.03605.9572.14567 1.4004.18171.4432.48693.8249.87933 1.0996.38325.2802.83835.4454 1.31206.4764s.94645-.0736 1.36291-.3014l3.425-1.8 3.425 1.8c.3611.1949.7647.298 1.175.3zm-4.6-4.75c-.2015-.0012-.3998.0505-.575.15l-4.07497 2.05.89997-4.45c.0139-.214-.02429-.4281-.11138-.6241-.08709-.1959-.22044-.3678-.38859-.5009l-3.225-3.225 4.49997-.65c.199-.0243.3884-.099.5503-.2172.1619-.1181.2909-.2757.3747-.4578l2.075-4.075 2.025 4.075c.0838.1821.2128.3397.3747.4578.1619.1182.3514.1929.5503.2172l4.5.725-3.225 3.15c-.1456.1455-.2553.3229-.3204.5182-.065.1953-.0837.4031-.0546.6068l.725 4.5-4.025-2.1c-.1752-.0995-.3735-.1512-.575-.15z"/><path d="m66.125 21.025c-.1428-.4524-.4114-.8548-.7744-1.1603-.363-.3054-.8054-.5013-1.2756-.5647l-3.825-.55-1.725-3.475c-.2301-.3998-.5616-.7319-.961-.9629-.3994-.2309-.8526-.3525-1.314-.3525-.4613 0-.9145.1216-1.3139.3525-.3994.231-.7309.5631-.9611.9629l-1.725 3.475-3.825.55c-.4755.0556-.9251.2466-1.2953.5503s-.6453.7073-.7928 1.1629c-.1475.4555-.161.9438-.039 1.4068s.3744.8813.7271 1.205l2.775 2.725-.675 3.8c-.0866.4711-.036.9572.1457 1.4004s.4869.8249.8793 1.0996c.3833.2802.8384.4454 1.3121.4764s.9464-.0736 1.3629-.3014l3.425-1.8 3.425 1.8c.3611.1949.7647.298 1.175.3.3724.0068.7416-.0697 1.0807-.2239.339-.1542.6393-.3822.8789-.6673s.4125-.6202.506-.9808c.0935-.3605.1053-.7373.0344-1.103l-.675-3.8 2.775-2.725c.3483-.3242.5968-.7411.7164-1.2016.1196-.4606.1052-.9457-.0414-1.3984zm-5.625 3.975c-.1456.1455-.2553.3229-.3203.5182-.0651.1953-.0838.4031-.0547.6068l.725 4.5-4.025-2.1c-.1756-.0985-.3736-.1503-.575-.1503-.2013 0-.3993.0518-.575.1503l-4.075 2.05.9-4.45c.0139-.214-.0243-.4281-.1114-.6241-.0871-.1959-.2204-.3678-.3886-.5009l-3.225-3.225 4.5-.65c.199-.0243.3884-.099.5503-.2172.1619-.1181.2909-.2757.3747-.4578l2.075-4.075 2.025 4.075c.0838.1821.2128.3397.3747.4578.1619.1182.3514.1929.5503.2172l4.5.725z"/></g></svg>