<svg fill="none" height="20" viewBox="0 0 20 20" width="20" xmlns="http://www.w3.org/2000/svg" xmlns:xlink="http://www.w3.org/1999/xlink"><linearGradient id="a"><stop offset="0" stop-color="#ab33f5"/><stop offset="1" stop-color="#ff6914"/></linearGradient><linearGradient id="b" gradientUnits="userSpaceOnUse" x1="5.39258" x2="14.6076" xlink:href="#a" y1="10.21" y2="10.21"/><linearGradient id="c" gradientUnits="userSpaceOnUse" x1=".75" x2="19.25" xlink:href="#a" y1="10" y2="10"/><g stroke-width="1.5"><path d="m5.39258 10.084 2.59336 2.5934c.09126.0923.19986.1656.31966.2157.1197.05.2483.0758.3781.0758.1297 0 .2583-.0258.378-.0758.1198-.0501.2284-.1234.3197-.2157l5.2262-5.22623" stroke="url(#b)" stroke-linecap="round" stroke-linejoin="round"/><path d="m13.25.75h-6.5c-3.31371 0-6 2.68629-6 6v6.5c0 3.3137 2.68629 6 6 6h6.5c3.3137 0 6-2.6863 6-6v-6.5c0-3.31371-2.6863-6-6-6z" stroke="url(#c)"/></g></svg>