<svg fill="none" height="50" viewBox="0 0 50 50" width="50" xmlns="http://www.w3.org/2000/svg"><path clip-rule="evenodd" d="m44.7917 6.07189v2.87186l-4.8021 4.79945c-1.6666-2.2156-3.8125-4.05103-6.2813-5.35103l2.1719-2.17653c1.5052-.22553 2.6615-1.52449 2.6615-3.09064 0-1.72448-1.4011-3.125-3.125-3.125-1.724 0-3.125 1.40052-3.125 3.125 0 1.01771.4895 1.92239 1.2395 2.49322l-1.8541 1.85731c-2.0729-.79166-4.3281-1.22553-6.6771-1.22553-2.3489 0-4.6042.43387-6.6771 1.22553l-1.8541-1.85731c.75-.57083 1.2396-1.47551 1.2396-2.49322 0-1.72448-1.4011-3.125-3.125-3.125-1.724 0-3.125 1.40052-3.125 3.125 0 1.56615 1.1563 2.86511 2.6615 3.09064l2.1718 2.17653c-2.4687 1.29948-4.6146 3.13493-6.2813 5.35103l-4.80205-4.79945v-2.87186c1.21355-.42917 2.08334-1.58751 2.08334-2.94689 0-1.72448-1.40104-3.125-3.125-3.125s-3.125 1.40052-3.125 3.125c0 1.35938.86979 2.51772 2.08333 2.94689v3.30311c0 .27604.10942.54115.30734.7365l5.39576 5.3989c-1.63542 2.7844-2.5781 6.0281-2.5781 9.4896 0 2.5995.53131 5.076 1.48964 7.3276 0 .0047.00521.0094.00521.0135.31771.7422.677 1.4594 1.08325 2.1485l-5.39576 5.3989c-.19792.1954-.30734.4605-.30734.7365v3.3031c-1.21354.4292-2.08333 1.5875-2.08333 2.9469 0 1.7245 1.40104 3.125 3.125 3.125s3.125-1.4005 3.125-3.125c0-1.3594-.86979-2.5177-2.08334-2.9469v-2.8718l4.80205-4.7995c1.6667 2.2156 3.8126 4.051 6.2813 5.351l-2.1718 2.1766c-1.5052.2255-2.6615 1.5245-2.6615 3.0906 0 1.7245 1.401 3.125 3.125 3.125 1.7239 0 3.125-1.4005 3.125-3.125 0-1.0177-.4896-1.9224-1.2396-2.4932l1.8541-1.8573c2.0729.7916 4.3282 1.2255 6.6771 1.2255 2.349 0 4.6042-.4339 6.6771-1.2255l1.8541 1.8573c-.75.5708-1.2395 1.4755-1.2395 2.4932 0 1.7245 1.401 3.125 3.125 3.125 1.7239 0 3.125-1.4005 3.125-3.125 0-1.5661-1.1563-2.8651-2.6615-3.0906l-2.1719-2.1766c2.4688-1.2995 4.6147-3.1349 6.2813-5.351l4.8021 4.7995v2.8718c-1.2136.4292-2.0833 1.5875-2.0833 2.9469 0 1.7245 1.401 3.125 3.125 3.125 1.7239 0 3.125-1.4005 3.125-3.125 0-1.3594-.8698-2.5177-2.0834-2.9469v-3.3031c0-.276-.1094-.5411-.3073-.7365l-5.3958-5.3989c1.6406-2.7844 2.5781-6.0281 2.5781-9.4896s-.9375-6.7052-2.5781-9.4896l5.3958-5.3989c.1979-.19535.3073-.46046.3073-.7365v-3.30311c1.2136-.42917 2.0834-1.58751 2.0834-2.94689 0-1.72448-1.4011-3.125-3.125-3.125-1.724 0-3.125 1.40052-3.125 3.125 0 1.35938.8697 2.51772 2.0833 2.94689zm1.0417 41.84481c-.573 0-1.0417-.4667-1.0417-1.0417s.4687-1.0417 1.0417-1.0417c.5729 0 1.0416.4667 1.0416 1.0417s-.4687 1.0417-1.0416 1.0417zm-41.66671 0c-.57292 0-1.04167-.4667-1.04167-1.0417s.46875-1.0417 1.04167-1.0417c.57291 0 1.04166.4667 1.04166 1.0417s-.46875 1.0417-1.04166 1.0417zm31.25001 0c-.5729 0-1.0417-.4667-1.0417-1.0417s.4688-1.0417 1.0417-1.0417 1.0417.4667 1.0417 1.0417-.4688 1.0417-1.0417 1.0417zm-20.8333 0c-.573 0-1.0417-.4667-1.0417-1.0417s.4687-1.0417 1.0417-1.0417c.5729 0 1.0416.4667 1.0416 1.0417s-.4687 1.0417-1.0416 1.0417zm21.4374-10.4204-14.6666-14.6692c-.2761-.2761-.6511-.4313-1.0417-.4313s-.7656.1552-1.0416.4313l-9.32813 9.3265c2.68233 5.6235 8.41663 9.5131 15.05723 9.5131 4.224 0 8.0833-1.5756 11.0208-4.1704zm5.1407-8.4052-4.0312-4.0281c-.0365-.0401-.0938-.063-.1511-.063s-.1146.0229-.1511.063l-5.1457 5.1453 5.8124 5.8151c1.7292-1.9567 3.0052-4.3224 3.6667-6.9323zm.4323-2.513c.0469-.5187.0729-1.0453.0729-1.5781 0-9.1984-7.4688-16.66667-16.6667-16.66667s-16.66665 7.46827-16.66665 16.66667c0 1.7568.27083 3.4505.77604 5.0412l8.68751-8.687c.6666-.6672 1.5729-1.0417 2.5156-1.0417s1.849.3745 2.5157 1.0417l7.3802 7.3812 5.1457-5.1453c.4323-.4312 1.0157-.6734 1.6251-.6734s1.1928.2422 1.6251.6734zm-11.9063-11.9948c-2.2969 0-4.1666 1.8672-4.1666 4.1667s1.8697 4.1667 4.1666 4.1667 4.1667-1.8672 4.1667-4.1667-1.8698-4.1667-4.1667-4.1667zm0 2.0834c1.1511 0 2.0834.9333 2.0834 2.0833s-.9323 2.0833-2.0834 2.0833c-1.151 0-2.0833-.9333-2.0833-2.0833s.9323-2.0833 2.0833-2.0833zm16.1459-14.58337c.5729 0 1.0416.46667 1.0416 1.04167s-.4687 1.04167-1.0416 1.04167c-.573 0-1.0417-.46667-1.0417-1.04167s.4687-1.04167 1.0417-1.04167zm-41.66671 0c.57291 0 1.04166.46667 1.04166 1.04167s-.46875 1.04167-1.04166 1.04167c-.57292 0-1.04167-.46667-1.04167-1.04167s.46875-1.04167 1.04167-1.04167zm31.25001 0c.5729 0 1.0417.46667 1.0417 1.04167s-.4688 1.04167-1.0417 1.04167-1.0417-.46667-1.0417-1.04167.4688-1.04167 1.0417-1.04167zm-20.8333 0c.5729 0 1.0416.46667 1.0416 1.04167s-.4687 1.04167-1.0416 1.04167c-.573 0-1.0417-.46667-1.0417-1.04167s.4687-1.04167 1.0417-1.04167z" fill="#fff" fill-rule="evenodd"/></svg>