<svg fill="none" height="50" viewBox="0 0 50 50" width="50" xmlns="http://www.w3.org/2000/svg"><g fill="#001315"><path d="m19.27 28.2046c-.4046 0-.7324.3278-.7324.7324v1.1719c0 .4046.3278.7324.7324.7324s.7324-.3278.7324-.7324v-1.1719c0-.4045-.3278-.7324-.7324-.7324z"/><path d="m25.0003 28.636c-1.2882 0-2.3362 1.1336-2.3362 2.527 0 1.3935 1.0479 2.5271 2.3362 2.5271 1.2882 0 2.3362-1.1336 2.3362-2.5271 0-1.3934-1.0479-2.527-2.3362-2.527zm0 3.5892c-.4805 0-.8714-.4764-.8714-1.0622 0-.5857.3909-1.0622.8714-1.0622s.8714.4765.8714 1.0622c0 .5858-.3909 1.0622-.8714 1.0622z"/><path d="m30.73 28.2046c-.4046 0-.7324.3278-.7324.7324v1.1719c0 .4046.3278.7324.7324.7324s.7324-.3278.7324-.7324v-1.1719c0-.4045-.3279-.7324-.7324-.7324z"/><path d="m11.744 9.37315c-2.14976 1.91925-3.03677 3.80375-2.42554 5.37455 1.20284 3.0915 7.06594 2.8281 10.38734 2.3599 1.5076 1.0355 3.3313 1.6424 5.2943 1.6424s3.7866-.6068 5.2941-1.6422c3.3175.4676 9.1849.729 10.3868-2.36.6111-1.5708-.2758-3.4554-2.4256-5.37465 1.5433-1.38252 3.182-3.4294 2.4266-5.3709-.279-.71709-.8486-1.30157-1.6932-1.73741-.3597-.18535-.8012-.04443-.9867.31504-.1855.35957-.0445.80127.315.98672.5179.26719.8542.59248.9999.9668.4902 1.26015-1.1744 3.00166-2.2148 3.89687-.9179-.69023-1.9954-1.379-3.2187-2.05351-.4388-1.29649-1.1541-2.4666-2.0752-3.44014 1.2869-.12412 2.6733-.16767 3.9491-.03203.4029.04209.763-.24873.8058-.65088.0428-.40225-.2487-.76299-.6509-.80576-1.8134-.19277-3.8118-.05977-5.6171.19482-1.5078-1.035641-3.3317-1.64277-5.2951-1.64277s-3.7874.607129-5.2951 1.64287c-10.77697-1.52246-13.05714 3.16533-7.961 7.73028zm-1.0604 4.84335c-.3784-.9729.4783-2.3938 2.2172-3.895.9333.705 2.0157 1.3979 3.2189 2.0606.4395 1.2945 1.1548 2.4625 2.0752 3.4344-4.1313.3983-6.989-.2575-7.5113-1.6zm5.0002-3.7954c-.5656-.345-1.095-.69512-1.5827-1.04669.4854-.35234 1.0152-.70478 1.5835-1.05302-.0389.34599-.0596.69736-.0596 1.05351.0001.35371.0205.7026.0588 1.0462zm2.5401 3.0303c1.2884.6046 2.6756 1.1709 4.1363 1.6822-.7824.1763-1.54.3219-2.2679.4382-.7417-.5889-1.3767-1.3064-1.8684-2.1204zm6.7762 3.8338c-1.0517 0-2.0551-.2081-2.9738-.5823.9738-.202 1.9687-.4469 2.9733-.7324 1.0049.2856 1.9999.5304 2.9739.7324-.9185.3743-1.9219.5823-2.9734.5823zm4.9076-1.7134c-.7281-.1162-1.4859-.2619-2.2685-.4382 1.4611-.5114 2.8487-1.078 4.1374-1.6827-.4917.8143-1.1269 1.532-1.8689 2.1209zm9.4082-1.3553c-.5224 1.3425-3.3798 1.9982-7.5107 1.6001.9206-.9721 1.6359-2.1403 2.0755-3.4351 1.2029-.6626 2.2849-1.3553 3.218-2.0601 1.7388 1.5012 2.5956 2.9222 2.2172 3.8951zm-3.4176-4.84209c-.4874.35137-1.0165.70129-1.5818 1.04619.0383-.3435.0587-.69218.0587-1.0456 0-.35605-.0206-.70723-.0595-1.05303.5679.34805 1.0974.7003 1.5826 1.05244zm-2.988.00059c0 .6864-.0882 1.3525-.2534 1.988-2.4309 1.2878-5.0602 2.3168-7.6572 3.0828-2.6017-.7674-5.2304-1.7974-7.6563-3.0823-.1652-.6357-.2535-1.302-.2535-1.9885 0-4.36162 3.5486-7.91016 7.9102-7.91016s7.9102 3.54854 7.9102 7.91016zm-14.7171-6.43955c-.9216.97363-1.6374 2.14404-2.0764 3.44092-1.2236.6747-2.3015 1.36357-3.2195 2.054-1.0335-.88926-2.705-2.63682-2.2149-3.89687.4557-1.1708 2.9429-2.04688 7.5108-1.59805z"/><path d="m38.4732 24.3813c-.1692-2.39-2.1459-4.1665-4.4614-4.1665h-18.0232c-2.2982 0-4.2903 1.7587-4.461 4.1665-.0098.0025-2.25619-.0606-4.22201 1.8224-.29209.2798-.30205.7435-.02227 1.0356.27891.2911.74248.3029 1.03555.0222 1.53994-1.4752 3.27803-1.413 3.28783-1.4154.0768.6757.1862 1.4834.3412 2.3781-2.79729.0023-3.79319 3.4856-1.5482 4.9203l3.586 2.2919c.7118 1.6907 1.6203 3.3294 2.7794 4.7301-.0631.0599-.1169.1314-.1567.2144-.8914 1.8619-2.7721 1.7866-2.7841 1.7904-1.1629 0-1.7213-1.4362-.7885-2.1576.8027-.6207.7581-1.8401-.0937-2.3844l-3.84022-2.4541c-1.97403-1.2616-2.78125-3.6543-2.12198-5.7642.12051-.3861-.09472-.7968-.48076-.9175-.38662-.1205-.79687.0948-.91758.4807-.20752.6647-.30351 1.3626-.29091 2.013.03154 2.206 1.16142 4.2329 3.02236 5.4222l3.82659 2.4454c-2.0596 1.5938-.8372 4.8541 1.756 4.7803 1.6368-.0435 3.1042-.9392 3.897-2.3583 1.0925 1.0506 2.1995 1.7232 3.5946 2.1692-.0482.407-.0278.8172.0608 1.2144h-1.5255c-1.4721 0-2.6698 1.1976-2.6698 2.6698 0 1.4721 1.1978 2.6698 2.6699 2.6698h10.1553c1.472 0 2.6698-1.1977 2.6698-2.6698 0-1.4722-1.1978-2.6698-2.6698-2.6698h-1.5253c.0887-.3972.1093-.8075.0611-1.2144 1.3938-.4461 2.5007-1.1188 3.5936-2.1697.8449 1.5125 2.4168 2.3598 3.9711 2.3598 2.5737 0 3.7014-3.2045 1.6835-4.7822l3.8254-2.4445c1.861-1.1894 2.9907-3.2164 3.0223-5.4222.0536-3.738-3.1162-6.5905-6.2364-6.6059zm-.7044 5.3078h.3737c1.208.0465 1.6975 1.564.6693 2.2212l-1.9608 1.2532c.3849-1.1954.6848-2.3753.9178-3.4744zm-26.5802 2.2212c-1.0269-.6564-.5401-2.1747.6693-2.2212h.3717c.2325 1.0984.532 2.2774.9167 3.4723zm15.9841 11.8958c.0127.4191-.0958.8363-.3216 1.2019-.2605.4216-1.0042.7049-1.8509.7049-.8468 0-1.5905-.2832-1.8509-.7049-.2255-.3653-.3338-.7826-.321-1.2021.7118.1298 1.4423.1953 2.173.1953.7302 0 1.4603-.0655 2.1714-.1951zm4.1101 3.5241c0 .6644-.5405 1.205-1.2049 1.205h-10.1553c-.6645 0-1.205-.5406-1.205-1.205 0-.6645.5405-1.205 1.205-1.205h2.248c.6089.6571 1.6486 1.0524 2.8296 1.0524s2.2206-.3954 2.8295-1.0524h2.2482c.6644 0 1.2049.5405 1.2049 1.205zm-3.7123-5.1083c-1.6567.4204-3.4821.4203-5.1402-.0001-1.4883-.3775-2.5869-.9904-3.6735-2.0492-4.4084-4.2964-5.5246-12.6662-5.7616-15.129-.1831-1.902 1.2679-3.3639 2.9934-3.3639h18.0233c1.7238 0 3.1776 1.4622 2.9934 3.3633-.4901 5.0555-2.1563 11.6162-5.7619 15.1289-1.0874 1.0595-2.1859 1.6725-3.6729 2.05zm13.3282-7.0468-3.8405 2.4541c-.8507.5435-.8952 1.7641-.0938 2.3841.9441.7306.3631 2.1869-.8208 2.1575-1.1838-.0314-2.2382-.7175-2.7519-1.7905-.0397-.083-.0935-.1545-.1566-.2144 1.1573-1.399 2.065-3.0371 2.7765-4.7276l3.589-2.2939c.7603-.4858 1.2219-1.3129 1.2348-2.2126.0217-1.5206-1.2873-2.7077-2.6803-2.7077h-.1041c.1553-.8946.2651-1.7023.3424-2.3781h.2771c2.6052.2984 4.6116 2.5401 4.5747 5.1201-.0247 1.7121-.9018 3.2856-2.3465 4.209z"/></g></svg>