<svg fill="none" height="50" viewBox="0 0 50 50" width="50" xmlns="http://www.w3.org/2000/svg" xmlns:xlink="http://www.w3.org/1999/xlink"><clipPath id="a"><path d="m0 0h50v50h-50z"/></clipPath><g clip-path="url(#a)" stroke="#001315" stroke-width="1.5"><g stroke-linecap="round" stroke-linejoin="round"><path d="m9.375 37.5h-1.5625c-1.6576 0-3.24731-.6585-4.41942-1.8306-1.1721-1.1721-1.83058-2.7619-1.83058-4.4194v-6.25c0-1.6575.65848-3.2473 1.83058-4.4194 1.17211-1.1721 2.76182-1.8306 4.41942-1.8306h1.5625c.4144 0 .8118.1646 1.1049.4576.293.2931.4576.6905.4576 1.1049v15.625c0 .4144-.1646.8119-.4576 1.1048-.2931.2931-.6905.4577-1.1049.4577z"/><path d="m42.1875 37.5h-1.5625c-.4144 0-.8119-.1646-1.1048-.4577-.2931-.2929-.4577-.6904-.4577-1.1048v-15.625c0-.4144.1646-.8118.4577-1.1049.2929-.293.6904-.4576 1.1048-.4576h1.5625c1.6575 0 3.2473.6585 4.4194 1.8306s1.8306 2.7619 1.8306 4.4194v6.25c0 1.6575-.6585 3.2473-1.8306 4.4194s-2.7619 1.8306-4.4194 1.8306z"/><path d="m7.8125 18.75c0-4.5584 1.81081-8.93013 5.0341-12.1534 3.2233-3.22329 7.595-5.0341 12.1534-5.0341 4.5583 0 8.9302 1.81081 12.1533 5.0341 3.2234 3.22327 5.0342 7.595 5.0342 12.1534"/><path d="m31.25 45.3125h4.6875c1.6575 0 3.2473-.6585 4.4194-1.8306s1.8306-2.7619 1.8306-4.4194v-1.5625"/><path d="m28.125 48.4375h-3.125c-.8288 0-1.6238-.3292-2.2098-.9152-.586-.5861-.9152-1.3811-.9152-2.2098 0-.8288.3292-1.6237.9152-2.2098.586-.586 1.381-.9152 2.2098-.9152h3.125c.8287 0 1.6238.3292 2.2098.9152.586.5861.9152 1.381.9152 2.2098 0 .8287-.3292 1.6237-.9152 2.2098-.586.586-1.3811.9152-2.2098.9152z"/><path d="m18.75 17.1875c.0002-1.1457.3154-2.2694.9111-3.2482.5957-.9787 1.4489-1.7749 2.4666-2.3015 1.0175-.5265 2.1604-.7632 3.3033-.6842 1.1432.079 2.2425.4708 3.178 1.1324.9354.6616 1.671 1.5676 2.1262 2.619.4554 1.0514.6129 2.2078.4554 3.3427s-.6237 2.2047-1.3481 3.0925c-.7244.8877-1.679 1.5591-2.7592 1.941-.6096.2156-1.1373.6148-1.5104 1.1427-.3731.5281-.5733 1.1588-.5729 1.8052v.5333"/></g><path d="m25 34.375c-.4315 0-.7812-.3498-.7812-.7813 0-.4314.3497-.7812.7812-.7812"/><path d="m25 34.375c.4315 0 .7812-.3498.7812-.7813 0-.4314-.3497-.7812-.7812-.7812"/></g></svg>