<svg fill="none" height="50" viewBox="0 0 50 50" width="50" xmlns="http://www.w3.org/2000/svg" xmlns:xlink="http://www.w3.org/1999/xlink"><clipPath id="a"><path d="m0 0h50v50h-50z"/></clipPath><g clip-path="url(#a)" fill="#fff"><path d="m16.3386 22.5079c.3314.0005.6494-.1313.8837-.3656s.3661-.5524.3656-.8837c0-.6901.5597-1.2498 1.2498-1.2498s1.2498.5597 1.2498 1.2498.5592 1.2493 1.2493 1.2493c.6905 0 1.2498-.5592 1.2498-1.2493 0-2.0707-1.6786-3.7488-3.7489-3.7488s-3.7488 1.6781-3.7488 3.7488c0 .3313.1313.6494.3656.8837.2348.2343.5524.3661.8841.3656z"/><path d="m33.2743 30.7637c-4.6668 2.3329-11.7092 2.3329-16.3769 0-.6174-.3089-1.3679-.0586-1.6768.5587-.3084.6174-.0585 1.3683.5588 1.6768 2.9086 1.3719 6.091 2.0629 9.3062 2.0208 3.2153.0421 6.3981-.6493 9.3062-2.0208.6174-.3085.8677-1.0594.5593-1.6768-.3089-.6173-1.0594-.8676-1.6768-.5587z"/><path d="m46.3293 20.0096h-1.2497v-3.7489c-.0032-3.4491-2.7989-6.2447-6.248-6.2479h-3.7488v-2.72973c1.7211-.60818 2.754-2.36865 2.4451-4.16803-.3089-1.79983-1.869-3.11504-3.6949-3.11504s-3.3859 1.31521-3.6948 3.11504c-.3089 1.79938.7239 3.55985 2.4451 4.16803v2.72973h-14.9954v-2.72973c1.7215-.60818 2.7539-2.36865 2.4455-4.16803-.3089-1.79983-1.8689-3.11504-3.6949-3.11504-1.8259 0-3.3864 1.31521-3.6948 3.11504-.3089 1.79938.7235 3.55985 2.4451 4.16803v2.72973h-3.7489c-3.44908.0037-6.24424 2.7988-6.2479 6.2479v3.7489h-1.24977c-2.06937.0023-3.7465581 1.6795-3.7488462 3.7488v4.9986c.0022881 2.0694 1.6794762 3.7466 3.7488462 3.7489h1.24977v4.9982c.00366 3.4495 2.79882 6.2447 6.2479 6.2483h6.248v4.9982c.0004.4544.2471.8727.6443 1.0928s.8827.2073 1.2676-.0334l9.6934-6.0576h9.6384c3.4491-.0032 6.2448-2.7988 6.248-6.2483v-4.9982h1.2497c2.0694-.0023 3.7466-1.6795 3.7489-3.7489v-4.9986c-.0023-2.0693-1.6795-3.7465-3.7489-3.7488zm-12.4963-17.4945c.6901 0 1.2498.55921 1.2498 1.24931 0 .69055-.5597 1.24977-1.2498 1.24977s-1.2497-.55922-1.2497-1.24977c.0013-.68918.5601-1.24794 1.2497-1.24931zm-17.4945 0c.6901 0 1.2494.55921 1.2494 1.24931 0 .69055-.5593 1.24977-1.2494 1.24977-.69 0-1.2497-.55922-1.2497-1.24977.0009-.68964.5597-1.2484 1.2497-1.24931zm-12.49627 27.4913c-.68964-.0005-1.24885-.5597-1.24977-1.2494v-4.9986c.00092-.6896.56013-1.2488 1.24977-1.2497h1.24977v7.4977zm38.73827 7.4977c-.0023 2.0698-1.6795 3.747-3.7489 3.7488h-9.9972c-.2338 0-.4631.0659-.6613.1904l-8.0857 5.0521v-3.9927c0-.3314-.1313-.6494-.3661-.8837-.2343-.2343-.5524-.3661-.8837-.3661h-7.4977c-2.06934-.0018-3.74653-1.679-3.74882-3.7488v-21.2434c.00229-2.0693 1.67948-3.7465 3.74882-3.7488h27.4917c2.0694.0023 3.7466 1.6795 3.7489 3.7488zm4.9982-8.7471c-.001.6897-.5597 1.2484-1.2494 1.2494h-1.2497v-7.4977h1.2497c.6897.0013 1.2484.5601 1.2494 1.2497z"/><path d="m31.3339 17.5098c-2.0693.0023-3.7465 1.6794-3.7488 3.7488 0 .6901.5592 1.2493 1.2493 1.2493.6905 0 1.2498-.5592 1.2498-1.2493s.5596-1.2498 1.2497-1.2498 1.2493.5597 1.2493 1.2498.5597 1.2493 1.2498 1.2493 1.2498-.5592 1.2498-1.2493c-.0023-2.0694-1.6795-3.7465-3.7489-3.7488z"/></g></svg>