<svg fill="none" height="112" viewBox="0 0 69 112" width="69" xmlns="http://www.w3.org/2000/svg"><path d="m4.39797 2.15943c.08805-.82373-.50834-1.56288-1.33207-1.650933-.82374-.088053-1.56288.508333-1.65094 1.332073zm63.85733 97.16687c.4535-.6933.2591-1.6229-.4342-2.0764l-11.298-7.3895c-.6933-.4535-1.623-.2591-2.0764.4342-.4535.6933-.259 1.623.4343 2.0764l10.0426 6.5685-6.5685 10.0425c-.4534.693-.259 1.623.4343 2.077.6933.453 1.6229.259 2.0764-.435zm-66.84034-97.48573c-2.016082 18.86043-1.231877 46.46033 7.82164 67.82573 4.5358 10.7042 11.194 19.9514 20.7245 25.6875 9.558 5.7532 21.8254 7.8662 37.346 4.6197l-.6142-2.9365c-14.9238 3.121-26.3911 1.0391-35.1848-4.2536-8.8213-5.3093-15.1321-13.9579-19.5093-24.2876-8.77246-20.7022-9.59059-47.7222-7.60083-66.33637z" fill="#6d30fb"/></svg>