<svg fill="none" height="121" viewBox="0 0 129 121" width="129" xmlns="http://www.w3.org/2000/svg"><path d="m27.1253 2.87737c.4846-.67193.3327-1.60945-.3393-2.094012-.6719-.484559-1.6094-.332663-2.094.339272zm101.0717 106.38563c.499-.661.368-1.602-.293-2.101l-10.775-8.1339c-.661-.4991-1.601-.3678-2.101.2934-.499.6612-.367 1.6015.294 2.1005l9.577 7.231-7.23 9.577c-.499.661-.368 1.602.293 2.101s1.602.368 2.101-.294zm-103.505-108.14037c-8.1177 11.25677-15.79583 25.00807-20.24424 38.98617-4.44171812 13.9572-5.71804 28.3195-.77216 40.6573 4.97751 12.4168 16.1299 22.4749 35.8709 28.0159 19.6914 5.527 48.0267 6.598 87.6605 1.063l-.414-2.971c-39.4466 5.508-67.3132 4.387-86.4358-.98-19.0729-5.353-29.3464-14.8922-33.897-26.2441-4.58227-11.4308-3.48901-25.0086.84629-38.6313 4.32861-13.6017 11.83501-27.0701 19.81881-38.14123z" fill="#6d30fb"/></svg>