<svg fill="none" height="60" viewBox="0 0 60 60" width="60" xmlns="http://www.w3.org/2000/svg"><g fill="#6d30fb"><path d="m54.7372 6.01894c-.084-.378-.379-.673-.758-.758-.091-.02-3.957-.805-9.353.579-.046-.003-.087-.021-.135-.017-.184.011-.343.084-.486.179-5.106 1.441-11.453 4.86696-17.271 12.59296-2.718-.265-13.851-.471-18.24996 13.157-.141.436.032.909.418 1.153.164.104.349.153.533.153.249 0 .497-.093.68796-.273.052-.05 4.981-4.635 10.263-3.295-.364.805-.725 1.626-1.077 2.484-.152.373-.066.801.219 1.086l.381.381-2.359 2.36c-.391.391-.391 1.023 0 1.414l5.233 5.233c.195.195.451.293.707.293s.512-.098.707-.293l2.36-2.359.381.381c.191.191.447.293.707.293.128 0 .257-.024.379-.074.859-.352 1.68-.713 2.485-1.078 1.337 5.278-3.247 10.212-3.297 10.264-.313.332-.363.835-.12 1.222.188.296.51.467.847.467.102 0 .205-.016.307-.049 13.631-4.402 13.423-15.537 13.157-18.251 7.724-5.816 11.149-12.161 12.591-17.267.096-.143.17-.302.181-.486.003-.048-.015-.09-.019-.137 1.387-5.39596.602-9.26396.581-9.35496zm-31.246 34.30796-3.819-3.819 1.651-1.652 3.82 3.82zm29.404-33.22396c.164 1.185.355 3.84296-.419 7.26296-1.717-.27-3.308-1.073-4.543-2.308-1.238-1.238-2.039-2.82596-2.303-4.53596 3.424-.775 6.084-.582 7.265-.419zm-41.248 22.11696c3.914-7.98 10.655-8.801 13.727-8.724-1.423 2.094-2.803 4.471-4.116 7.158-3.756-1.125-7.268.199-9.611 1.566zm19.131 19.132c1.367-2.344 2.692-5.857 1.567-9.613 2.687-1.313 5.064-2.692 7.157-4.116.077 3.075-.746 9.816-8.724 13.729zm9.083-16.37c-.05.028-.093.06-.137.096-3.16 2.285-7.047 4.493-11.843 6.506l-6.466-6.466c2.01-4.79 4.215-8.671 6.497-11.829.041-.049.078-.099.109-.156 5.3-7.273 11.003-10.61096 15.677-12.08596.361 2.04396 1.335 3.93896 2.822 5.42496 1.483 1.484 3.382 2.46 5.433 2.827-1.475 4.675-4.814 10.381-12.092 15.683z"/><path d="m35.3201 17.6181c-1.945 1.946-1.945 5.114 0 7.061.974.973 2.252 1.459 3.53 1.459s2.558-.486 3.531-1.459c0 0 0 0 0-.001 1.945-1.946 1.945-5.114 0-7.061-1.946-1.944-5.115-1.946-7.061.001zm5.648 5.646c-1.168 1.166-3.067 1.166-4.233 0-1.166-1.167-1.166-3.066 0-4.233.583-.583 1.35-.875 2.116-.875s1.533.292 2.117.874c1.165 1.168 1.166 3.067 0 4.234z"/><path d="m11.3499 49.6501c.256 0 .512-.098.707-.293l6.35-6.35c.391-.391.391-1.023 0-1.414s-1.023-.391-1.414 0l-6.35 6.35c-.391.391-.391 1.023 0 1.414.195.195.451.293.707.293z"/><path d="m12.9729 54.983c.256 0 .512-.098.707-.293l6.35-6.349c.391-.391.391-1.023 0-1.414s-1.023-.391-1.414 0l-6.35 6.349c-.391.391-.391 1.023 0 1.414.195.195.451.293.707.293z"/><path d="m5.31083 47.735c.195.195.451.293.707.293s.512-.098.707-.293l6.34897-6.35c.391-.391.391-1.023 0-1.414s-1.023-.391-1.414 0l-6.34897 6.35c-.391.391-.391 1.023 0 1.414z"/></g></svg>