<svg fill="none" height="60" viewBox="0 0 60 60" width="60" xmlns="http://www.w3.org/2000/svg"><path d="m58.75 35c0-3.0194-1.7973-5.6212-4.375-6.8092v-.6908c0-13.4406-10.9344-24.375-24.375-24.375s-24.375 10.9344-24.375 24.375v.6908c-2.57774 1.188-4.375 3.7898-4.375 6.8092 0 4.1354 3.36426 7.5 7.5 7.5h2.5c.6903 0 1.25-.5597 1.25-1.25v-12.5c0-.6903-.5597-1.25-1.25-1.25h-2.5c-.21095 0-.4184.0145-.625.0317v-.0317c0-12.0618 9.8132-21.875 21.875-21.875s21.875 9.8132 21.875 21.875v.0317c-.2066-.0172-.414-.0317-.625-.0317h-2.5c-.6903 0-1.25.5597-1.25 1.25v12.5c0 .6903.5597 1.25 1.25 1.25h2.5c.211 0 .4184-.0145.625-.0317v1.9067c0 4.1354-3.3643 7.5-7.5 7.5h-9.375c0-1.3785-1.1212-2.5-2.5-2.5h-6.25c-1.3788 0-2.5 1.1215-2.5 2.5v2.5c0 1.3785 1.1212 2.5 2.5 2.5h6.25c1.3788 0 2.5-1.1215 2.5-2.5h9.375c5.5139 0 10-4.4861 10-10v-2.5658c2.5777-1.188 4.375-3.7898 4.375-6.8092zm-48.75-5v10h-1.25c-2.75696 0-5-2.243-5-5s2.24304-5 5-5zm16.25 24.375v-2.5h6.25l.0009 1.241c0 .0031-.0009.0059-.0009.009s.0009.006.0009.0092l.0009 1.2408zm25-14.375h-1.25v-10h1.25c2.757 0 5 2.243 5 5s-2.243 5-5 5zm-21.25 3.125c7.5818 0 13.75-6.1682 13.75-13.75s-6.1682-13.75-13.75-13.75-13.75 6.1682-13.75 13.75c0 2.453.6573 4.8505 1.9061 6.9662l-1.2585 6.5479c-.0873.4547.0836.9204.4449 1.2106.2259.1813.503.2753.7825.2753.1678 0 .3363-.0336.4956-.1022l5.6122-2.4225c1.8194.8462 3.7567 1.2747 5.7672 1.2747zm-10.2014-2.0837.9039-4.7049c.0604-.3147-.0018-.6403-.1745-.9101-1.1634-1.8158-1.778-3.9084-1.778-6.0513 0-6.2033 5.047-11.25 11.25-11.25s11.25 5.0467 11.25 11.25-5.047 11.25-11.25 11.25c-1.8073 0-3.5431-.4242-5.1593-1.2607-.3326-.1724-.7257-.1867-1.0699-.0375zm10.2014-7.9163h-6.25c-.6903 0-1.25-.5597-1.25-1.25s.5597-1.25 1.25-1.25h6.25c.6903 0 1.25.5597 1.25 1.25s-.5597 1.25-1.25 1.25zm-7.5-6.25c0-.6903.5597-1.25 1.25-1.25h12.5c.6903 0 1.25.5597 1.25 1.25s-.5597 1.25-1.25 1.25h-12.5c-.6903 0-1.25-.5597-1.25-1.25z" fill="#6d30fb"/></svg>