<svg fill="none" height="60" viewBox="0 0 60 60" width="60" xmlns="http://www.w3.org/2000/svg"><path d="m12.6225 34.5c-.9844-.4753-2.0831-.75-3.2475-.75-4.13531 0-7.5 3.3647-7.5 7.5s3.36469 7.5 7.5 7.5c2.595 0 4.8853-1.3256 6.2325-3.3347l7.0847 3.5466c-.1219.5353-.1922 1.0912-.1922 1.6631 0 4.1353 3.3647 7.5 7.5 7.5s7.5-3.3647 7.5-7.5c0-1.5544-.4753-2.9991-1.2891-4.1981l9.9553-10.4091c1.2488.9263 2.7882 1.4822 4.4588 1.4822 4.1353 0 7.5-3.3647 7.5-7.5s-3.3647-7.5-7.5-7.5c-1.7306 0-3.3206.5944-4.5919 1.5825l-10.1156-10.1156c.9881-1.2713 1.5825-2.8613 1.5825-4.5919 0-4.13531-3.3647-7.5-7.5-7.5s-7.5 3.36469-7.5 7.5c0 .57.0694 1.1241.1912 1.6584l-6.6487 2.4225c-1.2469-2.4197-3.7641-4.0809-6.6675-4.0809-4.13531 0-7.5 3.3647-7.5 7.5s3.36469 7.5 7.5 7.5c1.0669 0 2.0803-.2269 3-.6309l3.4509 5.8078zm-3.2475 12.375c-3.10219 0-5.625-2.5228-5.625-5.625s2.52281-5.625 5.625-5.625c3.1022 0 5.625 2.5228 5.625 5.625s-2.5228 5.625-5.625 5.625zm7.0678-3.1397c.2747-.7791.4322-1.6134.4322-2.4853 0-2.2997-1.0425-4.3584-2.6766-5.7347l2.6963-4.1644 8.1291 13.6791c-.6844.6094-1.2572 1.3387-1.6819 2.1591zm13.5572-26.8603c1.7306 0 3.3206-.5944 4.5919-1.5825l10.1165 10.1166c-.6065.78-1.0603 1.6809-1.3218 2.6615l-5.8894-.81c-.0009-.0244.0028-.0487.0028-.0731 0-4.1353-3.3647-7.5-7.5-7.5-2.595 0-4.8863 1.3256-6.2325 3.3347l-1.1184-.5588 4.1043-6.3384c.9835.4753 2.0822.75 3.2466.75zm.9375 26.3147v-8.5678c3.0469-.3825 5.5256-2.5969 6.3019-5.505l5.8893.81c0 .0244-.0037.0487-.0037.0731 0 1.7906.6319 3.4341 1.6828 4.725l-9.8437 10.2928c-1.1035-.9778-2.4919-1.635-4.0266-1.8281zm-.9375-21.6272c3.1022 0 5.625 2.5228 5.625 5.625s-2.5228 5.625-5.625 5.625-5.625-2.5228-5.625-5.625 2.5228-5.625 5.625-5.625zm-7.0678 3.1397c-.2747.7791-.4322 1.6134-.4322 2.4853 0 3.8175 2.8687 6.9712 6.5625 7.4353v8.5678c-.8888.1116-1.7278.3778-2.4919.7725l-8.5387-14.369 3.5915-5.5463zm7.0678 31.5478c-3.1022 0-5.625-2.5228-5.625-5.625s2.5228-5.625 5.625-5.625 5.625 2.5228 5.625 5.625-2.5228 5.625-5.625 5.625zm20.625-31.875c3.1022 0 5.625 2.5228 5.625 5.625s-2.5228 5.625-5.625 5.625-5.625-2.5228-5.625-5.625 2.5228-5.625 5.625-5.625zm-20.625-20.625c3.1022 0 5.625 2.52281 5.625 5.625 0 3.1022-2.5228 5.625-5.625 5.625s-5.625-2.5228-5.625-5.625c0-3.10219 2.5228-5.625 5.625-5.625zm-6.6675 9.0441c.4584.8897 1.0856 1.6762 1.8441 2.3156l-4.215 6.51-4.5188-2.2594c.2747-.7791.4322-1.6134.4322-2.4853 0-.57-.0694-1.1241-.1913-1.6584zm-19.5825 4.0809c0-3.1022 2.52281-5.625 5.625-5.625 3.1022 0 5.625 2.5228 5.625 5.625s-2.5228 5.625-5.625 5.625c-3.10219 0-5.625-2.5228-5.625-5.625zm10.2328 5.9053c.6281-.4912 1.1794-1.0762 1.6247-1.74l4.3284 2.1638-2.9728 4.5909z" fill="#6d30fb"/></svg>