<svg fill="none" height="166" viewBox="0 0 214 166" width="214" xmlns="http://www.w3.org/2000/svg"><g fill="#2f2f2f"><path d="m182.171 3.27798c-11.201-3.501935-23.268-3.020615-34.155 1.36229-7.112 2.66062-13.493 6.96823-18.62 12.57003s-8.854 12.3384-10.876 19.6581c-1.83 6.5958-2.32 13.4916-1.441 20.28.791 10.4186 5.231 20.2246 12.537 27.6937 7.307 7.469 17.013 12.1228 27.412 13.1431 1.931.2753 3.892-.2269 5.453-1.3965s2.594-2.9109 2.872-4.8414c.278-1.9306-.221-3.8926-1.389-5.4552-1.167-1.5626-2.907-2.598-4.837-2.8789-16.197-2.3364-25.427-11.7791-27.433-28.062-.628-4.842-.291-9.7604.992-14.4713 1.398-5.1562 4.018-9.8994 7.638-13.8277s8.134-6.9258 13.16-8.7385c7.721-3.1235 16.285-3.4778 24.237-1.0027 21.901 6.9481 21.326 32.6522 21.287 34.0073 0 42.846-40.251 101.5797-40.657 102.1687-.552.795-.942 1.691-1.148 2.637-.205.946-.222 1.922-.05 2.875.173.952.531 1.861 1.056 2.674.524.814 1.203 1.516 1.999 2.067.796.55 1.693.938 2.639 1.142s1.923.219 2.875.044c.952-.174 1.86-.534 2.672-1.06.813-.526 1.514-1.207 2.063-2.003 1.768-2.553 43.274-63.0834 43.266-110.25.525-13.0913-5.399-40.039-31.552-48.33502z"/><path d="m65.7625 3.27865c-11.201-3.500188-23.2679-3.018893-34.1546 1.36228-7.1129 2.65977-13.4944 6.96707-18.6215 12.56907-5.12704 5.6019-8.85374 12.339-10.8747 19.6591-1.833048 6.5954-2.323198 13.4917-1.44139 20.28.79108 10.4184 5.23011 20.2244 12.53649 27.6934 7.3063 7.4691 17.0122 12.1229 27.4107 13.1432 1.9323.2789 3.8963-.2213 5.4599-1.3906 1.5635-1.1692 2.5986-2.9116 2.8774-4.844.2789-1.9324-.2213-3.8964-1.3906-5.4599-1.1692-1.5636-2.9116-2.5986-4.844-2.8775-16.2003-2.3363-25.4309-11.779-27.4384-28.062-.6255-4.8422-.2871-9.7604.9957-14.4713 1.3966-5.1563 4.016-9.8998 7.6362-13.8282 3.6202-3.9283 8.1343-6.9258 13.1596-8.738 7.7216-3.1233 16.2862-3.4776 24.2393-1.0027 21.8993 6.9481 21.326 32.6522 21.2864 34.0073 0 42.8461-40.2562 101.5792-40.6624 102.1692-.5504.795-.9388 1.691-1.143 2.636-.2041.945-.2201 1.921-.047 2.872.1732.952.5321 1.86 1.0562 2.672.5241.813 1.2032 1.514 1.9984 2.064.7953.55 1.6911.938 2.6363 1.142.9453.204 1.9214.219 2.8726.046.9513-.174 1.859-.533 2.6713-1.058.8124-.524 1.5135-1.203 2.0632-1.999 1.7667-2.552 43.2774-63.0828 43.2719-110.253.5213-13.0876-5.4025-40.0353-31.554-48.33135z"/></g></svg>