<svg fill="none" height="128" viewBox="0 0 128 128" width="128" xmlns="http://www.w3.org/2000/svg"><path d="m7.77573 71.7757c-2.1597-2.1597-3.23988-4.7516-3.24053-7.7757.00065-3.0241 1.08083-5.616 3.24053-7.7757 1.82924-1.8293 3.98737-2.8787 6.47427-3.1482 2.4876-.2689 4.7879.2099 6.9009 1.4365l33.3618-33.3617c-1.2267-2.113-1.7055-4.4133-1.4366-6.9009.2695-2.487 1.3189-4.64504 3.1482-6.47428 2.1597-2.15971 4.7516-3.23989 7.7757-3.24054 3.0241.00065 5.616 1.08083 7.7757 3.24054 1.8293 1.82924 2.8787 3.98728 3.1482 6.47428.2689 2.4876-.2099 4.7879-1.4366 6.9009l33.3617 33.3617c2.098-1.2415 4.397-1.7223 6.895-1.4424 2.498.2806 4.658 1.332 6.48 3.1541 2.16 2.1597 3.24 4.7516 3.241 7.7757-.001 3.0241-1.081 5.616-3.241 7.7757-1.822 1.8221-3.982 2.8735-6.48 3.154-2.498.28-4.797-.2008-6.895-1.4424l-33.3617 33.3617c1.2267 2.113 1.7055 4.413 1.4366 6.901-.2695 2.487-1.3189 4.645-3.1482 6.474-2.1597 2.16-4.7516 3.24-7.7757 3.241-3.0241-.001-5.616-1.081-7.7757-3.241-1.8293-1.829-2.8787-3.987-3.1482-6.474-.2689-2.488.2099-4.788 1.4366-6.901l-33.3618-33.3617c-2.113 1.2267-4.4133 1.7055-6.9009 1.4366-2.4869-.2696-4.64503-1.319-6.47427-3.1482zm52.33637-52.3364c1.1016 1.1016 2.3976 1.6523 3.8879 1.6523s2.7863-.5507 3.8879-1.6523c1.1015-1.1016 1.6523-2.3975 1.6523-3.8879 0-1.4903-.5508-2.7863-1.6523-3.8878-1.1016-1.1016-2.3976-1.6524-3.8879-1.6524s-2.7863.5508-3.8879 1.6524c-1.1015 1.1015-1.6523 2.3975-1.6523 3.8878 0 1.4904.5508 2.7863 1.6523 3.8879zm48.4489 48.4485c1.101 1.1016 2.397 1.6524 3.888 1.6524 1.49 0 2.786-.5508 3.887-1.6524 1.102-1.1015 1.653-2.3975 1.653-3.8878 0-1.4904-.551-2.7863-1.653-3.8879-1.101-1.1015-2.397-1.6523-3.887-1.6523-1.491 0-2.787.5508-3.888 1.6523-1.102 1.1016-1.653 2.3975-1.653 3.8879 0 1.4903.551 2.7863 1.653 3.8878zm-83.5222 1.7117 33.3617 33.3615c1.769-1.002 3.6355-1.503 5.5995-1.503s3.8305.501 5.5995 1.503l33.3615-33.3615c-1.051-1.7191-1.577-3.5856-1.577-5.5995s.526-3.8804 1.577-5.5995l-33.3615-33.3617c-1.769 1.0018-3.6355 1.503-5.5995 1.5036-1.964-.0006-3.8305-.5018-5.5995-1.5036l-33.3617 33.3617c1.0018 1.769 1.503 3.6355 1.5036 5.5995-.0006 1.964-.5018 3.8305-1.5036 5.5995zm35.0733 46.7365c1.1016 1.102 2.3975 1.653 3.8879 1.653s2.7863-.551 3.8879-1.653c1.1015-1.101 1.6523-2.397 1.6523-3.887 0-1.491-.5508-2.787-1.6523-3.888-1.1016-1.102-2.3976-1.653-3.8879-1.653s-2.7863.551-3.8879 1.653c-1.1015 1.101-1.6523 2.397-1.6523 3.888 0 1.49.5508 2.786 1.6523 3.887zm-48.4485-48.4482c1.1016 1.1016 2.3975 1.6524 3.8878 1.6524 1.4904 0 2.7864-.5508 3.8879-1.6524 1.1016-1.1015 1.6523-2.3975 1.6523-3.8878 0-1.4904-.5507-2.7863-1.6523-3.8879-1.1016-1.1015-2.3975-1.6523-3.8879-1.6523-1.4903 0-2.7863.5508-3.8878 1.6523-1.1016 1.1016-1.6523 2.3975-1.6524 3.8879 0 1.4903.5508 2.7863 1.6524 3.8878z" fill="#6d30fb"/></svg>