<svg fill="none" height="412" viewBox="0 0 1920 412" width="1920" xmlns="http://www.w3.org/2000/svg" xmlns:xlink="http://www.w3.org/1999/xlink"><filter id="a" color-interpolation-filters="sRGB" filterUnits="userSpaceOnUse" height="67" width="27" x="961.5" y="259.5"><feFlood flood-opacity="0" result="BackgroundImageFix"/><feBlend in="SourceGraphic" in2="BackgroundImageFix" mode="normal" result="shape"/><feGaussianBlur result="effect1_foregroundBlur_914_2806" stdDeviation="5"/></filter><filter id="b" color-interpolation-filters="sRGB" filterUnits="userSpaceOnUse" height="27" width="67" x="1091.5" y="158.5"><feFlood flood-opacity="0" result="BackgroundImageFix"/><feBlend in="SourceGraphic" in2="BackgroundImageFix" mode="normal" result="shape"/><feGaussianBlur result="effect1_foregroundBlur_914_2806" stdDeviation="5"/></filter><filter id="c" color-interpolation-filters="sRGB" filterUnits="userSpaceOnUse" height="27" width="67" x="1212.5" y="68.4998"><feFlood flood-opacity="0" result="BackgroundImageFix"/><feBlend in="SourceGraphic" in2="BackgroundImageFix" mode="normal" result="shape"/><feGaussianBlur result="effect1_foregroundBlur_914_2806" stdDeviation="5"/></filter><filter id="d" color-interpolation-filters="sRGB" filterUnits="userSpaceOnUse" height="27" width="67" x="622.5" y="98.4999"><feFlood flood-opacity="0" result="BackgroundImageFix"/><feBlend in="SourceGraphic" in2="BackgroundImageFix" mode="normal" result="shape"/><feGaussianBlur result="effect1_foregroundBlur_914_2806" stdDeviation="5"/></filter><linearGradient id="e"><stop offset=".483333" stop-color="#3c3c3c"/><stop offset="1" stop-color="#a2a2a2"/></linearGradient><linearGradient id="f" gradientUnits="userSpaceOnUse" x1="1054" x2="1084" xlink:href="#e" y1="82" y2="82"/><linearGradient id="g" gradientUnits="userSpaceOnUse" x1="1054" x2="1084" xlink:href="#e" y1="112" y2="112"/><linearGradient id="h" gradientUnits="userSpaceOnUse" x1="1054" x2="1084" xlink:href="#e" y1="142" y2="142"/><linearGradient id="i" gradientUnits="userSpaceOnUse" x1="1054" x2="1084" xlink:href="#e" y1="172" y2="172"/><linearGradient id="j" gradientUnits="userSpaceOnUse" x1="0" x2="30" xlink:href="#e" y1="5" y2="5"/><linearGradient id="k" gradientUnits="userSpaceOnUse" x1="1010" x2="1040" xlink:href="#e" y1="224" y2="224"/><linearGradient id="l" gradientUnits="userSpaceOnUse" x1="980" x2="1010" xlink:href="#e" y1="224" y2="224"/><linearGradient id="m" gradientUnits="userSpaceOnUse" x1="950" x2="980" xlink:href="#e" y1="224" y2="224"/><linearGradient id="n" gradientUnits="userSpaceOnUse" x1="920" x2="950" xlink:href="#e" y1="224" y2="224"/><linearGradient id="o" gradientUnits="userSpaceOnUse" x1="379" x2="409" xlink:href="#e" y1="5" y2="5"/><linearGradient id="p" gradientUnits="userSpaceOnUse" x1="379" x2="409" xlink:href="#e" y1="275" y2="275"/><linearGradient id="q" gradientUnits="userSpaceOnUse" x1="229" x2="259" xlink:href="#e" y1="175" y2="175"/><linearGradient id="r"><stop offset="0" stop-color="#ab33f5"/><stop offset="1" stop-color="#ff6914"/></linearGradient><linearGradient id="s" gradientUnits="userSpaceOnUse" x1="975" x2="976" xlink:href="#r" y1="293" y2="293"/><linearGradient id="t" gradientUnits="userSpaceOnUse" x1="1125" x2="1125" xlink:href="#r" y1="172" y2="173"/><linearGradient id="u" gradientUnits="userSpaceOnUse" x1="1246" x2="1246" xlink:href="#r" y1="81.9998" y2="82.9998"/><linearGradient id="v" gradientUnits="userSpaceOnUse" x1="656" x2="656" xlink:href="#r" y1="112" y2="113"/><rect fill="#141414" height="10" rx="4" width="30" x="1054" y="77"/><rect height="8.5" rx="3.25" stroke="url(#f)" stroke-opacity=".3" stroke-width="1.5" width="28.5" x="1054.75" y="77.75"/><rect fill="#141414" height="10" rx="4" width="30" x="1054" y="107"/><rect height="8.5" rx="3.25" stroke="url(#g)" stroke-opacity=".3" stroke-width="1.5" width="28.5" x="1054.75" y="107.75"/><rect fill="#141414" height="10" rx="4" width="30" x="1054" y="137"/><rect height="8.5" rx="3.25" stroke="url(#h)" stroke-opacity=".3" stroke-width="1.5" width="28.5" x="1054.75" y="137.75"/><rect fill="#141414" height="10" rx="4" width="30" x="1054" y="167"/><rect height="8.5" rx="3.25" stroke="url(#i)" stroke-opacity=".3" stroke-width="1.5" width="28.5" x="1054.75" y="167.75"/><rect fill="#141414" height="10" rx="4" transform="matrix(-1 0 0 1 866 77)" width="30"/><rect height="8.5" rx="3.25" stroke="url(#j)" stroke-opacity=".3" stroke-width="1.5" transform="matrix(-1 0 0 1 864.5 77)" width="28.5" x="-.75" y=".75"/><rect fill="#141414" height="10" rx="4" transform="matrix(-1 0 0 1 866 107)" width="30"/><rect height="8.5" rx="3.25" stroke="url(#j)" stroke-opacity=".3" stroke-width="1.5" transform="matrix(-1 0 0 1 864.5 107)" width="28.5" x="-.75" y=".75"/><rect fill="#141414" height="10" rx="4" transform="matrix(-1 0 0 1 866 137)" width="30"/><rect height="8.5" rx="3.25" stroke="url(#j)" stroke-opacity=".3" stroke-width="1.5" transform="matrix(-1 0 0 1 864.5 137)" width="28.5" x="-.75" y=".75"/><rect fill="#141414" height="10" rx="4" transform="matrix(-1 0 0 1 866 167)" width="30"/><rect height="8.5" rx="3.25" stroke="url(#j)" stroke-opacity=".3" stroke-width="1.5" transform="matrix(-1 0 0 1 864.5 167)" width="28.5" x="-.75" y=".75"/><rect fill="#141414" height="10" rx="4" transform="matrix(0 1 -1 0 1229 -791)" width="30" x="1010" y="219"/><rect height="8.5" rx="3.25" stroke="url(#k)" stroke-opacity=".3" stroke-width="1.5" transform="matrix(0 1 -1 0 1229 -789.5)" width="28.5" x="1009.25" y="219.75"/><rect fill="#141414" height="10" rx="4" transform="matrix(0 1 -1 0 1199 -761)" width="30" x="980" y="219"/><rect height="8.5" rx="3.25" stroke="url(#l)" stroke-opacity=".3" stroke-width="1.5" transform="matrix(0 1 -1 0 1199 -759.5)" width="28.5" x="979.25" y="219.75"/><rect fill="#141414" height="10" rx="4" transform="matrix(0 1 -1 0 1169 -731)" width="30" x="950" y="219"/><rect height="8.5" rx="3.25" stroke="url(#m)" stroke-opacity=".3" stroke-width="1.5" transform="matrix(0 1 -1 0 1169 -729.5)" width="28.5" x="949.25" y="219.75"/><rect fill="#141414" height="10" rx="4" transform="matrix(0 1 -1 0 1139 -701)" width="30" x="920" y="219"/><rect height="8.5" rx="3.25" stroke="url(#n)" stroke-opacity=".3" stroke-width="1.5" transform="matrix(0 1 -1 0 1139 -699.5)" width="28.5" x="919.25" y="219.75"/><g stroke="#2f2f2f"><path d="m915 233v179" opacity=".7" stroke-width="2"/><path d="m945 233v179" opacity=".7" stroke-width="2"/><path d="m975 233v179" opacity=".7" stroke-width="2"/><path d="m1005 233v179" opacity=".7" stroke-width="2"/><path d="m1069.5 81.5h273.23c11.89 0 23.17-5.2888 30.77-14.4319l40-48.1362c7.6-9.14315 18.88-14.4319 30.77-14.4319h91.23" opacity=".7" stroke-width="2"/><path d="m1069.5 142h206.86c10.36 0 20.3 4.014 27.76 11.197l114.26 110.106c7.46 7.183 17.4 11.197 27.76 11.197h89.36" opacity=".7" stroke-width="2"/><path d="m1069.5 112h217.33c10.07 0 19.78 3.803 27.17 10.65l44.5 41.2c7.39 6.847 17.1 10.65 27.17 10.65h299.83" opacity=".7" stroke-width="2"/><path d="m1069.5 172h194.87c11.52 0 22.49 4.969 30.08 13.634l153.6 175.232c7.59 8.665 18.56 13.634 30.08 13.634h441.87" opacity=".7" stroke-width="2"/></g><rect fill="#141414" height="10" rx="4" transform="matrix(-1 0 0 1 1541 0)" width="30"/><rect height="8.5" rx="3.25" stroke="url(#j)" stroke-opacity=".3" stroke-width="1.5" transform="matrix(-1 0 0 1 1539.5 0)" width="28.5" x="-.75" y=".75"/><rect fill="#141414" height="10" rx="4" transform="matrix(-1 0 0 1 1541 270)" width="30"/><rect height="8.5" rx="3.25" stroke="url(#j)" stroke-opacity=".3" stroke-width="1.5" transform="matrix(-1 0 0 1 1539.5 270)" width="28.5" x="-.75" y=".75"/><rect fill="#141414" height="10" rx="4" transform="matrix(-1 0 0 1 1691 170)" width="30"/><rect height="8.5" rx="3.25" stroke="url(#j)" stroke-opacity=".3" stroke-width="1.5" transform="matrix(-1 0 0 1 1689.5 170)" width="28.5" x="-.75" y=".75"/><path d="m850.5 81.5h-273.234c-11.889 0-23.162-5.2888-30.761-14.4319l-40.01-48.1362c-7.599-9.14315-18.872-14.4319-30.761-14.4319h-91.234" opacity=".7" stroke="#2f2f2f" stroke-width="2"/><path d="m850.5 142h-206.864c-10.352 0-20.301 4.014-27.755 11.197l-114.262 110.106c-7.454 7.183-17.403 11.197-27.755 11.197h-89.364" opacity=".7" stroke="#2f2f2f" stroke-width="2"/><path d="m850.5 112h-217.325c-10.077 0-19.783 3.803-27.177 10.65l-44.496 41.2c-7.394 6.847-17.1 10.65-27.177 10.65h-299.825" opacity=".7" stroke="#2f2f2f" stroke-width="2"/><path d="m850.5 172h-194.87c-11.523 0-22.485 4.969-30.08 13.634l-153.6 175.232c-7.595 8.665-18.557 13.634-30.08 13.634h-441.87" opacity=".7" stroke="#2f2f2f" stroke-width="2"/><rect fill="#141414" height="10" rx="4" width="30" x="379"/><rect height="8.5" rx="3.25" stroke="url(#o)" stroke-opacity=".3" stroke-width="1.5" width="28.5" x="379.75" y=".75"/><rect fill="#141414" height="10" rx="4" width="30" x="379" y="270"/><rect height="8.5" rx="3.25" stroke="url(#p)" stroke-opacity=".3" stroke-width="1.5" width="28.5" x="379.75" y="270.75"/><rect fill="#141414" height="10" rx="4" width="30" x="229" y="170"/><rect height="8.5" rx="3.25" stroke="url(#q)" stroke-opacity=".3" stroke-width="1.5" width="28.5" x="229.75" y="170.75"/><g filter="url(#a)" opacity=".9"><path d="m975 273v40" stroke="url(#s)" stroke-linecap="round" stroke-width="7"/></g><path d="m975 273v40" opacity=".9" stroke="url(#s)" stroke-linecap="round" stroke-width="2"/><g filter="url(#b)" opacity=".9"><path d="m1145 172h-40" stroke="url(#t)" stroke-linecap="round" stroke-width="7"/></g><path d="m1145 172h-40" opacity=".9" stroke="url(#t)" stroke-linecap="round" stroke-width="2"/><g filter="url(#c)" opacity=".9"><path d="m1266 81.9998h-40" stroke="url(#u)" stroke-linecap="round" stroke-width="7"/></g><path d="m1266 81.9998h-40" opacity=".9" stroke="url(#u)" stroke-linecap="round" stroke-width="2"/><g filter="url(#d)" opacity=".9"><path d="m676 112h-40" stroke="url(#v)" stroke-linecap="round" stroke-width="7"/></g><path d="m676 112h-40" opacity=".9" stroke="url(#v)" stroke-linecap="round" stroke-width="2"/></svg>