<svg fill="none" height="461" viewBox="0 0 1920 461" width="1920" xmlns="http://www.w3.org/2000/svg" xmlns:xlink="http://www.w3.org/1999/xlink"><filter id="a" color-interpolation-filters="sRGB" filterUnits="userSpaceOnUse" height="208" width="208" x="856" y="70"><feFlood flood-opacity="0" result="BackgroundImageFix"/><feColorMatrix in="SourceAlpha" result="hardAlpha" type="matrix" values="0 0 0 0 0 0 0 0 0 0 0 0 0 0 0 0 0 0 127 0"/><feOffset/><feGaussianBlur stdDeviation="2"/><feComposite in2="hardAlpha" operator="out"/><feColorMatrix type="matrix" values="0 0 0 0 0 0 0 0 0 0 0 0 0 0 0 0 0 0 1 0"/><feBlend in2="BackgroundImageFix" mode="normal" result="effect1_dropShadow_242_2709"/><feBlend in="SourceGraphic" in2="effect1_dropShadow_242_2709" mode="normal" result="shape"/></filter><filter id="b" color-interpolation-filters="sRGB" filterUnits="userSpaceOnUse" height="108" width="108" x="1531" y="0"><feFlood flood-opacity="0" result="BackgroundImageFix"/><feColorMatrix in="SourceAlpha" result="hardAlpha" type="matrix" values="0 0 0 0 0 0 0 0 0 0 0 0 0 0 0 0 0 0 127 0"/><feOffset/><feGaussianBlur stdDeviation="2"/><feComposite in2="hardAlpha" operator="out"/><feColorMatrix type="matrix" values="0 0 0 0 0 0 0 0 0 0 0 0 0 0 0 0 0 0 1 0"/><feBlend in2="BackgroundImageFix" mode="normal" result="effect1_dropShadow_242_2709"/><feBlend in="SourceGraphic" in2="effect1_dropShadow_242_2709" mode="normal" result="shape"/></filter><filter id="c" color-interpolation-filters="sRGB" filterUnits="userSpaceOnUse" height="88" width="88" x="1681" y="180"><feFlood flood-opacity="0" result="BackgroundImageFix"/><feColorMatrix in="SourceAlpha" result="hardAlpha" type="matrix" values="0 0 0 0 0 0 0 0 0 0 0 0 0 0 0 0 0 0 127 0"/><feOffset/><feGaussianBlur stdDeviation="2"/><feComposite in2="hardAlpha" operator="out"/><feColorMatrix type="matrix" values="0 0 0 0 0 0 0 0 0 0 0 0 0 0 0 0 0 0 1 0"/><feBlend in2="BackgroundImageFix" mode="normal" result="effect1_dropShadow_242_2709"/><feBlend in="SourceGraphic" in2="effect1_dropShadow_242_2709" mode="normal" result="shape"/></filter><filter id="d" color-interpolation-filters="sRGB" filterUnits="userSpaceOnUse" height="108" width="108" x="1531" y="270"><feFlood flood-opacity="0" result="BackgroundImageFix"/><feColorMatrix in="SourceAlpha" result="hardAlpha" type="matrix" values="0 0 0 0 0 0 0 0 0 0 0 0 0 0 0 0 0 0 127 0"/><feOffset/><feGaussianBlur stdDeviation="2"/><feComposite in2="hardAlpha" operator="out"/><feColorMatrix type="matrix" values="0 0 0 0 0 0 0 0 0 0 0 0 0 0 0 0 0 0 1 0"/><feBlend in2="BackgroundImageFix" mode="normal" result="effect1_dropShadow_242_2709"/><feBlend in="SourceGraphic" in2="effect1_dropShadow_242_2709" mode="normal" result="shape"/></filter><filter id="e" color-interpolation-filters="sRGB" filterUnits="userSpaceOnUse" height="108" width="108" x="281" y="0"><feFlood flood-opacity="0" result="BackgroundImageFix"/><feColorMatrix in="SourceAlpha" result="hardAlpha" type="matrix" values="0 0 0 0 0 0 0 0 0 0 0 0 0 0 0 0 0 0 127 0"/><feOffset/><feGaussianBlur stdDeviation="2"/><feComposite in2="hardAlpha" operator="out"/><feColorMatrix type="matrix" values="0 0 0 0 0 0 0 0 0 0 0 0 0 0 0 0 0 0 1 0"/><feBlend in2="BackgroundImageFix" mode="normal" result="effect1_dropShadow_242_2709"/><feBlend in="SourceGraphic" in2="effect1_dropShadow_242_2709" mode="normal" result="shape"/></filter><filter id="f" color-interpolation-filters="sRGB" filterUnits="userSpaceOnUse" height="88" width="88" x="151" y="180"><feFlood flood-opacity="0" result="BackgroundImageFix"/><feColorMatrix in="SourceAlpha" result="hardAlpha" type="matrix" values="0 0 0 0 0 0 0 0 0 0 0 0 0 0 0 0 0 0 127 0"/><feOffset/><feGaussianBlur stdDeviation="2"/><feComposite in2="hardAlpha" operator="out"/><feColorMatrix type="matrix" values="0 0 0 0 0 0 0 0 0 0 0 0 0 0 0 0 0 0 1 0"/><feBlend in2="BackgroundImageFix" mode="normal" result="effect1_dropShadow_242_2709"/><feBlend in="SourceGraphic" in2="effect1_dropShadow_242_2709" mode="normal" result="shape"/></filter><filter id="g" color-interpolation-filters="sRGB" filterUnits="userSpaceOnUse" height="108" width="108" x="281" y="270"><feFlood flood-opacity="0" result="BackgroundImageFix"/><feColorMatrix in="SourceAlpha" result="hardAlpha" type="matrix" values="0 0 0 0 0 0 0 0 0 0 0 0 0 0 0 0 0 0 127 0"/><feOffset/><feGaussianBlur stdDeviation="2"/><feComposite in2="hardAlpha" operator="out"/><feColorMatrix type="matrix" values="0 0 0 0 0 0 0 0 0 0 0 0 0 0 0 0 0 0 1 0"/><feBlend in2="BackgroundImageFix" mode="normal" result="effect1_dropShadow_242_2709"/><feBlend in="SourceGraphic" in2="effect1_dropShadow_242_2709" mode="normal" result="shape"/></filter><filter id="h" color-interpolation-filters="sRGB" filterUnits="userSpaceOnUse" height="67" width="27" x="961.5" y="308.5"><feFlood flood-opacity="0" result="BackgroundImageFix"/><feBlend in="SourceGraphic" in2="BackgroundImageFix" mode="normal" result="shape"/><feGaussianBlur result="effect1_foregroundBlur_242_2709" stdDeviation="5"/></filter><filter id="i" color-interpolation-filters="sRGB" filterUnits="userSpaceOnUse" height="27" width="67" x="1091.5" y="207.5"><feFlood flood-opacity="0" result="BackgroundImageFix"/><feBlend in="SourceGraphic" in2="BackgroundImageFix" mode="normal" result="shape"/><feGaussianBlur result="effect1_foregroundBlur_242_2709" stdDeviation="5"/></filter><filter id="j" color-interpolation-filters="sRGB" filterUnits="userSpaceOnUse" height="27" width="67" x="1212.5" y="117.5"><feFlood flood-opacity="0" result="BackgroundImageFix"/><feBlend in="SourceGraphic" in2="BackgroundImageFix" mode="normal" result="shape"/><feGaussianBlur result="effect1_foregroundBlur_242_2709" stdDeviation="5"/></filter><filter id="k" color-interpolation-filters="sRGB" filterUnits="userSpaceOnUse" height="27" width="67" x="622.5" y="147.5"><feFlood flood-opacity="0" result="BackgroundImageFix"/><feBlend in="SourceGraphic" in2="BackgroundImageFix" mode="normal" result="shape"/><feGaussianBlur result="effect1_foregroundBlur_242_2709" stdDeviation="5"/></filter><linearGradient id="l"><stop offset=".483333" stop-color="#3c3c3c"/><stop offset="1" stop-color="#a2a2a2"/></linearGradient><linearGradient id="m" gradientUnits="userSpaceOnUse" x1="0" x2="30" xlink:href="#l" y1="5" y2="5"/><linearGradient id="n" gradientUnits="userSpaceOnUse" x1="379" x2="409" xlink:href="#l" y1="54" y2="54"/><linearGradient id="o" gradientUnits="userSpaceOnUse" x1="379" x2="409" xlink:href="#l" y1="324" y2="324"/><linearGradient id="p" gradientUnits="userSpaceOnUse" x1="229" x2="259" xlink:href="#l" y1="224" y2="224"/><linearGradient id="q" gradientUnits="userSpaceOnUse" x1="1054" x2="1084" xlink:href="#l" y1="131" y2="131"/><linearGradient id="r" gradientUnits="userSpaceOnUse" x1="1054" x2="1084" xlink:href="#l" y1="161" y2="161"/><linearGradient id="s" gradientUnits="userSpaceOnUse" x1="1054" x2="1084" xlink:href="#l" y1="191" y2="191"/><linearGradient id="t" gradientUnits="userSpaceOnUse" x1="1054" x2="1084" xlink:href="#l" y1="221" y2="221"/><linearGradient id="u" gradientUnits="userSpaceOnUse" x1="1010" x2="1040" xlink:href="#l" y1="273" y2="273"/><linearGradient id="v" gradientUnits="userSpaceOnUse" x1="980" x2="1010" xlink:href="#l" y1="273" y2="273"/><linearGradient id="w" gradientUnits="userSpaceOnUse" x1="950" x2="980" xlink:href="#l" y1="273" y2="273"/><linearGradient id="x" gradientUnits="userSpaceOnUse" x1="920" x2="950" xlink:href="#l" y1="273" y2="273"/><linearGradient id="y" gradientUnits="userSpaceOnUse" x1="960" x2="960" y1="131" y2="218"><stop offset="0" stop-color="#fff"/><stop offset="1" stop-color="#999" stop-opacity=".1"/></linearGradient><linearGradient id="z"><stop offset="0" stop-color="#ab33f5"/><stop offset="1" stop-color="#ff6914"/></linearGradient><linearGradient id="A" gradientUnits="userSpaceOnUse" x1="1566" x2="1605" xlink:href="#z" y1="54.5" y2="54.5"/><linearGradient id="B"><stop offset="0" stop-color="#36e0f7"/><stop offset="1" stop-color="#1dffd2"/></linearGradient><linearGradient id="C" gradientUnits="userSpaceOnUse" x1="335" x2="335" xlink:href="#B" y1="46.3828" y2="55.0742"/><linearGradient id="D" gradientUnits="userSpaceOnUse" x1="335" x2="335" xlink:href="#B" y1="33.8828" y2="62.3984"/><linearGradient id="E" gradientUnits="userSpaceOnUse" x1="341.006" x2="341.006" xlink:href="#B" y1="68.2578" y2="74.1172"/><linearGradient id="F" gradientUnits="userSpaceOnUse" x1="354.132" x2="354.132" xlink:href="#B" y1="60.9512" y2="72.75"/><linearGradient id="G" gradientUnits="userSpaceOnUse" x1="356.275" x2="356.275" xlink:href="#B" y1="34.8083" y2="59.4903"/><linearGradient id="H" gradientUnits="userSpaceOnUse" x1="313.725" x2="313.725" xlink:href="#B" y1="34.8083" y2="59.4903"/><linearGradient id="I"><stop offset=".18" stop-color="#6d30fb"/><stop offset="1" stop-color="#c13dff"/></linearGradient><linearGradient id="J" gradientUnits="userSpaceOnUse" x1="178.779" x2="188.396" xlink:href="#I" y1="230.11" y2="234.421"/><linearGradient id="K" gradientUnits="userSpaceOnUse" x1="181.41" x2="199.47" xlink:href="#I" y1="206.406" y2="213.95"/><linearGradient id="L" gradientUnits="userSpaceOnUse" x1="182.178" x2="200.017" xlink:href="#I" y1="225.636" y2="242.874"/><linearGradient id="M" gradientUnits="userSpaceOnUse" x1="195.598" x2="211.592" xlink:href="#I" y1="208.124" y2="212.741"/><linearGradient id="N"><stop offset="0" stop-color="#34f300"/><stop offset="1" stop-color="#cf0"/></linearGradient><linearGradient id="O" gradientUnits="userSpaceOnUse" x1="324.037" x2="324.037" xlink:href="#N" y1="304" y2="322.073"/><linearGradient id="P" gradientUnits="userSpaceOnUse" x1="345.964" x2="345.964" xlink:href="#N" y1="304" y2="322.073"/><linearGradient id="Q" gradientUnits="userSpaceOnUse" x1="324.037" x2="324.037" xlink:href="#N" y1="325.927" y2="344"/><linearGradient id="R" gradientUnits="userSpaceOnUse" x1="345.964" x2="345.964" xlink:href="#N" y1="325.927" y2="344"/><linearGradient id="S" gradientUnits="userSpaceOnUse" x1="975" x2="976" xlink:href="#z" y1="342" y2="342"/><linearGradient id="T" gradientUnits="userSpaceOnUse" x1="1125" x2="1125" xlink:href="#z" y1="221" y2="222"/><linearGradient id="U" gradientUnits="userSpaceOnUse" x1="1246" x2="1246" xlink:href="#z" y1="131" y2="132"/><linearGradient id="V" gradientUnits="userSpaceOnUse" x1="656" x2="656" xlink:href="#z" y1="161" y2="162"/><clipPath id="W"><path d="m1560 299h50v50h-50z"/></clipPath><clipPath id="X"><path d="m315 304h40v40h-40z"/></clipPath><g stroke="#2f2f2f"><path d="m915 282v179" opacity=".7" stroke-width="2"/><path d="m945 282v179" opacity=".7" stroke-width="2"/><path d="m975 282v179" opacity=".7" stroke-width="2"/><path d="m1005 282v179" opacity=".7" stroke-width="2"/><path d="m1069.5 130.5h273.23c11.89 0 23.17-5.289 30.77-14.432l40-48.1361c7.6-9.1431 18.88-14.4319 30.77-14.4319h91.23" opacity=".7" stroke-width="2"/><path d="m1069.5 191h206.86c10.36 0 20.3 4.014 27.76 11.197l114.26 110.106c7.46 7.183 17.4 11.197 27.76 11.197h89.36" opacity=".7" stroke-width="2"/><path d="m1069.5 161h217.33c10.07 0 19.78 3.803 27.17 10.65l44.5 41.2c7.39 6.847 17.1 10.65 27.17 10.65h299.83" opacity=".7" stroke-width="2"/><path d="m1069.5 221h194.87c11.52 0 22.49 4.969 30.08 13.634l153.6 175.232c7.59 8.665 18.56 13.634 30.08 13.634h441.87" opacity=".7" stroke-width="2"/></g><rect fill="#141414" height="10" rx="4" transform="matrix(-1 0 0 1 1541 49)" width="30"/><rect height="8.5" rx="3.25" stroke="url(#m)" stroke-opacity=".3" stroke-width="1.5" transform="matrix(-1 0 0 1 1539.5 49)" width="28.5" x="-.75" y=".75"/><rect fill="#141414" height="10" rx="4" transform="matrix(-1 0 0 1 1541 319)" width="30"/><rect height="8.5" rx="3.25" stroke="url(#m)" stroke-opacity=".3" stroke-width="1.5" transform="matrix(-1 0 0 1 1539.5 319)" width="28.5" x="-.75" y=".75"/><rect fill="#141414" height="10" rx="4" transform="matrix(-1 0 0 1 1691 219)" width="30"/><rect height="8.5" rx="3.25" stroke="url(#m)" stroke-opacity=".3" stroke-width="1.5" transform="matrix(-1 0 0 1 1689.5 219)" width="28.5" x="-.75" y=".75"/><path d="m850.5 130.5h-273.234c-11.889 0-23.162-5.289-30.761-14.432l-40.01-48.1361c-7.599-9.1431-18.872-14.4319-30.761-14.4319h-91.234" opacity=".7" stroke="#2f2f2f" stroke-width="2"/><path d="m850.5 191h-206.864c-10.352 0-20.301 4.014-27.755 11.197l-114.262 110.106c-7.454 7.183-17.403 11.197-27.755 11.197h-89.364" opacity=".7" stroke="#2f2f2f" stroke-width="2"/><path d="m850.5 161h-217.325c-10.077 0-19.783 3.803-27.177 10.65l-44.496 41.2c-7.394 6.847-17.1 10.65-27.177 10.65h-299.825" opacity=".7" stroke="#2f2f2f" stroke-width="2"/><path d="m850.5 221h-194.87c-11.523 0-22.485 4.969-30.08 13.634l-153.6 175.232c-7.595 8.665-18.557 13.634-30.08 13.634h-441.87" opacity=".7" stroke="#2f2f2f" stroke-width="2"/><rect fill="#141414" height="10" rx="4" width="30" x="379" y="49"/><rect height="8.5" rx="3.25" stroke="url(#n)" stroke-opacity=".3" stroke-width="1.5" width="28.5" x="379.75" y="49.75"/><rect fill="#141414" height="10" rx="4" width="30" x="379" y="319"/><rect height="8.5" rx="3.25" stroke="url(#o)" stroke-opacity=".3" stroke-width="1.5" width="28.5" x="379.75" y="319.75"/><rect fill="#141414" height="10" rx="4" width="30" x="229" y="219"/><rect height="8.5" rx="3.25" stroke="url(#p)" stroke-opacity=".3" stroke-width="1.5" width="28.5" x="229.75" y="219.75"/><rect fill="#141414" height="10" rx="4" width="30" x="1054" y="126"/><rect height="8.5" rx="3.25" stroke="url(#q)" stroke-opacity=".3" stroke-width="1.5" width="28.5" x="1054.75" y="126.75"/><rect fill="#141414" height="10" rx="4" width="30" x="1054" y="156"/><rect height="8.5" rx="3.25" stroke="url(#r)" stroke-opacity=".3" stroke-width="1.5" width="28.5" x="1054.75" y="156.75"/><rect fill="#141414" height="10" rx="4" width="30" x="1054" y="186"/><rect height="8.5" rx="3.25" stroke="url(#s)" stroke-opacity=".3" stroke-width="1.5" width="28.5" x="1054.75" y="186.75"/><rect fill="#141414" height="10" rx="4" width="30" x="1054" y="216"/><rect height="8.5" rx="3.25" stroke="url(#t)" stroke-opacity=".3" stroke-width="1.5" width="28.5" x="1054.75" y="216.75"/><rect fill="#141414" height="10" rx="4" transform="matrix(0 1 -1 0 1278 -742)" width="30" x="1010" y="268"/><rect height="8.5" rx="3.25" stroke="url(#u)" stroke-opacity=".3" stroke-width="1.5" transform="matrix(0 1 -1 0 1278 -740.5)" width="28.5" x="1009.25" y="268.75"/><rect fill="#141414" height="10" rx="4" transform="matrix(0 1 -1 0 1248 -712)" width="30" x="980" y="268"/><rect height="8.5" rx="3.25" stroke="url(#v)" stroke-opacity=".3" stroke-width="1.5" transform="matrix(0 1 -1 0 1248 -710.5)" width="28.5" x="979.25" y="268.75"/><rect fill="#141414" height="10" rx="4" transform="matrix(0 1 -1 0 1218 -682)" width="30" x="950" y="268"/><rect height="8.5" rx="3.25" stroke="url(#w)" stroke-opacity=".3" stroke-width="1.5" transform="matrix(0 1 -1 0 1218 -680.5)" width="28.5" x="949.25" y="268.75"/><rect fill="#141414" height="10" rx="4" transform="matrix(0 1 -1 0 1188 -652)" width="30" x="920" y="268"/><rect height="8.5" rx="3.25" stroke="url(#x)" stroke-opacity=".3" stroke-width="1.5" transform="matrix(0 1 -1 0 1188 -650.5)" width="28.5" x="919.25" y="268.75"/><rect fill="#141414" height="10" rx="4" transform="matrix(-1 0 0 1 866 126)" width="30"/><rect height="8.5" rx="3.25" stroke="url(#m)" stroke-opacity=".3" stroke-width="1.5" transform="matrix(-1 0 0 1 864.5 126)" width="28.5" x="-.75" y=".75"/><rect fill="#141414" height="10" rx="4" transform="matrix(-1 0 0 1 866 156)" width="30"/><rect height="8.5" rx="3.25" stroke="url(#m)" stroke-opacity=".3" stroke-width="1.5" transform="matrix(-1 0 0 1 864.5 156)" width="28.5" x="-.75" y=".75"/><rect fill="#141414" height="10" rx="4" transform="matrix(-1 0 0 1 866 186)" width="30"/><rect height="8.5" rx="3.25" stroke="url(#m)" stroke-opacity=".3" stroke-width="1.5" transform="matrix(-1 0 0 1 864.5 186)" width="28.5" x="-.75" y=".75"/><rect fill="#141414" height="10" rx="4" transform="matrix(-1 0 0 1 866 216)" width="30"/><rect height="8.5" rx="3.25" stroke="url(#m)" stroke-opacity=".3" stroke-width="1.5" transform="matrix(-1 0 0 1 864.5 216)" width="28.5" x="-.75" y=".75"/><g filter="url(#a)"><rect fill="#141414" height="200" rx="50" width="200" x="860" y="74"/><rect height="198" rx="49" stroke="#3c3c3c" stroke-opacity=".3" stroke-width="2" width="198" x="861" y="75"/></g><path d="m906.589 218 22.816-86.8h28.52l22.816 86.8h-16.864l-4.712-19.096h-31l-4.712 19.096zm25.42-34.224h23.312l-10.54-42.284h-2.232zm59.122 34.224v-86.8h16.369v86.8z" fill="url(#y)"/><g filter="url(#b)"><rect fill="#141414" height="100" rx="30" width="100" x="1535" y="4"/><rect height="98" rx="29" stroke="#3c3c3c" stroke-opacity=".3" stroke-width="2" width="98" x="1536" y="5"/></g><path d="m1579.7 70.616c-2.32 0-4.37-.4107-6.16-1.232s-3.2-2.024-4.23-3.608c-.99-1.6133-1.49-3.564-1.49-5.852v-1.1h4.71v1.1c0 2.1707.64 3.7987 1.93 4.884 1.32 1.0853 3.07 1.628 5.24 1.628 2.2 0 3.86-.4547 4.97-1.364 1.11-.9387 1.67-2.1413 1.67-3.608 0-.968-.26-1.76-.79-2.376s-1.28-1.1-2.24-1.452c-.97-.3813-2.13-.7333-3.48-1.056l-1.63-.396c-1.96-.4693-3.68-1.0413-5.15-1.716-1.43-.704-2.55-1.628-3.34-2.772s-1.19-2.6107-1.19-4.4c0-1.8187.44-3.3733 1.32-4.664.91-1.2907 2.16-2.288 3.74-2.992 1.59-.704 3.45-1.056 5.59-1.056s4.05.3667 5.72 1.1c1.7.7333 3.04 1.8187 4 3.256.97 1.4373 1.46 3.2413 1.46 5.412v1.584h-4.71v-1.584c0-1.32-.28-2.3907-.84-3.212-.53-.8213-1.27-1.4227-2.24-1.804s-2.1-.572-3.39-.572c-1.88 0-3.34.396-4.4 1.188-1.03.7627-1.54 1.8333-1.54 3.212 0 .9387.22 1.716.66 2.332.47.5867 1.14 1.0707 2.02 1.452s1.98.7187 3.3 1.012l1.63.396c2 .44 3.76 1.012 5.28 1.716 1.53.6747 2.73 1.5987 3.61 2.772s1.32 2.684 1.32 4.532-.47 3.4613-1.41 4.84c-.91 1.3787-2.21 2.464-3.91 3.256-1.71.7627-3.71 1.144-6.03 1.144zm19.2 0c-1.03 0-1.89-.3373-2.6-1.012-.67-.6747-1.01-1.54-1.01-2.596s.34-1.9067 1.01-2.552c.71-.6747 1.57-1.012 2.6-1.012 1.02 0 1.88.3373 2.55 1.012.7.6747 1.06 1.5253 1.06 2.552 0 1.056-.36 1.9213-1.06 2.596-.67.6747-1.53 1.012-2.55 1.012z" fill="url(#A)"/><g filter="url(#c)"><rect fill="#141414" height="80" rx="20" width="80" x="1685" y="184"/><rect height="78" rx="19" stroke="#3c3c3c" stroke-opacity=".3" stroke-width="2" width="78" x="1686" y="185"/></g><path d="m1733.21 231.533c-1.34 0-2.66 0-3.99 0-.45.034-.91-.027-1.34-.179s-.83-.391-1.16-.703c-.34-.311-.6-.689-.79-1.109-.18-.42-.27-.874-.27-1.332s.09-.911.27-1.331c.19-.42.45-.798.79-1.11.33-.312.73-.551 1.16-.703.43-.151.89-.212 1.34-.178h8.1c.78-.009 1.53.259 2.13.756s1.01 1.191 1.15 1.96c.14.732.03 1.492-.31 2.152-.35.66-.92 1.179-1.6 1.469-.46.195-.96.294-1.46.29-1.34.036-2.67.018-4.02.018z" fill="#e5b445"/><path d="m1717.48 232.366c0-1.376 0-2.752 0-4.128 0-.872.33-1.71.93-2.336.61-.627 1.43-.99 2.3-1.014.86-.03 1.69.284 2.32.871s1 1.4 1.03 2.261c.07 2.897.07 5.795 0 8.692-.01.433-.11.858-.29 1.251-.18.394-.44.746-.76 1.037s-.7.514-1.1.655c-.41.142-.84.2-1.27.171-.86-.028-1.68-.396-2.27-1.023-.59-.628-.91-1.464-.89-2.327-.02-1.358 0-2.734 0-4.11z" fill="#d03d5b"/><path d="m1732.38 215.762v4.056c.03.454-.03.911-.18 1.341s-.39.824-.7 1.158-.68.601-1.1.783c-.41.182-.86.276-1.32.276-.45 0-.9-.094-1.31-.276-.42-.182-.79-.449-1.1-.783s-.55-.728-.7-1.158-.21-.887-.18-1.341c0-2.807 0-5.595 0-8.384.01-.432.1-.859.28-1.256.17-.396.42-.754.73-1.052.31-.299.68-.531 1.09-.685.4-.154.83-.226 1.26-.212.43.007.85.1 1.25.272s.75.421 1.05.732.54.678.7 1.081c.16.402.23.832.23 1.265.01 1.394 0 2.789 0 4.183z" fill="#59b280"/><path d="m1716.62 223.186h-4.04c-.44 0-.86-.086-1.26-.251-.4-.166-.76-.409-1.06-.715-.31-.306-.55-.669-.72-1.069-.16-.4-.25-.828-.25-1.261s.09-.861.25-1.261c.17-.4.41-.763.72-1.069.3-.306.66-.549 1.06-.714.4-.166.82-.251 1.26-.251h8.2c.43 0 .86.085 1.26.251.4.165.76.408 1.06.714.31.306.55.669.71 1.069.17.4.25.828.25 1.261s-.08.861-.25 1.261c-.16.4-.4.763-.71 1.069-.3.306-.66.549-1.06.715-.4.165-.83.251-1.26.251z" fill="#5fc1ed"/><path d="m1724.08 212.901v1.503c0 .299-.1.434-.36.434-1.33 0-1.88 0-3.44 0-.84-.104-1.59-.533-2.11-1.193-.52-.661-.76-1.501-.67-2.337.04-.82.38-1.596.96-2.176.57-.58 1.35-.923 2.16-.962.82-.038 1.62.231 2.25.754s1.04 1.263 1.16 2.076c.05.63.05.81.05 1.385v.357z" fill="#5fc1ed"/><path d="m1715.73 224.906c.1 1.356.1 2.718 0 4.074-.15.793-.6 1.497-1.26 1.968-.65.471-1.46.674-2.25.567-.83-.068-1.6-.441-2.16-1.047s-.88-1.401-.89-2.231c-.02-.825.28-1.627.83-2.242.54-.615 1.31-.998 2.12-1.071 1.23-.109 2.46-.018 3.61-.018z" fill="#d03d5b"/><path d="m1734.07 223.168c0-1.268 0-2.481 0-3.622.09-.847.5-1.627 1.15-2.174.65-.548 1.49-.82 2.33-.759.87 0 1.71.347 2.32.965.62.618.96 1.456.96 2.33s-.34 1.713-.96 2.331c-.61.618-1.45.965-2.32.965-1.12 0-2.27-.036-3.48-.036z" fill="#59b280"/><path d="m1725.79 233.289c1.34-.091 2.67-.091 4.01 0 .81.151 1.53.613 2.01 1.289s.67 1.513.55 2.333c-.1.817-.5 1.569-1.12 2.108-.62.538-1.42.826-2.24.807-.81-.003-1.59-.317-2.19-.879-.59-.561-.95-1.328-1-2.145-.07-1.159-.02-2.336-.02-3.513z" fill="#e5b445"/><g filter="url(#d)"><rect fill="#141414" height="100" rx="30" width="100" x="1535" y="274"/><rect height="98" rx="29" stroke="#3c3c3c" stroke-opacity=".3" stroke-width="2" width="98" x="1536" y="275"/></g><g clip-path="url(#W)"><path d="m1573.02 337.607c-3.34 0-6.3-2.136-7.38-5.315l-.07-.24c-.26-.842-.36-1.55-.36-2.258v-14.205l-5.06 16.871c-.65 2.482.83 5.055 3.32 5.74l32.22 8.628c.4.104.8.154 1.2.154 2.07 0 3.97-1.377 4.5-3.407l1.87-5.968z" fill="#eceff1"/><path d="m1610 305.835v23.959c0 2.583-2.1 4.688-4.69 4.688h-32.29c-.21 0-.42-.021-.6-.042-2.19-.271-3.9-2.063-4.07-4.271-.02-.125-.02-.25-.02-.375v-23.959c0-2.584 2.11-4.688 4.69-4.688h32.29c2.59 0 4.69 2.104 4.69 4.688z" fill="#eceff1"/><path d="m1582.92 311.564c0 2.301-1.87 4.167-4.17 4.167s-4.17-1.866-4.17-4.167 1.87-4.167 4.17-4.167 4.17 1.866 4.17 4.167z" fill="#ffc107"/><path d="m1610 323.939v5.855c0 2.583-2.1 4.688-4.69 4.688h-32.29c-.21 0-.42-.021-.6-.042l21.45-21.459c1.42-1.417 3.75-1.417 5.17 0z" fill="#388e3c"/><path d="m1597.62 334.482h-24.6c-.21 0-.42-.021-.6-.042-2.19-.271-3.9-2.063-4.07-4.271l9.9-9.896c1.42-1.417 3.75-1.417 5.17 0z" fill="#4caf50"/></g><g filter="url(#e)"><rect fill="#141414" height="100" rx="30" width="100" x="285" y="4"/><rect height="98" rx="29" stroke="#3c3c3c" stroke-opacity=".3" stroke-width="2" width="98" x="286" y="5"/></g><path d="m341.006 46.3828h-12.012c-2.396 0-4.346 1.9494-4.346 4.3457s1.95 4.3457 4.346 4.3457h12.012c2.396 0 4.346-1.9494 4.346-4.3457s-1.95-4.3457-4.346-4.3457zm-10.221 4.8827c0 .809-.656 1.4649-1.465 1.4649s-1.465-.6559-1.465-1.4649v-1.0742c0-.809.656-1.4648 1.465-1.4648s1.465.6558 1.465 1.4648zm11.36 0c0 .809-.656 1.4649-1.465 1.4649s-1.465-.6559-1.465-1.4649v-1.0742c0-.809.656-1.4648 1.465-1.4648s1.465.6558 1.465 1.4648z" fill="url(#C)"/><path d="m352.676 54.195v-2.8314c0-9.7925-7.935-17.4808-17.676-17.4808-9.752 0-17.676 7.6895-17.676 17.4808v2.8314c0 4.5183 3.686 8.2034 8.204 8.2034h18.944c4.518 0 8.204-3.6856 8.204-8.2034zm-23.682 3.8088c-4.011 0-7.275-3.2637-7.275-7.2754s3.263-7.2754 7.275-7.2754h12.012c4.011 0 7.275 3.2637 7.275 7.2754s-3.264 7.2754-7.275 7.2754z" fill="url(#D)"/><path d="m342.617 68.2578h-3.222c-1.612 0-2.93 1.3184-2.93 2.9297s1.318 2.9297 2.93 2.9297h3.222c1.612 0 2.93-1.3184 2.93-2.9297s-1.318-2.9297-2.93-2.9297z" fill="url(#E)"/><path d="m357.07 63.8142c0 3.2556-2.818 6.0061-6.153 6.0061h-2.603c.105.439.163.8964.163 1.3672 0 .5411-.076 1.0646-.214 1.5625h2.654c4.923 0 9.083-4.0921 9.083-8.9358v-2.863c-.852.6411-1.848 1.1009-2.93 1.3215z" fill="url(#F)"/><path d="m355.606 44.7442h-.127v-8.4711c0-.809-.656-1.4648-1.465-1.4648s-1.465.6558-1.465 1.4648v4.3309c1.991 3.1887 3.057 6.8847 3.057 10.7596v2.8314c0 1.9155-.487 3.7196-1.342 5.2953h1.342c2.423 0 4.394-1.9714 4.394-4.3945v-5.957c0-2.4232-1.971-4.3946-4.394-4.3946z" fill="url(#G)"/><path d="m314.395 51.3636c0-3.8767 1.065-7.5739 3.056-10.7629v-4.3276c0-.809-.656-1.4648-1.465-1.4648s-1.465.6558-1.465 1.4648v8.4711h-.126c-2.424 0-4.395 1.9714-4.395 4.3946v5.957c0 2.4231 1.971 4.3945 4.395 4.3945h1.342c-.856-1.5757-1.342-3.3797-1.342-5.2953z" fill="url(#H)"/><g filter="url(#f)"><rect fill="#141414" height="80" rx="20" width="80" x="155" y="184"/><rect height="78" rx="19" stroke="#3c3c3c" stroke-opacity=".3" stroke-width="2" width="78" x="156" y="185"/></g><path d="m181.838 241.509c1.915.421 3.882-.716 4.528-2.553l2.172-6.504-3.292-1.854c-.369-.207-.785-.353-1.216-.428-1.179-.206-2.47.11-3.209 1.092-.048.065-.116.103-.187.128l-1.637 4.955c-.768 2.184.565 4.664 2.841 5.164z" fill="url(#J)"/><path d="m185.41 225.668c1.764-.748 3.737-.966 5.631-.713l4.925-14.743c.183-.541.405-1.001.679-1.407.428-.623.879-1.025 1.468-1.307.316-.154.755-.189 1.221-.153-2.189-.922-4.602-1.278-6.895-.55-1.988.63-3.699 1.992-4.744 3.798-.272.469-.497.963-.676 1.475l-5.609 16.973c.211-.281.425-.551.645-.81.929-1.092 1.967-1.974 3.357-2.563z" fill="url(#K)"/><path d="m210.829 235.56c-.037.04-.07.084-.113.113-.557.37-1.402-.36-1.897-.646-3.751-2.168-7.491-4.354-11.265-6.48-2.045-1.152-3.957-2.36-6.297-2.786-3.405-.527-6.747.633-8.54 2.978l-.539.717c.144-.036.288-.071.439-.093.236-.036.474-.054.712-.054.211 0 .421.016.63.044.62.072 1.224.264 1.768.576l19.553 11.015c1.808 1.001 4.107.818 5.338-.969l.116-.179c.626-1.006.766-2.249.375-3.397l-.279-.839z" fill="url(#L)"/><path d="m198.361 208.398c-1.27.615-1.515 1.936-1.92 3.148-.281.842-.561 1.682-.843 2.524l5.055 15.285 9.553 5.528c.034-.177.061-.536-.019-1.264-.005-.021-.008-.042-.01-.064-.547-1.66-7.093-22.06-7.733-23.396-.309-.645-.756-1.243-1.364-1.619-.737-.456-1.689-.541-2.498-.235-.075.028-.148.06-.221.094z" fill="url(#M)"/><g filter="url(#g)"><rect fill="#141414" height="100" rx="30" width="100" x="285" y="274"/><rect height="98" rx="29" stroke="#3c3c3c" stroke-opacity=".3" stroke-width="2" width="98" x="286" y="275"/></g><g clip-path="url(#X)"><path d="m329.658 304h-11.243c-1.883 0-3.415 1.532-3.415 3.415v11.243c0 1.883 1.532 3.415 3.415 3.415h11.243c1.883 0 3.415-1.532 3.415-3.415v-11.243c0-1.883-1.532-3.415-3.415-3.415z" fill="url(#O)"/><path d="m351.585 304h-11.243c-1.883 0-3.415 1.532-3.415 3.415v11.243c0 1.883 1.532 3.415 3.415 3.415h11.243c1.883 0 3.415-1.532 3.415-3.415v-11.243c0-1.883-1.532-3.415-3.415-3.415z" fill="url(#P)"/><path d="m329.658 325.927h-11.243c-1.883 0-3.415 1.532-3.415 3.415v11.243c0 1.883 1.532 3.415 3.415 3.415h11.243c1.883 0 3.415-1.532 3.415-3.415v-11.243c0-1.883-1.532-3.415-3.415-3.415z" fill="url(#Q)"/><path d="m351.585 325.927h-11.243c-1.883 0-3.415 1.532-3.415 3.415v11.243c0 1.883 1.532 3.415 3.415 3.415h11.243c1.883 0 3.415-1.532 3.415-3.415v-11.243c0-1.883-1.532-3.415-3.415-3.415z" fill="url(#R)"/></g><g filter="url(#h)" opacity=".9"><path d="m975 322v40" stroke="url(#S)" stroke-linecap="round" stroke-width="7"/></g><path d="m975 322v40" opacity=".9" stroke="url(#S)" stroke-linecap="round" stroke-width="2"/><g filter="url(#i)" opacity=".9"><path d="m1145 221h-40" stroke="url(#T)" stroke-linecap="round" stroke-width="7"/></g><path d="m1145 221h-40" opacity=".9" stroke="url(#T)" stroke-linecap="round" stroke-width="2"/><g filter="url(#j)" opacity=".9"><path d="m1266 131h-40" stroke="url(#U)" stroke-linecap="round" stroke-width="7"/></g><path d="m1266 131h-40" opacity=".9" stroke="url(#U)" stroke-linecap="round" stroke-width="2"/><g filter="url(#k)" opacity=".9"><path d="m676 161h-40" stroke="url(#V)" stroke-linecap="round" stroke-width="7"/></g><path d="m676 161h-40" opacity=".9" stroke="url(#V)" stroke-linecap="round" stroke-width="2"/></svg>