<svg fill="none" height="219" viewBox="0 0 170 219" width="170" xmlns="http://www.w3.org/2000/svg" xmlns:xlink="http://www.w3.org/1999/xlink"><linearGradient id="a" gradientUnits="userSpaceOnUse" x1="2" x2="168" y1="106" y2="106"><stop offset="0" stop-color="#ab33f5"/><stop offset="1" stop-color="#ff6914"/></linearGradient><path d="m138.207 56.5476-.411-1.9574-.013.0028-.014.0029zm-25.84 152.7134c-.408 1.026.093 2.189 1.119 2.597l16.724 6.655c1.027.409 2.19-.092 2.598-1.118.408-1.027-.092-2.19-1.119-2.598l-14.866-5.916 5.916-14.866c.408-1.026-.093-2.189-1.119-2.598-1.026-.408-2.19.093-2.598 1.119zm-105.2995-206.30584c.52752-.97046.16845-2.184817-.80202-2.712337-.97046-.52752-2.18481-.1684445-2.71233.802017zm149.3345 88.69844-1.03-1.7143zm11.47-21.7037 1.989-.2068zm-143.0469-13.8341c20.1249 13.3741 45.1184 27.446 69.0504 35.8287 23.7865 8.3315 47.1685 11.2715 63.5565 1.4235l-2.06-3.4287c-14.727 8.8496-36.53 6.5119-60.1742-1.7699-23.4988-8.231-48.1824-22.1096-68.1587-35.3851zm145.0359 13.6273c-.538-5.1792-2.751-10.3429-8.03-13.4902-5.197-3.0987-12.956-3.9889-24.035-1.6627l.822 3.9147c10.624-2.2308 17.203-1.1786 21.165 1.1837 3.88 2.3136 5.648 6.1295 6.099 10.4681zm-32.092-15.1472c-12.298 2.7543-28.603 10.1496-38.1991 23.6587-4.8259 6.7941-7.9318 15.1097-7.9613 25.0584-.0295 9.928 3.004 21.362 10.2534 34.428l3.498-1.94c-7.0037-12.623-9.7784-23.388-9.7515-32.476.027-9.0683 2.8423-16.5876 7.2225-22.754 8.816-12.412 24.061-19.44 35.813-22.0718zm-27.521 94.8861c7.246 9.061 14.66 21.167 16.863 32.336 1.096 5.554.874 10.725-1.139 15.159-1.997 4.397-5.864 8.312-12.538 11.186l1.582 3.674c7.414-3.193 12.118-7.744 14.598-13.206 2.463-5.425 2.621-11.504 1.421-17.587-2.387-12.104-10.269-24.814-17.663-34.06zm-106.15112-134.6082c.27987-4.4854 1.1861-8.6357 2.97062-11.91864l-3.51435-1.91032c-2.16499 3.98287-3.148517 8.77194-3.448503 13.57986zm97.76512 122.8672c2.377 4.284 5.479 8.105 8.386 11.741l3.124-2.498c-2.96-3.702-5.83-7.251-8.012-11.183zm55.57-44.373c8.055-4.8398 13.422-14.0713 12.429-23.6249l-3.979.4136c.812 7.807-3.603 15.6325-10.51 19.7826zm-130.3929-40.5837c-13.463-8.9469-23.90482-22.4827-22.94222-37.9105l-3.992233-.2491c-1.091172 17.4883 10.715653 32.184 24.720453 41.4911z" fill="url(#a)"/></svg>