<svg fill="none" height="40" viewBox="0 0 40 40" width="40" xmlns="http://www.w3.org/2000/svg" xmlns:xlink="http://www.w3.org/1999/xlink"><linearGradient id="a"><stop offset="0" stop-color="#34f300"/><stop offset="1" stop-color="#cf0"/></linearGradient><linearGradient id="b" gradientUnits="userSpaceOnUse" x1="9.03652" x2="9.03652" xlink:href="#a" y1="0" y2="18.073"/><linearGradient id="c" gradientUnits="userSpaceOnUse" x1="30.9635" x2="30.9635" xlink:href="#a" y1="0" y2="18.073"/><linearGradient id="d" gradientUnits="userSpaceOnUse" x1="9.03652" x2="9.03652" xlink:href="#a" y1="21.9269" y2="40"/><linearGradient id="e" gradientUnits="userSpaceOnUse" x1="30.9635" x2="30.9635" xlink:href="#a" y1="21.9269" y2="40"/><clipPath id="f"><path d="m0 0h40v40h-40z"/></clipPath><g clip-path="url(#f)"><path d="m14.6584 0h-11.24379c-1.88281 0-3.41461 1.5318-3.41461 3.41461v11.24379c0 1.8829 1.5318 3.4146 3.41461 3.4146h11.24379c1.8829 0 3.4146-1.5317 3.4146-3.4146v-11.24379c0-1.88281-1.5317-3.41461-3.4146-3.41461z" fill="url(#b)"/><path d="m36.5854 0h-11.2438c-1.8828 0-3.4146 1.5318-3.4146 3.41461v11.24379c0 1.8829 1.5318 3.4146 3.4146 3.4146h11.2438c1.8829 0 3.4146-1.5317 3.4146-3.4146v-11.24379c0-1.88281-1.5317-3.41461-3.4146-3.41461z" fill="url(#c)"/><path d="m14.6584 21.9269h-11.24379c-1.88281 0-3.41461 1.5318-3.41461 3.4147v11.2438c0 1.8828 1.5318 3.4146 3.41461 3.4146h11.24379c1.8829 0 3.4146-1.5318 3.4146-3.4146v-11.2438c0-1.8829-1.5317-3.4147-3.4146-3.4147z" fill="url(#d)"/><path d="m36.5854 21.9269h-11.2438c-1.8828 0-3.4146 1.5318-3.4146 3.4147v11.2438c0 1.8828 1.5318 3.4146 3.4146 3.4146h11.2438c1.8829 0 3.4146-1.5318 3.4146-3.4146v-11.2438c0-1.8829-1.5317-3.4147-3.4146-3.4147z" fill="url(#e)"/></g></svg>