<svg fill="none" height="40" viewBox="0 0 40 40" width="40" xmlns="http://www.w3.org/2000/svg"><path d="m28.2055 27.533c-1.3345 0-2.6508 0-3.9853 0-.455.0336-.9122-.0272-1.3428-.1789-.4307-.1516-.8254-.3908-1.1599-.7026-.3343-.3119-.601-.6897-.7833-1.1097s-.2765-.8733-.2765-1.3315.0942-.9115.2765-1.3315.449-.7977.7833-1.1095c.3345-.3118.7292-.5512 1.1599-.7028.4306-.1517.8878-.2125 1.3428-.1787h8.0968c.7782-.0087 1.5344.2593 2.1349.7563.6007.4969 1.0068 1.191 1.1471 1.9597.1457.7323.035 1.4927-.3133 2.1525-.3482.6598-.9128 1.1787-1.5982 1.4688-.4623.195-.9591.2937-1.4606.2897-1.3345.0362-2.6689.0182-4.0214.0182z" fill="#e5b445"/><path d="m12.4804 28.3658c0-1.376 0-2.7521 0-4.1283-.005-.8712.3301-1.7098.9335-2.336.6033-.6262 1.427-.99 2.2944-1.0137.858-.0295 1.6926.2837 2.3213.8709.6287.587 1 1.4001 1.0328 2.2616.0722 2.897.0722 5.7942 0 8.6912-.0135.433-.1138.8588-.295 1.2518-.181.3932-.4391.7457-.759 1.0364-.3198.2908-.6948.5138-1.1023.6556-.4076.142-.8395.2-1.2699.1705-.8594-.0283-1.6729-.396-2.2638-1.0233-.5909-.6272-.9114-1.4632-.892-2.3263-.018-1.358 0-2.7342 0-4.1104z" fill="#d03d5b"/><path d="m27.3759 11.7619v4.0559c.0335.4545-.0266.911-.1768 1.3412s-.3872.8245-.696 1.1583c-.3088.334-.683.6005-1.0992.7827-.416.1822-.865.2762-1.319.2762-.4538 0-.9028-.094-1.319-.2762-.416-.1822-.7901-.4487-1.0991-.7827-.3089-.3338-.5459-.7281-.696-1.1583-.1502-.4302-.2104-.8867-.1769-1.3412 0-2.8066 0-5.595 0-8.38347.007-.43272.0997-.8597.2727-1.25607.173-.39635.423-.75413.7352-1.05247.3123-.29835.6805-.53125 1.0833-.68515s.8322-.2257 1.263-.21121c.431.00706.8563.09933 1.2518.27151.3955.17219.7534.4209 1.0532.73197.2997.31107.5355.67838.6938 1.08097.1584.40256.2362.83253.229 1.2653.0182 1.39423 0 2.78842 0 4.18272z" fill="#59b280"/><path d="m11.6153 19.1857h-4.03935c-.431 0-.85777-.0852-1.25597-.2509-.39818-.1656-.76-.4083-1.06477-.7143-.30475-.306-.5465-.6693-.71145-1.0692-.16493-.3998-.24981-.8283-.24981-1.2611 0-.4327.08488-.8612.24981-1.2611.16495-.3998.4067-.7631.71145-1.0691.30477-.306.66659-.5487 1.06477-.7143.3982-.1657.82497-.2509 1.25597-.2509h8.20505c.431 0 .8578.0852 1.2559.2509.3982.1656.76.4083 1.0648.7143.3047.306.5465.6693.7115 1.0691.1649.3999.2497.8284.2497 1.2611 0 .4328-.0848.8613-.2497 1.2611-.165.3999-.4068.7632-.7115 1.0692-.3048.306-.6666.5487-1.0648.7143-.3981.1657-.8249.2509-1.2559.2509z" fill="#5fc1ed"/><path d="m19.0804 8.90104v1.50286c0 .2996-.1017.4346-.3605.4346-1.3327 0-1.8792 0-3.4444 0-.832-.1044-1.5896-.5332-2.1093-1.19391-.5196-.66069-.7595-1.50014-.6678-2.33695.0383-.81965.3798-1.59547.9577-2.1757.5778-.58024 1.3505-.92314 2.1668-.96162.8163-.0385 1.6175.23018 2.247.75348s1.0418 1.26359 1.1565 2.07602c.054.6304.054.81015.054 1.38562v.35688z" fill="#5fc1ed"/><path d="m10.7315 20.9058c.0998 1.3562.0998 2.718 0 4.0742-.1538.793-.6035 1.497-1.25715 1.9682-.65361.4711-1.46181.674-2.25933.5666-.82305-.0675-1.59145-.4408-2.15503-1.0468-.56359-.606-.88182-1.4013-.89255-2.2305-.01695-.8257.27898-1.6272.82798-2.2423.54898-.615 1.31008-.998 2.12943-1.0712 1.22625-.1087 2.4525-.0182 3.60665-.0182z" fill="#d03d5b"/><path d="m29.071 19.1677c0-1.2675 0-2.4807 0-3.6214.0869-.8472.4987-1.6271 1.1484-2.1746.6496-.5476 1.486-.8197 2.332-.7587.8705 0 1.7051.3472 2.3206.9652s.9614 1.4562.9614 2.3302-.3459 1.7123-.9614 2.3303-1.4501.9652-2.3206.9652c-1.118 0-2.2722-.0362-3.4804-.0362z" fill="#59b280"/><path d="m20.7939 29.2893c1.333-.091 2.6705-.091 4.0033 0 .8122.1505 1.534.6129 2.0122 1.289.478.6762.6748 1.5129.5485 2.3324-.0984.8175-.4964 1.569-1.1164 2.108-.6201.5388-1.4178.8266-2.2378.8071-.8148-.003-1.5982-.3171-2.1908-.8786-.5927-.5615-.9507-1.3284-1.001-2.1452-.072-1.1588-.018-2.3357-.018-3.5127z" fill="#e5b445"/></svg>