<svg fill="none" height="50" viewBox="0 0 50 50" width="50" xmlns="http://www.w3.org/2000/svg" xmlns:xlink="http://www.w3.org/1999/xlink"><linearGradient id="a"><stop offset="0" stop-color="#36e0f7"/><stop offset="1" stop-color="#1dffd2"/></linearGradient><linearGradient id="b" gradientUnits="userSpaceOnUse" x1="25" x2="25" xlink:href="#a" y1="17.3828" y2="26.0742"/><linearGradient id="c" gradientUnits="userSpaceOnUse" x1="25" x2="25" xlink:href="#a" y1="4.88281" y2="33.3984"/><linearGradient id="d" gradientUnits="userSpaceOnUse" x1="31.0059" x2="31.0059" xlink:href="#a" y1="39.2578" y2="45.1172"/><linearGradient id="e" gradientUnits="userSpaceOnUse" x1="44.1317" x2="44.1317" xlink:href="#a" y1="31.9512" y2="43.75"/><linearGradient id="f" gradientUnits="userSpaceOnUse" x1="46.2746" x2="46.2746" xlink:href="#a" y1="5.80829" y2="30.4903"/><linearGradient id="g" gradientUnits="userSpaceOnUse" x1="3.72544" x2="3.72544" xlink:href="#a" y1="5.80829" y2="30.4903"/><path d="m31.0059 17.3828h-12.0118c-2.3962 0-4.3457 1.9494-4.3457 4.3457s1.9495 4.3457 4.3457 4.3457h12.0118c2.3962 0 4.3457-1.9494 4.3457-4.3457s-1.9495-4.3457-4.3457-4.3457zm-10.2211 4.8827c0 .809-.6559 1.4649-1.4649 1.4649s-1.4648-.6559-1.4648-1.4649v-1.0742c0-.809.6558-1.4648 1.4648-1.4648s1.4649.6558 1.4649 1.4648zm11.36 0c0 .809-.6558 1.4649-1.4648 1.4649s-1.4649-.6559-1.4649-1.4649v-1.0742c0-.809.6559-1.4648 1.4649-1.4648s1.4648.6558 1.4648 1.4648z" fill="url(#b)"/><path d="m42.6758 25.195v-2.8314c0-9.7925-7.9344-17.48079-17.6758-17.48079-9.7519 0-17.67578 7.68949-17.67578 17.48079v2.8314c0 4.5183 3.68568 8.2034 8.20338 8.2034h18.9448c4.5177 0 8.2034-3.6856 8.2034-8.2034zm-23.6817 3.8088c-4.0116 0-7.2753-3.2637-7.2753-7.2754s3.2636-7.2754 7.2753-7.2754h12.0118c4.0116 0 7.2753 3.2637 7.2753 7.2754s-3.2637 7.2754-7.2753 7.2754z" fill="url(#c)"/><path d="m32.6172 39.2578h-3.2227c-1.6113 0-2.9297 1.3184-2.9297 2.9297s1.3184 2.9297 2.9297 2.9297h3.2227c1.6113 0 2.9297-1.3184 2.9297-2.9297s-1.3184-2.9297-2.9297-2.9297z" fill="url(#d)"/><path d="m47.0704 34.8142c0 3.2556-2.818 6.0061-6.1537 6.0061h-2.6028c.1054.439.1627.8964.1627 1.3672 0 .5411-.0753 1.0646-.2132 1.5625h2.6533c4.9237 0 9.0834-4.0921 9.0834-8.9358v-2.863c-.8521.6411-1.8479 1.1009-2.9297 1.3215z" fill="url(#e)"/><path d="m45.6055 15.7442h-.1267v-8.47107c0-.80898-.6559-1.46484-1.4649-1.46484s-1.4648.65586-1.4648 1.46484v4.33087c1.9907 3.1887 3.0564 6.8847 3.0564 10.7596v2.8314c0 1.9155-.4863 3.7196-1.342 5.2953h1.342c2.4232 0 4.3945-1.9714 4.3945-4.3945v-5.957c0-2.4232-1.9713-4.3946-4.3945-4.3946z" fill="url(#f)"/><path d="m4.39453 22.3636c0-3.8767 1.06572-7.5739 3.05635-10.7629v-4.32757c0-.80898-.65586-1.46484-1.46484-1.46484-.80899 0-1.46485.65586-1.46485 1.46484v8.47107h-.12666c-2.42314 0-4.39453 1.9714-4.39453 4.3946v5.957c0 2.4231 1.97139 4.3945 4.39453 4.3945h1.34199c-.85566-1.5757-1.34199-3.3797-1.34199-5.2953z" fill="url(#g)"/></svg>