<svg fill="none" height="50" viewBox="0 0 50 50" width="50" xmlns="http://www.w3.org/2000/svg" xmlns:xlink="http://www.w3.org/1999/xlink"><linearGradient id="a"><stop offset=".18" stop-color="#6d30fb"/><stop offset="1" stop-color="#c13dff"/></linearGradient><linearGradient id="b" gradientUnits="userSpaceOnUse" x1="8.77869" x2="18.3956" xlink:href="#a" y1="31.1102" y2="35.4209"/><linearGradient id="c" gradientUnits="userSpaceOnUse" x1="11.4102" x2="29.4698" xlink:href="#a" y1="7.40594" y2="14.9505"/><linearGradient id="d" gradientUnits="userSpaceOnUse" x1="12.1781" x2="30.0171" xlink:href="#a" y1="26.6356" y2="43.8737"/><linearGradient id="e" gradientUnits="userSpaceOnUse" x1="25.5984" x2="41.5924" xlink:href="#a" y1="9.12408" y2="13.7408"/><path d="m11.8375 42.5086c1.9157.4211 3.8828-.7157 4.5289-2.5524l2.1711-6.5039-3.2914-1.8539c-.3687-.2078-.7851-.3531-1.2156-.4281-1.1797-.2063-2.4703.1094-3.2094 1.0914-.0484.0648-.1156.1031-.1867.1281l-1.6375 4.9547c-.76797 2.1844.56485 4.6649 2.8414 5.1649z" fill="url(#b)"/><path d="m15.4102 26.6679c1.764-.7476 3.7367-.9656 5.6304-.7124l4.925-14.7438c.1836-.5406.4055-1.0008.6797-1.40703.4274-.62266.8789-1.025 1.468-1.30625.3156-.15469.7547-.18906 1.2203-.15313-2.1883-.92187-4.6016-1.27812-6.8945-.55078-1.9883.63047-3.6993 1.99219-4.7446 3.79839-.2711.4688-.4968.9633-.6757 1.475l-5.6086 16.9727c.2109-.2805.425-.5508.6453-.8094.9289-1.0922 1.9664-1.9742 3.3562-2.5633z" fill="url(#c)"/><path d="m40.8289 36.5602c-.0367.0398-.0696.0836-.1133.1125-.5562.3703-1.4016-.3594-1.8969-.6461-3.7508-2.168-7.4906-4.3539-11.2648-6.4797-2.0445-1.1516-3.957-2.3602-6.2969-2.786-3.4047-.5265-6.7469.6329-8.5398 2.9782l-.5391.7172c.1438-.036.2883-.0711.4391-.093.2359-.0367.4742-.0547.7117-.0547.2109 0 .4211.0164.6297.0445.6203.0719 1.2242.2641 1.7687.5758l19.5524 11.0148c1.8086 1.0008 4.107.818 5.3382-.9687l.1157-.1789c.6265-1.0063.7664-2.2492.375-3.3969l-.2782-.839z" fill="url(#d)"/><path d="m28.3609 9.39845c-1.2695.61485-1.5149 1.93515-1.9195 3.14765-.2813.8414-.5618 1.682-.843 2.5234l5.0547 15.286 9.5531 5.5273c.0336-.1765.0609-.5359-.0195-1.264-.0047-.0204-.0078-.0422-.0094-.0633-.5469-1.661-7.093-22.061-7.7328-23.3961-.3094-.6453-.7563-1.24298-1.3649-1.61955-.7367-.45625-1.6882-.54062-2.4976-.23515-.075.02812-.1485.06015-.2211.09453z" fill="url(#e)"/></svg>