<svg fill="none" height="50" viewBox="0 0 50 50" width="50" xmlns="http://www.w3.org/2000/svg" xmlns:xlink="http://www.w3.org/1999/xlink"><clipPath id="a"><path d="m0 0h50v50h-50z"/></clipPath><g clip-path="url(#a)"><path d="m13.0199 38.6066c-3.33531 0-6.30207-2.1355-7.37937-5.3147l-.07286-.2396c-.25407-.8419-.3605-1.55-.3605-2.2584v-14.2047l-5.054215 16.8713c-.65004 2.4815.831242 5.0542 3.316575 5.7397l32.21547 8.6275c.4021.1042.8042.1541 1.2002.1541 2.0748 0 3.9708-1.3771 4.5022-3.4066l1.8769-5.9686z" fill="#eceff1"/><path d="m50.0001 6.83471v23.95919c0 2.5834-2.1043 4.6876-4.6876 4.6876h-32.2926c-.2083 0-.4166-.021-.6043-.042-2.1874-.2704-3.89564-2.0622-4.06234-4.2706-.02098-.1251-.02098-.2503-.02098-.375v-23.95919c0-2.58338 2.10422-4.68762 4.68762-4.68762h32.2926c2.5833 0 4.6876 2.10424 4.6876 4.68762z" fill="#eceff1"/><path d="m22.9159 12.5642c0 2.3011-1.8654 4.1669-4.1665 4.1669-2.3014 0-4.1669-1.8658-4.1669-4.1669s1.8655-4.16692 4.1669-4.16692c2.3011 0 4.1665 1.86582 4.1665 4.16692z" fill="#ffc107"/><path d="m50 24.9394v5.8545c0 2.5834-2.1042 4.6877-4.6876 4.6877h-32.2926c-.2083 0-.4166-.021-.6043-.042l21.459-21.4586c1.4168-1.4168 3.7499-1.4168 5.1667 0z" fill="#388e3c"/><path d="m37.6246 35.4815h-24.6047c-.2083 0-.4166-.0209-.6043-.0419-2.1874-.2705-3.89562-2.0623-4.06233-4.2707l9.89593-9.8963c1.4168-1.4164 3.75-1.4164 5.1668 0z" fill="#4caf50"/></g></svg>