<svg fill="none" height="33" viewBox="0 0 36 33" width="36" xmlns="http://www.w3.org/2000/svg" xmlns:xlink="http://www.w3.org/1999/xlink"><linearGradient id="a" gradientUnits="userSpaceOnUse" x1="-1" x2="38" y1="16.5" y2="16.5"><stop offset="0" stop-color="#ab33f5"/><stop offset="1" stop-color="#ff6914"/></linearGradient><path d="m12.6977 32.616c-2.3174 0-4.37069-.4107-6.16003-1.232-1.78933-.8213-3.19733-2.024-4.224-3.608-.99733-1.6133-1.495998-3.564-1.495998-5.852v-1.1h4.707998v1.1c0 2.1707.64534 3.7987 1.936 4.884 1.32 1.0853 3.06533 1.628 5.23603 1.628 2.2 0 3.8573-.4547 4.972-1.364 1.1146-.9387 1.672-2.1413 1.672-3.608 0-.968-.264-1.76-.792-2.376s-1.276-1.1-2.244-1.452c-.968-.3813-2.1267-.7333-3.476-1.056l-1.628-.396c-1.96536-.4693-3.68136-1.0413-5.14803-1.716-1.43733-.704-2.552-1.628-3.344-2.772s-1.188-2.6107-1.188-4.4c0-1.81867.44-3.37333 1.32-4.664.90934-1.29067 2.156-2.288 3.74-2.992 1.584-.704002 3.44663-1.056002 5.58803-1.056002 2.1413 0 4.048.366667 5.72 1.100002 1.7013.73333 3.036 1.81867 4.004 3.256s1.452 3.24133 1.452 5.412v1.584h-4.708v-1.584c0-1.32-.2787-2.39067-.836-3.212-.528-.82133-1.276-1.42267-2.244-1.804s-2.0974-.572-3.388-.572c-1.8774 0-3.34403.396-4.40003 1.188-1.02666.76267-1.54 1.83333-1.54 3.212 0 .9387.22 1.716.66 2.332.46934.5867 1.144 1.0707 2.024 1.452s1.98003.7187 3.30003 1.012l1.628.396c1.9946.44 3.7546 1.012 5.28 1.716 1.5253.6747 2.728 1.5987 3.608 2.772s1.32 2.684 1.32 4.532-.4694 3.4613-1.408 4.84c-.9094 1.3787-2.2147 2.464-3.916 3.256-1.7014.7627-3.7107 1.144-6.028 1.144zm19.2005 0c-1.0267 0-1.892-.3373-2.596-1.012-.6747-.6747-1.012-1.54-1.012-2.596s.3373-1.9067 1.012-2.552c.704-.6747 1.5693-1.012 2.596-1.012 1.0266 0 1.8773.3373 2.552 1.012.704.6747 1.056 1.5253 1.056 2.552 0 1.056-.352 1.9213-1.056 2.596-.6747.6747-1.5254 1.012-2.552 1.012z" fill="url(#a)"/></svg>