<svg fill="none" height="60" viewBox="0 0 60 60" width="60" xmlns="http://www.w3.org/2000/svg" xmlns:xlink="http://www.w3.org/1999/xlink"><clipPath id="a"><path d="m0 0h60v60h-60z"/></clipPath><g clip-path="url(#a)"><path clip-rule="evenodd" d="m28.0534 26.5647c-.6664 0-1.2083-.5208-1.2084-1.1566 0-.6434.5419-1.1642 1.2082-1.1644.6655 0 1.2082.5208 1.2082 1.1643.0002.6358-.5425 1.1567-1.208 1.1567zm-.0002-4.1363c-1.7103 0-3.1003 1.333-3.1001 2.9799 0 1.6391 1.3901 2.9796 3.1004 2.9796s3.1003-1.3405 3.1001-2.9798c-.0001-1.647-1.39-2.9798-3.1004-2.9797zm28.2162 9.3444c-1.0146 0-1.8403-.7967-1.8403-1.7694 0-.9805.8255-1.7694 1.8402-1.7696 1.0137 0 1.8386.789 1.8386 1.7694.0002.9729-.8247 1.7696-1.8385 1.7696zm-14.1767 8.2653-.0006-20.069c0-.2375-.2072-.4365-.4527-.4365l-14.7491.0004-4.4941 4.3203.0004 16.1854c0 .2298.2073.4289.4527.4289l18.7906-.0004c.2456 0 .4528-.1992.4528-.4291zm-12.2302 17.5416-.0004-15.2893-7.0128.0002c-1.2926 0-2.3448-1.0111-2.3448-2.2519l-.0003-9.1306-3.7744.0001c-.4009 1.9303-2.0593 3.4394-4.1674 3.654-.4629.075-.9838-.2821-1.0416-.8042-.0551-.4979.3204-.9499.84-1.0036 1.4657-.1456 2.5703-1.3328 2.5703-2.75 0-1.4247-1.1047-2.6043-2.5704-2.7575-.5197-.0536-.895-.4979-.8401-1.0034.0558-.4979.5229-.8579 1.0417-.8043 2.108.2144 3.7666 1.7233 4.1676 3.6536l3.7745-.0001-.0002-5.6147c0-.2451.1005-.4749.2782-.6435l5.0473-4.8565c.1762-.1686.4177-.2605.6687-.2605l3.3633-.0001-.0004-15.29683c-5.5374-1.998974-11.5429 1.94738-11.5428 7.69843 0 1.9378.7159 3.8249 2.0246 5.3083.3379.383.2885.9575-.11 1.2793-.3963.3222-.9946.2783-1.3334-.1072-1.1261-1.2792-1.8992-2.8036-2.2523-4.4273-4.1269-1.9741-9.10326.9063-9.10312 5.4311 0 1.172.34441 2.2979.9964 3.2784.34441.5104.07037 1.2-.54036 1.3634-3.59538.9729-6.10825 4.1595-6.10811 7.7596.00014 3.5925 2.51315 6.7866 6.10839 7.7517.60769.17.88532.8537.54035 1.3711-.65184.9728-.99626 2.1066-.99612 3.2708.00014 4.4669 4.87247 7.4249 9.10337 5.4384.353-1.6317 1.1261-3.156 2.2522-4.4352.3388-.383.9349-.4291 1.3334-.1073.3985.3294.4479.9039.11 1.2869-1.3149 1.4907-2.0243 3.3636-2.0243 5.3084.0001 5.7535 6.0115 9.6873 11.543 7.6903zm21.9066-11.3066c0 .9805-.8257 1.7694-1.8402 1.7695-1.0138 0-1.8387-.7889-1.8387-1.7694 0-.9727.8249-1.7694 1.8387-1.7694 1.0145-.0001 1.8402.7965 1.8402 1.7693zm-6.6418 8.3801c1.0146 0 1.8395.7889 1.8395 1.7617 0 .9805-.8249 1.7694-1.8395 1.7695-1.0138 0-1.8387-.7889-1.8387-1.7694 0-.9727.8249-1.7618 1.8387-1.7618zm-.0014-52.83804c1.0146 0 1.8395.79664 1.8395 1.76941 0 .97276-.8249 1.7694-1.8395 1.76953-1.0138 0-1.8387-.79664-1.8387-1.7694 0-.9729.8249-1.76954 1.8387-1.76954zm2.9635 11.91104c0-.9727.8249-1.7695 1.8387-1.7695 1.0146 0 1.8403.7966 1.8403 1.7694 0 .9804-.8257 1.7694-1.8402 1.7695-1.0139 0-1.8388-.7889-1.8388-1.7694zm8.1799 12.6924c-1.7311 0-3.1904 1.1337-3.6103 2.6734l-8.6745.0003-.0002-3.853 5.9439-.0001c.5237 0 .9461-.406.9461-.904l-.0002-7.139c1.6019-.4059 2.7862-1.8077 2.7862-3.47 0-1.9763-1.6737-3.5848-3.7323-3.5847-2.0572 0-3.7307 1.6087-3.7307 3.585 0 1.6622 1.1845 3.0639 2.7849 3.4698l.0001 6.2276-4.998.0001-.0001-3.4546c0-1.2409-1.0522-2.252-2.3448-2.252l-3.9228.0001-.0002-7.6522 5.0919-3.66921c2.4396 1.84872 6.0492.18196 6.049-2.81139 0-1.97629-1.6738-3.58483261-3.7316-3.58469999-2.6465 0-4.4484 2.58355999-3.454 4.94072999l-5.4687 3.94476c-.2383.16856-.3787.43658-.3785.72768l.0001 8.10423-4.071.0001-.0004-15.90194c0-.35237-.216-.68167-.5524-.827281-1.366-.59745-2.8246-.9038006-4.3348-.9038006-5.7567.0001326-10.4397 4.5042816-10.4395 10.0347216-5.3164-1.67666-10.77457 2.1289-10.77443 7.484 0 1.1336.24948 2.2443.73008 3.2554-3.80884 1.5014-6.38215 5.117-6.38215 9.1461.00013799 4.0214 2.57373 7.6369 6.38257 9.1381-2.44071 5.174 1.49136 11.1375 7.46963 11.1374.8791 0 1.7494-.1379 2.5751-.3984.0001 5.5408 4.6827 10.0344 10.4401 10.0342 1.5102 0 2.9687-.2987 4.3348-.9039.3363-.1455.5522-.4672.5522-.8273l-.0004-15.8942 4.071-.0002.0002 8.1042c0 .2835.1403.5516.3786.7277l5.4691 3.9448c-.9934 2.3119.7856 4.9329 3.4542 4.9329 2.058 0 3.7315-1.6087 3.7315-3.585-.0002-3.0067-3.6367-4.6609-6.0492-2.8034l-5.0922-3.6689-.0001-7.6523 3.9228-.0001c1.2927 0 2.3448-1.0111 2.3447-2.252l-.0001-3.4623 4.998-.0001.0001 6.2275c-1.6004.4061-2.7847 1.8079-2.7846 3.47 0 1.9763 1.6738 3.5848 3.7308 3.5847 2.0586 0 3.7322-1.6087 3.7322-3.585 0-1.6621-1.1844-3.0639-2.7863-3.4698l-.0002-7.1314c0-.5055-.4223-.9115-.946-.9115l-5.9439.0002-.0001-3.853 8.6745-.0003c.42 1.5396 1.8794 2.6809 3.6104 2.6809 2.0571 0 3.7307-1.6087 3.7306-3.585 0-1.9761-1.6738-3.5848-3.7307-3.5846z" fill="#6d30fb" fill-rule="evenodd"/></g></svg>