<svg fill="none" height="60" viewBox="0 0 60 60" width="60" xmlns="http://www.w3.org/2000/svg" xmlns:xlink="http://www.w3.org/1999/xlink"><clipPath id="a"><path d="m0 0h60v60h-60z"/></clipPath><g clip-path="url(#a)" fill="#6d30fb"><path d="m53.237 44.9402c-.4855 0-.8789.3935-.8789.8789v.7638c0 2.1-1.7085 3.8086-3.8086 3.8086h-6.5487c-1.1307 0-2.0508.92-2.0508 2.0508v5.5069c0 .1615-.1313.2929-.2929.2929h-22.8246c-.1616 0-.293-.1314-.293-.2929v-6.6473c0-.4853-.3934-.8789-.8789-.8789s-.8789.3936-.8789.8789v6.6473c0 1.1307.92 2.0507 2.0508 2.0507h22.8246c1.1307 0 2.0508-.92 2.0508-2.0507v-5.5069c0-.1615.1313-.293.2929-.293h6.5487c3.0692 0 5.5664-2.4971 5.5664-5.5664v-.7638c0-.4854-.3934-.8789-.8789-.8789z"/><path d="m59.3875 37.0584-5.1705-9.8316c-.0662-.1257-.101-.2672-.101-.4092v-3.2083c0-6.2103-2.3835-12.0814-6.7112-16.53161-4.343-4.46578-10.1432-6.9783931-16.3319-7.07483839-5.9772-.09175781-11.63 2.03343839-16.0354 6.00655839l-1.9381-1.93804c-.498-.49805-1.1601-.77227-1.8643-.77227h-5.54931c-.36668-1.07461-1.38562-1.84992-2.58281-1.84992-1.50469 0-2.728712 1.22414-2.728712 2.72883 0 1.50468 1.224022 2.72883 2.728712 2.72883 1.19719 0 2.21601-.77532 2.58281-1.84993h5.54931c.2347 0 .4555.09141.6214.25746l1.9193 1.9193c-3.87138 4.04223-6.12829 9.22903-6.45079 14.79373h-1.63922c-.36668-1.0746-1.38562-1.8499-2.58281-1.8499-1.50469 0-2.728712 1.2241-2.728712 2.7288s1.224022 2.7289 2.728712 2.7289c1.19719 0 2.21601-.7754 2.58281-1.85h1.60195c.08614 5.6487 2.14676 10.9425 5.86196 15.1303l-3.80321 3.8032c-.49804.4981-.77226 1.1602-.77226 1.8645v2.2534c-1.07461.3667-1.84992 1.3856-1.84992 2.5828 0 1.5047 1.22414 2.7288 2.72882 2.7288 1.50467 0 2.72887-1.2241 2.72887-2.7288 0-1.1972-.7753-2.216-1.85-2.5828v-2.2534c0-.2347.0914-.4555.2575-.6216l3.7747-3.7746c.0458.0447.0906.0901.1369.1346.1782.1709.2807.4055.2807.6437v6.4343c0 .4854.3934.8789.8789.8789s.8789-.3935.8789-.8789v-6.4343c0-.7149-.2997-1.412-.8222-1.9128-.0373-.0357-.0732-.0724-.1103-.1082l3.163-3.1631 1.1353 1.1354c.2766.2766.6446.4291 1.0359.4291s.7591-.1523 1.0359-.429l2.541-2.5411c.678.3547 1.3878.6492 2.1156.8776v3.5923c0 .8077.657 1.4648 1.4648 1.4648h4.8191c.8078 0 1.4648-.6571 1.4648-1.4648v-3.5923c.7277-.2284 1.4374-.5228 2.1155-.8776l2.5412 2.5411c.5712.571 1.5005.5708 2.0717-.0001l3.4074-3.4076c.2767-.2767.4292-.6447.4292-1.036 0-.3912-.1525-.7591-.4291-1.0357l-2.541-2.5411c.3546-.6776.6491-1.3876.8775-2.1154h3.5922c.8078 0 1.4649-.6571 1.4649-1.4649v-4.8191c0-.8077-.6571-1.4648-1.4649-1.4648h-3.5922c-.2284-.7277-.5228-1.4376-.8775-2.1155l2.5409-2.541c.2767-.2766.4292-.6445.4292-1.0358s-.1525-.7592-.4291-1.0358l-3.4078-3.40781c-.571-.5707-1.5002-.57082-2.0715.00012l-2.5411 2.54109c-.6778-.3547-1.3876-.6492-2.1155-.8776v-3.59228c0-.80777-.657-1.46484-1.4648-1.46484h-4.8191c-.8078 0-1.4648.65707-1.4648 1.46484v3.59228c-.7279.2284-1.4377.5229-2.1156.8776l-2.5412-2.54132c-.5711-.57094-1.5005-.57106-2.0716.00011l-.9905.99059-2.6334-2.6332c4.0648-3.63528 9.2663-5.57883 14.7639-5.49317 5.7204.08918 11.0828 2.41278 15.0991 6.54281 4.0069 4.12018 6.2136 9.55608 6.2136 15.30608v3.2083c0 .4258.1046.8502.303 1.2273l5.1707 9.8318c.0669.1272.0234.2348-.0085.2878-.032.0528-.107.1414-.2509.1414h-3.1636c-1.1307 0-2.0507.9201-2.0507 2.0508v1.6774c0 .4854.3934.8789.8789.8789s.8789-.3935.8789-.8789v-1.6774c0-.1615.1313-.293.2929-.293h3.1636c.7247 0 1.381-.3703 1.7555-.9907.3748-.62.397-1.3732.0596-2.0145zm-56.28452-31.90938c-.53531 0-.9709-.43558-.9709-.97101s.43559-.97102.9709-.97102c.53543 0 .97101.43559.97101.97102s-.43558.97101-.97101.97101zm6.35004 45.24148c-.53543 0-.97102-.4355-.97102-.971 0-.5354.43559-.971.97102-.971s.97098.4356.97098.971c0 .5355-.43544.971-.97098.971zm-6.35004-26.5132c-.53531 0-.9709-.4355-.9709-.971 0-.5354.43559-.971.9709-.971.53543 0 .97101.4356.97101.971 0 .5355-.43558.971-.97101.971zm11.29242 13.7925c-3.3848-3.8537-5.26453-8.7072-5.34984-13.8846h4.05864v1.5307c0 .8078.6571 1.4649 1.4649 1.4649h3.5921c.2284.7277.5229 1.4376.8776 2.1154l-2.5412 2.5413c-.5709.5711-.5709 1.5003 0 2.0715l1.0294 1.0294zm6.5457-27.3235 2.4882 2.4881c.4558.4559 1.1702.5584 1.7372.2493.6909-.3768 1.4224-.6802 2.1741-.9019.6187-.1826 1.0509-.7601 1.0509-1.4043v-3.51711h4.2331v3.51731c0 .6443.4322 1.2216 1.051 1.4042.7516.2218 1.483.5251 2.1739.9019.5671.3091 1.2812.2067 1.7372-.2493l2.488-2.4881 2.9933 2.9933-2.4879 2.488c-.4562.4561-.5586 1.1706-.2493 1.7372.3766.6908.68 1.4223.9017 2.1743.1828.6186.7602 1.0507 1.4043 1.0507h3.5172v4.2332h-3.5172c-.6442 0-1.2217.4322-1.4043 1.0509-.2218.7519-.5252 1.4833-.9016 2.1737-.3094.5671-.2069 1.2816.2491 1.7375l2.4881 2.488-2.9933 2.9933-2.488-2.488c-.4559-.4562-1.1705-.5588-1.7371-.2494-.691.3768-1.4226.6803-2.1738.9019-.6189.1824-1.0512.7598-1.0512 1.4042v3.5173h-4.2331v-3.5173c0-.6443-.4322-1.2218-1.051-1.4041-.7514-.2217-1.4829-.5251-2.1739-.9019-.5672-.3094-1.2817-.2067-1.7373.2493l-2.4881 2.4881-2.9934-2.9933 2.4882-2.4883c.4558-.4558.5582-1.1701.2492-1.737-.3767-.691-.6801-1.4225-.9017-2.1737-.1825-.6189-.7599-1.0512-1.4043-1.0512h-3.5173v-4.2332h3.5173c.6443 0 1.2218-.4322 1.4041-1.0509.2218-.7514.5252-1.4829.9019-2.174.309-.5668.2066-1.2812-.2492-1.7371l-2.4882-2.4882zm-4.4434 4.0291 2.5413 2.5411c-.3548.6781-.6493 1.3878-.8777 2.1155h-3.5921c-.8078 0-1.4649.6571-1.4649 1.4648v1.5307h-4.01831c.31945-5.0943 2.39311-9.8408 5.93321-13.55023l2.6526 2.65253-1.1741 1.1741c-.571.5711-.571 1.5004 0 2.0715z"/><path d="m21.7567 22.0034c.4755.0971.9399-.2092 1.0373-.6849.7453-3.6423 3.9897-6.286 7.714-6.286 4.3417 0 7.8738 3.5322 7.8738 7.8739s-3.5322 7.874-7.8738 7.874c-1.8223 0-3.5326-.6043-4.9466-1.7474-1.3741-1.111-2.3446-2.6657-2.7326-4.3777-.1073-.4734-.5777-.7701-1.0515-.6629-.4733.1073-.7702.5781-.6628 1.0514.4751 2.0957 1.6618 3.9979 3.3418 5.3562 1.7056 1.3788 3.8548 2.1382 6.0518 2.1382 5.311 0 9.6317-4.3208 9.6317-9.6318 0-5.3109-4.3207-9.6317-9.6317-9.6317-4.5557 0-8.5241 3.2347-9.436 7.6914-.0974.4756.2091.94.6846 1.0373z"/></g></svg>