<svg fill="none" height="60" viewBox="0 0 60 60" width="60" xmlns="http://www.w3.org/2000/svg" xmlns:xlink="http://www.w3.org/1999/xlink"><clipPath id="a"><path d="m0 0h60v60h-60z"/></clipPath><g clip-path="url(#a)"><path d="m59.0177 27.7627c-.5987-.6003-1.3945-.9307-2.2411-.9307-1.4642 0-2.6991.9987-3.0605 2.3507h-3.9823c-.0481-1.1537-.1958-2.3073-.4446-3.4395-.0679-.3094-.3086-.5516-.6174-.6217l-2.9281-.6645c-.201-.5693-.4327-1.1275-.6927-1.6681l1.6018-2.5419c.1689-.2679.1677-.6092-.0029-.876-.622-.9727-1.3348-1.8915-2.1208-2.7442l2.8172-2.8172c.4773.2773 1.0208.4258 1.5875.4258.8464 0 1.6422-.3297 2.2417-.9293 1.2317-1.2361 1.2313-3.2446-.001-4.47684-.5986-.59871-1.3943-.92836-2.2407-.92836s-1.6422.32965-2.2407.92836c-1.033 1.03289-1.1999 2.61094-.5009 3.82314l-2.8188 2.8187c-.8526-.786-1.7715-1.4987-2.7441-2.1206-.2671-.1707-.6089-.1715-.877-.0024l-2.5391 1.6046c-.5427-.2602-1.1014-.492-1.6695-.6925l-.6617-2.9307c-.0698-.3095-.3123-.5506-.6221-.6184-1.1277-.2473-2.2825-.3926-3.4425-.4396v-3.98744c1.3519-.36093 2.3506-1.59469 2.3506-3.05742-.0001-1.7468-1.4212-3.1680462-3.168-3.1680462-1.745 0-3.1648 1.4211362-3.1648 3.1680462 0 1.46238.9974 2.6959 2.3475 3.05719v3.98747c-1.1582.0471-2.3118.1923-3.4392.4394-.3098.0679-.5524.309-.6221.6183l-.6617 2.9304c-.5697.2006-1.1286.4323-1.6701.6927l-2.5385-1.6042c-.2679-.1691-.6098-.1683-.877.0023-.9723.6218-1.8911 1.3346-2.7444 2.1209l-2.82-2.8177c.2776-.4779.426-1.0222.4254-1.5895-.0008-.8456-.3308-1.63956-.9281-2.23476-.5986-.59871-1.3938-.92836-2.239-.92836-.8453 0-1.6405.32965-2.23792.92719-.5986.59625-.9286 1.39033-.9293 2.23593-.00082.8473.32895 1.6438.92824 2.2431.5986.5987 1.39388.9284 2.23908.9284.5659 0 1.1091-.1485 1.5862-.4258l2.8196 2.8172c-.7862.8523-1.4996 1.7711-2.123 2.7436-.1712.2671-.1723.609-.0029.8773l1.6044 2.5418c-.2598.5402-.4916 1.0985-.6924 1.6676l-2.9283.6645c-.3082.07-.5486.3113-.617.6198-.2494 1.1225-.3974 2.277-.4451 3.4414h-3.98202c-.36141-1.3519-1.59633-2.3507-3.06059-2.3507-1.74726-.0001-3.1683962 1.4211-3.1683962 3.1679s1.4211362 3.168 3.1680462 3.168c1.46426 0 2.69918-.9987 3.06059-2.3507h3.98207c.0477 1.1646.1957 2.3189.445 3.4414.0687.3088.3093.5502.6177.6199l2.9273.6614c.2005.5698.4323 1.1289.6928 1.6707l-1.6044 2.5418c-.1695.2682-.1683.6102.0029.8772.6233.9726 1.3369 1.8913 2.123 2.7436l-2.8203 2.8178c-1.2109-.7002-2.78939-.5332-3.82428.5018-.59941.5993-.92906 1.396-.92836 2.2433.00082.8455.33082 1.6396.92825 2.2347.59859.5987 1.39379.9283 2.23909.9283s1.6405-.3296 2.2379-.9272c.5985-.5962.9285-1.3903.9292-2.2358.0005-.5674-.1478-1.1117-.4254-1.5898l2.82-2.8175c.8533.7862 1.7721 1.4991 2.7444 2.1209.2672.1707.6091.1715.877.0023l2.5385-1.6042c.5415.2603 1.1004.4921 1.6701.6927l.6617 2.9304c.0698.3094.3123.5504.6221.6183 1.1274.2471 2.2808.3939 3.4392.4414v3.9856c-1.3501.3613-2.3475 1.5947-2.3475 3.0572 0 1.7468 1.4198 3.168 3.1648 3.168 1.7468 0 3.1679-1.4211 3.1679-3.168 0-1.4628-.9986-2.6964-2.3506-3.0574v-3.9852c1.16-.0475 2.3148-.1943 3.4425-.4415.3098-.0678.5524-.309.6221-.6184l.6615-2.9306c.5721-.2016 1.131-.4333 1.6701-.6924l2.5386 1.6043c.268.1693.6098.1684.8769-.0023.9727-.622 1.8915-1.3348 2.7443-2.1207l2.8184 2.8184c-.6988 1.2119-.5321 2.7903.5012 3.8235.5986.5987 1.3943.9284 2.2406.9284.8465 0 1.6423-.3297 2.2408-.9284h-.0002c1.2324-1.2322 1.2329-3.2406 0-4.478-1.0353-1.0355-2.6148-1.2024-3.8273-.5016l-2.8179-2.8179c.786-.8527 1.4987-1.7716 2.1207-2.7442.1707-.2668.1718-.6081.003-.876l-1.6019-2.5419c.26-.5406.4919-1.099.6927-1.6682l2.9282-.6644c.3089-.0701.5495-.3124.6173-.6217.2487-1.1323.3965-2.2859.4447-3.4396h3.9822c.3614 1.352 1.5963 2.3508 3.0606 2.3508.8466 0 1.6425-.3306 2.2411-.9307.5973-.5987.9252-1.3933.9237-2.2373.0018-.8446-.3262-1.639-.9235-2.2378zm-11.169-17.77797c.2899-.28981.6752-.44953 1.0849-.44953s.795.15972 1.0848.44953h.0002c.5961.59627.5956 1.56857-.0002 2.16647-.2898.2898-.6751.4495-1.0848.4495s-.795-.1597-1.0837-.4485c-.5969-.5989-.5973-1.5712-.0012-2.16747zm-35.6972 2.16597c-.0001.0001-.0003.0002-.0004.0005-.2899.2898-.6745.4495-1.0831.4495-.4087 0-.7932-.1597-1.08316-.4496-.29027-.2902-.44976-.6757-.44953-1.0858.00047-.4084.15973-.7917.44965-1.08057.28984-.28981.67444-.44953 1.08304-.44953.4088 0 .7932.15972 1.0842.45058.2888.28762.448.67102.4484 1.07942.0002.4099-.1592.7953-.4491 1.0855zm-8.92486 19.3828c-.84562 0-1.53351-.6879-1.53351-1.5335s.68789-1.5335 1.53351-1.5335c.84563 0 1.53352.6879 1.53352 1.5335s-.68789 1.5335-1.53352 1.5335zm8.92446 18.4818c-.2899.2898-.6745.4495-1.0831.4495-.4087 0-.7932-.1597-1.08421-.4506-.28875-.2877-.44801-.6711-.44848-1.0794-.00035-.4099.15926-.7957.44953-1.086.29876-.2986.69096-.4479 1.08316-.4479s.7845.1493 1.0831.4479c.2902.2903.4497.6758.4495 1.086-.0004.4083-.1596.7917-.4495 1.0805zm35.6976-2.1665c.2993-.2993.6925-.4488 1.0854-.4488.3926 0 .7849.1493 1.0833.4477.5968.5989.5973 1.5712.0012 2.1675-.0002 0-.0002 0-.0002 0-.2898.2898-.6751.4495-1.0848.4495s-.795-.1597-1.0849-.4495c-.5961-.5962-.5957-1.5685 0-2.1664zm-19.3788-44.62216c0-.84562.6863-1.53351 1.5301-1.53351.8455 0 1.5334.68789 1.5334 1.53351 0 .84375-.6879 1.53012-1.5334 1.53012-.8438 0-1.5301-.68637-1.5301-1.53012zm3.0635 53.54676c0 .8456-.6879 1.5335-1.5334 1.5335-.8438 0-1.5301-.6879-1.5301-1.5335 0-.8438.6863-1.5302 1.5301-1.5302.8455 0 1.5334.6864 1.5334 1.5302zm16.2629-23.3724-2.8613.6492c-.2819.064-.5089.272-.5973.5471-.2534.7884-.5727 1.5572-.9493 2.285-.1331.2573-.1198.566.0345.8112l1.5659 2.4851c-1.2809 1.8805-2.9293 3.5288-4.8098 4.8098l-2.4815-1.5682c-.2452-.155-.5545-.1682-.812-.0349-.724.3744-1.4938.6936-2.2885.9491-.2752.0885-.4834.316-.5471.5982l-.6463 2.8634c-2.2336.4229-4.5677.4235-6.8043.0001l-.6465-2.8636c-.0637-.2824-.2722-.51-.548-.5984-.7887-.2525-1.5583-.5717-2.2875-.9488-.2577-.1334-.5668-.12-.8119.0349l-2.4816 1.5682c-1.8791-1.2802-3.5283-2.9284-4.8123-4.81l1.5683-2.4843c.1548-.2453.1681-.5541.0348-.8117-.3773-.7294-.6966-1.4989-.949-2.2875-.0881-.2758-.3158-.4843-.5982-.5481l-2.862-.6466c-.2128-1.1111-.3205-2.2525-.3205-3.4003 0-1.1481.1077-2.2895.3206-3.4008l2.8626-.6495c.2818-.0639.5088-.2719.5973-.547.2535-.7885.5728-1.5574.9491-2.285.1332-.2576.12-.5665-.0347-.8117l-1.5683-2.4843c1.284-1.8816 2.9332-3.5298 4.8123-4.81l2.4816 1.5682c.2453.155.5546.1684.8119.0349.7292-.3771 1.4986-.6963 2.2875-.9488.2758-.0883.4843-.316.548-.5984l.6465-2.8636c2.2366-.4234 4.5707-.4228 6.8043.0001l.6463 2.8634c.0637.2822.2719.5096.5471.5982.7862.2527 1.5566.5723 2.2896.9498.2575.1326.5659.1191.8109-.0356l2.4815-1.5682c1.8805 1.281 3.5289 2.9293 4.8098 4.8098l-1.5659 2.4851c-.1545.2452-.1676.5537-.0343.8112.3762.7276.6956 1.4965.9491 2.285.0883.2751.3154.4831.5973.5471l2.8613.6492c.2137 1.123.3218 2.2648.3218 3.401s-.1083 2.2781-.3218 3.401zm10.5106-3.3989c.001.4075-.1575.7914-.4464 1.0809-.2898.2906-.6746.4505-1.0837.4505-.8457 0-1.5336-.6879-1.5336-1.5335s.6879-1.5335 1.5336-1.5335c.4091 0 .794.1601 1.0837.4505.2889.2895.4474.6734.4464 1.0809zm-22.9506-4.5412c0-.4514-.3659-.8173-.8173-.8173h-.741v-2.1899c0-.4514-.3658-.8173-.8172-.8173s-.8173.3659-.8173.8173v2.1899h-1.3461v-2.1899c0-.4514-.3659-.8173-.8173-.8173s-.8173.3659-.8173.8173v2.1899h-1.3429v-2.1899c0-.4514-.3659-.8173-.8173-.8173s-.8172.3659-.8172.8173v2.1899h-.7443c-.4514 0-.8173.3659-.8173.8173v.7411h-2.1899c-.4514 0-.8172.3658-.8172.8172s.3658.8173.8172.8173h2.1899v1.3461h-2.1899c-.4514 0-.8172.3659-.8172.8173s.3658.8172.8172.8172h2.1899v1.3462h-2.1899c-.4514 0-.8172.3658-.8172.8172 0 .4515.3658.8173.8172.8173h2.1899v.7411c0 .4514.3659.8173.8173.8173h.7443v2.1899c0 .4514.3658.8172.8172.8172s.8173-.3658.8173-.8172v-2.1899h1.3429v2.1899c0 .4514.3659.8172.8173.8172s.8173-.3658.8173-.8172v-2.1899h1.3461v2.1899c0 .4514.3659.8172.8173.8172s.8172-.3658.8172-.8172v-2.1899h.741c.4514 0 .8173-.3659.8173-.8173v-.7411h2.1933c.4514 0 .8172-.3658.8172-.8173 0-.4514-.3658-.8172-.8172-.8172h-2.1933v-1.3462h2.1933c.4514 0 .8172-.3658.8172-.8172s-.3658-.8173-.8172-.8173h-2.1933v-1.3461h2.1933c.4514 0 .8172-.3659.8172-.8173s-.3658-.8172-.8172-.8172h-2.1933zm-1.6347 8.2609h-7.4435v-7.4437h7.4435zm-5.7209-.9052h3.9985c.4514 0 .8173-.3659.8173-.8173v-3.9985c0-.4514-.3659-.8173-.8173-.8173h-3.9985c-.4514 0-.8173.3659-.8173.8173v3.9985c0 .4514.3659.8173.8173.8173zm.8173-3.9986h2.3641v2.3641h-2.3641zm1.182-11.1271c-6.7873 0-12.3091 5.5218-12.3091 12.3091s5.5218 12.3091 12.3091 12.3091c6.7891 0 12.3123-5.5218 12.3123-12.3091s-5.5232-12.3091-12.3123-12.3091zm0 22.9837c-5.886 0-10.6746-4.7885-10.6746-10.6746s4.7885-10.6746 10.6746-10.6746c5.8877 0 10.6778 4.7885 10.6778 10.6746s-4.7901 10.6746-10.6778 10.6746z" fill="#6d30fb"/></g></svg>