<svg fill="none" height="60" viewBox="0 0 60 60" width="60" xmlns="http://www.w3.org/2000/svg"><g fill="#6d30fb"><path d="m55.4311 58.2338c-.3577 0-.7142-.0995-1.0265-.2985l-7.8582-4.871h-17.3731c-1.9474 0-3.5322-1.5842-3.5322-3.5311v-17.3548c0-.4687.3803-.849.8491-.849.4687 0 .849.3803.849.849v17.3548c0 1.0105.8226 1.833 1.8341 1.833h17.6152c.1581 0 .3129.0442.4472.1271l8.0715 5.0037c.099.0619.1814.0398.2339.01.0458-.0255.1227-.0852.1227-.2045v-29.9768c0-1.0116-.8225-1.8341-1.8341-1.8341h-18.3962c-.4688 0-.8491-.3803-.8491-.8491 0-.4687.3803-.849.8491-.849h18.3962c1.9474 0 3.5322 1.5842 3.5322 3.5322v29.9768c0 .7042-.3842 1.3531-1.0033 1.6925-.2896.1592-.6091.2388-.9275.2388z"/><path d="m49.2107 47.4947h-16.8109c-1.1735 0-2.1287-.9551-2.1287-2.1281v-13.188c0-.4688.3803-.8491.8491-.8491.4687 0 .849.3803.849.8491v13.188c0 .2366.1929.43.4306.43h16.8109c.2333 0 .4306-.1968.4306-.43v-14.0946c0-.2299-.1929-.4179-.4306-.4179h-13.8452c-.4688 0-.8491-.3803-.8491-.849 0-.4688.3803-.8491.8491-.8491h13.8452c1.1736 0 2.1287.9497 2.1287 2.116v14.0946c0 1.173-.9551 2.1281-2.1287 2.1281z"/><path d="m40.7235 43.4152c-.4687 0-.849-.3803-.849-.849v-5.8561c0-.4798-.1846-.9242-.5196-1.2537-.3455-.3449-.796-.5317-1.2758-.5317-.99 0-1.7954.8004-1.7954 1.7854v5.8561c0 .4687-.3803.849-.8491.849-.4687 0-.849-.3803-.849-.849v-5.8561c0-1.9203 1.5671-3.4835 3.4935-3.4835.9336 0 1.8109.3637 2.4709 1.0237.6572.6445 1.0226 1.5201 1.0226 2.4598v5.8561c0 .4687-.3803.849-.8491.849z"/><path d="m45.7206 43.1157c-.4687 0-.849-.3803-.849-.849v-7.6393c0-.4688.3803-.8491.849-.8491.4688 0 .8491.3803.8491.8491v7.6393c0 .4687-.3803.849-.8491.849z"/><path d="m47.3032 35.4764h-3.1657c-.4687 0-.849-.3803-.849-.849 0-.4688.3803-.8491.849-.8491h3.1657c.4688 0 .8491.3803.8491.8491 0 .4687-.3803.849-.8491.849z"/><path d="m47.3032 43.1156h-3.1657c-.4687 0-.849-.3803-.849-.8491 0-.4687.3803-.849.849-.849h3.1657c.4688 0 .8491.3803.8491.849 0 .4688-.3803.8491-.8491.8491z"/><path d="m40.7235 39.6576h-5.2889c-.4687 0-.849-.3803-.849-.8491 0-.4687.3803-.849.849-.849h5.2889c.4688 0 .8491.3803.8491.849 0 .4688-.3803.8491-.8491.8491z"/><path d="m4.64137 38.3773c-.34438 0-.68876-.0874-.99776-.2621-.6296-.3548-1.00549-.9938-1.00549-1.7091v-31.01381c0-1.99992 1.66219-3.62618 3.70523-3.62618h26.23455c2.0436 0 3.7057 1.62626 3.7057 3.62618v24.01021c0 1.9999-1.6621 3.6261-3.7057 3.6261h-18.5068l-8.38279 5.059c-.32116.1935-.68433.2897-1.04694.2897zm1.70198-34.91307c-1.10665 0-2.00711.86453-2.00711 1.92806v31.01381c0 .1249.07738.1946.14261.231.04975.0277.18297.0874.33222-.0044l8.58513-5.1806c.1326-.0796.2841-.1216.4389-.1216h18.7428c1.1072 0 2.0076-.8645 2.0076-1.928v-24.01021c0-1.06353-.9004-1.92806-2.0076-1.92806z"/><path d="m19.4656 26.7504c-2.1398 0-4.1475-.2963-5.6526-.8358-2.4814-.8877-3.0021-2.2055-3.0021-3.1552 0-3.1961 1.8175-6.0727 4.7427-7.5088.4207-.209.9298-.0332 1.1365.388.2068.4201.0326.9287-.388 1.1354-2.3399 1.1487-3.7931 3.4427-3.7931 5.9854 0 1.2636 3.1209 2.2929 6.9566 2.2929s6.9566-1.0293 6.9566-2.2929c0-2.5461-1.4576-4.8445-3.8042-5.9965-.4206-.2067-.5947-.7152-.388-1.1354.2062-.4212.7147-.5958 1.1365-.388 2.9325 1.4394 4.7538 4.3205 4.7538 7.5199 0 2.9452-4.662 3.991-8.6547 3.991z"/><path d="m19.4606 18.943c-3.226 0-5.8235-3.834-5.8235-7.008 0-3.13536 2.6124-5.68695 5.8235-5.68695 3.2116 0 5.8245 2.55159 5.8245 5.68695 0 3.174-2.598 7.008-5.8245 7.008zm0-10.99684c-2.2747 0-4.1253 1.78987-4.1253 3.98884 0 2.3404 1.9424 5.3099 4.1253 5.3099 2.1834 0 4.1264-2.9695 4.1264-5.3099 0-2.19897-1.8512-3.98884-4.1264-3.98884z"/></g></svg>