<svg fill="none" height="60" viewBox="0 0 60 60" width="60" xmlns="http://www.w3.org/2000/svg"><path d="m51.9873 27.6996c.135.3717.351.7125.6389 1.0003.5176.5176 1.2059.8028 1.9379.8028 1.5113 0 2.7407-1.2294 2.7407-2.7406 0-1.5113-1.2294-2.7407-2.7407-2.7407-1.182 0-2.1917.7522-2.5754 1.8032h-9.8052v-2.0956h4.3077c.2487 0 .4872-.0988.6629-.2746l6.2509-6.2509c.3584.1674.752.2556 1.1593.2556 1.5112 0 2.7406-1.2294 2.7406-2.7405 0-1.5113-1.2294-2.7407-2.7406-2.7407s-2.7406 1.2296-2.7406 2.7407c0 .4072.0883.8008.2556 1.1592l-5.9763 5.9763h-3.9194v-.7481c0-2.0188-1.6266-3.6639-3.6381-3.6956v-.8772c0-4.7118-3.8334-8.54516-8.5453-8.54516-4.7118 0-8.5452 3.83336-8.5452 8.54516v.8772c-2.0114.0317-3.6382 1.6768-3.6382 3.6957v.7481h-3.9193l-5.97656-5.9765c.16734-.3584.25558-.752.25558-1.1592 0-1.5113-1.22941-2.7407-2.74054-2.7407-1.51125 0-2.74067 1.2295-2.74067 2.7408 0 .7319.28512 1.4202.80274 1.9379.51761.5176 1.20586.8026 1.93793.8026.40722 0 .80074-.0882 1.1591-.2557l6.25092 6.2509c.1758.1758.4142.2746.6629.2746h4.3077v2.0955h-9.17637c-.38367-1.0509-1.39336-1.8031-2.57543-1.8031-1.51125 0-2.74066 1.2294-2.74066 2.7406 0 .7321.28512 1.4204.80273 1.9379.51762.5176 1.20586.8028 1.93793.8028 1.18207 0 2.19176-.7521 2.57543-1.8032h9.17627v3.1177h-4.3077c-.2487 0-.4872.0988-.6629.2746l-6.25094 6.2509c-.35836-.1675-.75199-.2557-1.15922-.2557-1.51101.0001-2.74043 1.2295-2.74043 2.7406 0 .7321.28512 1.4202.80274 1.938.51761.5176 1.20586.8027 1.93793.8027 1.51113 0 2.74054-1.2294 2.74054-2.7407 0-.4072-.08824-.8008-.25558-1.1591l5.97636-5.9763h3.9193v.438c0 2.0386 1.6586 3.6972 3.6972 3.6972h2.5562v3.9828l-5.9764 5.9764c-.3582-.1675-.752-.2557-1.1592-.2557-1.5112 0-2.7406 1.2294-2.7406 2.7406 0 .7321.2851 1.4203.8027 1.938.5176.5176 1.2058.8027 1.9379.8027 1.5113 0 2.7407-1.2294 2.7407-2.7407 0-.4072-.0883-.8008-.2557-1.1592l6.2509-6.2509c.1758-.1758.2745-.4142.2745-.6629v-4.3711h3.1177v9.2398c-1.0509.3836-1.8032 1.3933-1.8032 2.5754 0 .7321.2852 1.4203.8028 1.9379s1.2058.8028 1.9379.8028c1.5111 0 2.7405-1.2295 2.7405-2.7406 0-1.1821-.7521-2.1918-1.803-2.5754v-9.2399h2.0955v4.3712c0 .2487.0988.4872.2746.6629l6.2509 6.2509c-.1674.3584-.2557.752-.2557 1.1592 0 .732.2851 1.4202.8027 1.938.5177.5176 1.2059.8027 1.938.8027 1.5112 0 2.7406-1.2294 2.7406-2.7407 0-1.5112-1.2294-2.7406-2.7406-2.7406-.4073 0-.8009.0882-1.1592.2557l-5.9764-5.9763v-3.983h3.5782c2.0386 0 3.6972-1.6586 3.6972-3.6972v-.438h3.9193l5.9763 5.9763c-.1673.3584-.2555.752-.2555 1.1592 0 .7321.2851 1.4202.8026 1.938.5175.5177 1.2058.8027 1.9379.8027 1.5113 0 2.7407-1.2294 2.7407-2.7407 0-1.5112-1.2294-2.7406-2.7407-2.7406-.4072 0-.8009.0882-1.1592.2557l-6.2509-6.2509c-.1758-.1758-.4143-.2746-.6629-.2746h-4.3077v-3.1176zm2.5767-1.8032c.4773 0 .8657.3882.8657.8657 0 .4774-.3883.8656-.8657.8656-.2312 0-.4486-.09-.612-.2536-.1635-.1634-.2535-.3808-.2535-.612 0-.4775.3883-.8657.8655-.8657zm0-12.0436c.4773 0 .8657.3884.8657.8657s-.3883.8655-.8657.8655c-.2312 0-.4486-.09-.612-.2536-.1635-.1635-.2535-.3808-.2535-.6121 0-.4771.3883-.8655.8655-.8655zm-48.51607 1.4777c-.16359.1635-.38086.2536-.61207.2536s-.44859-.0901-.61219-.2536c-.16347-.1634-.25347-.3808-.25347-.612 0-.4773.38824-.8657.86566-.8657.4773 0 .86555.3884.86555.8657.00011.2312-.08989.4486-.25348.612zm.01687 12.2971c-.23121 0-.44859-.09-.61207-.2536-.16347-.1636-.25359-.3808-.25359-.6121 0-.4773.38824-.8656.86566-.8656.47731 0 .86555.3882.86555.8656 0 .4775-.38824.8657-.86555.8657zm-.62882 13.0656c-.23133 0-.4486-.09-.61219-.2536-.16348-.1635-.25348-.3809-.25348-.6121 0-.4773.38824-.8656.86567-.8656.23121 0 .44859.0901.61207.2534.16347.1636.25359.3809.25359.6122-.00012.4775-.38848.8657-.86566.8657zm11.49842 9.4439c-.2312 0-.4486-.09-.6122-.2536-.1634-.1635-.2535-.3809-.2535-.6121 0-.4773.3883-.8656.8657-.8656.2312 0 .4486.0901.6121.2534.1636.1636.2536.381.2536.6122 0 .4773-.3884.8657-.8657.8657zm13.0656-.6289c-.2313 0-.4487-.09-.6122-.2535s-.2535-.3809-.2535-.6121c0-.4773.3883-.8657.8657-.8657.4773 0 .8655.3883.8655.8657 0 .4772-.3882.8656-.8655.8656zm11.4314-.8488c.1636-.1635.3809-.2536.6121-.2536.4773 0 .8656.3882.8656.8656 0 .4775-.3882.8657-.8656.8657-.2312 0-.4486-.09-.6121-.2536s-.2536-.3809-.2536-.6121.0901-.4484.2536-.612zm-11.4314-38.7966c3.678 0 6.6703 2.9923 6.6703 6.6702v.8757h-13.3405v-.8757c0-3.6779 2.9922-6.6702 6.6702-6.6702zm10.3084 23.2673c0 1.0048-.8175 1.8222-1.8222 1.8222h-16.9726c-1.0047 0-1.8221-.8174-1.8221-1.8222v-12.0242c0-1.0048.8174-1.8222 1.8221-1.8222h16.9726c1.0048 0 1.8222.8175 1.8222 1.8222zm13.6436 6.0854c.1635-.1635.3808-.2536.612-.2536.4773 0 .8657.3882.8657.8656 0 .4775-.3883.8657-.8657.8657-.2312 0-.4486-.09-.612-.2536-.1635-.1635-.2535-.3809-.2535-.6121s.0901-.4486.2535-.612zm-23.0145-13.6926v3.1902c0 .5178-.4198.9375-.9375.9375s-.9375-.4197-.9375-.9375v-3.1902c0-.5177.4198-.9375.9375-.9375s.9375.4198.9375.9375z" fill="#6d30fb"/></svg>