<svg fill="none" height="60" viewBox="0 0 60 60" width="60" xmlns="http://www.w3.org/2000/svg"><g fill="#6d30fb"><path d="m55.696 48.5997-11.3722-11.3716c-.7092-.7103-1.9143-.7409-2.6782-.1082l-2.0331-2.0328c5.7657-7.9476 5.0921-19.1474-2.0668-26.30631-7.9306-7.930605-20.835-7.929499-28.76454 0-7.930613 7.93061-7.930613 20.83451-.00056 28.76451 7.1265 7.1379 18.2809 7.9268 26.3114 2.0719l2.0275 2.0275c-.6556.7802-.6254 1.945.1084 2.6787l11.3721 11.3722c1.9596 1.9607 5.1353 1.9617 7.096 0 1.9607-1.9596 1.9617-5.1353 0-7.0959zm-45.71423-12.2544c-7.26838-7.2684-7.26838-19.0955 0-26.36389 7.27013-7.269 19.09413-7.26804 26.36333 0 7.2684 7.26839 7.2684 19.09549 0 26.36389-7.2828 7.2931-19.0791 7.2945-26.36333 0zm27.56393 1.2006c.3585-.3585.6821-.738 1.0083-1.116l1.8783 1.8777-2.1243 2.1243-1.8752-1.8751c.3779-.3271.7562-.6537 1.1129-1.0109zm16.9496 16.9491c-1.294 1.294-3.3995 1.2951-4.6947 0l-11.3721-11.3722c-.1128-.1133-.1128-.2968 0-.4101 1.8228-1.8229 2.9158-2.9159 4.2851-4.2851.0735-.0735.1597-.0846.2039-.0846.0448 0 .131.0111.2051.0851l11.3727 11.3722c1.2941 1.2946 1.2941 3.4001 0 4.6947z"/><path d="m34.0235 12.3048c-5.9959-6.00724-15.7206-6.01092-21.719-.0011-6.00849 5.9971-6.00953 15.7214-.0011 21.7184 5.9966 6.008 15.721 6.0104 21.7195.0005 6.0069-5.9966 6.0099-15.7198.0006-21.7178zm-1.2007 20.5167c-.0005.0005-.0005.0005-.0011.0011-5.3326 5.3429-13.9815 5.3454-19.3177-.0011-5.34304-5.334-5.34538-13.981.0011-19.3172 5.3326-5.34283 13.9815-5.34539 19.3177.0011 5.3438 5.3335 5.3442 13.981 0 19.3161z"/><path d="m22.2992 17.7108c-.2048-.4619-.5831-.7755-1.105-.7755h-.173c-.5246 0-.8998.3135-1.1061.7772l-4.4051 10.3993c-.1771.4242-.0815.7773.1532 1.0198.4087.4265 1.1997.3362 1.4902-.2935l1.094-2.6251h5.7211l1.0956 2.629c.2869.6204 1.0746.7179 1.4892.2896.2416-.2521.3258-.5994.152-1.0204zm.9706 6.8417h-4.3243l2.1619-5.2055z"/><path d="m30.0031 16.9353c-.5177 0-.8905.4209-.8905.9077v10.6574c0 .5061.3922.891.8905.891.4961 0 .9088-.3821.9088-.891v-10.6574c0-.497-.3998-.9077-.9088-.9077z"/></g></svg>