<svg fill="none" height="60" viewBox="0 0 60 60" width="60" xmlns="http://www.w3.org/2000/svg" xmlns:xlink="http://www.w3.org/1999/xlink"><clipPath id="a"><path d="m0 0h60v60h-60z"/></clipPath><g clip-path="url(#a)" fill="#6d30fb"><path d="m38.6364 22h-16c-2.2728 0-4.091-1.8181-4.091-4.0909v-7.9091c0-.54541.3637-.90905.9091-.90905.5455 0 .9091.36364.9091.90905v7.9091c0 1.2728 1 2.2728 2.2728 2.2728h16.0909c1.2727 0 2.2727-1 2.2727-2.2728v-8.54542c0-.54545.3636-.90909.9091-.90909.5454 0 .9091.36364.9091.90909v8.54542c0 2.1819-1.8182 4.0909-4.1818 4.0909z"/><path d="m30.6364 13.8183c-.091 0-.1819 0-.2728 0l-17.0909-5.63639c-.3636-.09091-.6363-.45455-.6363-.90909 0-.45455.2727-.72728.6363-.9091l17.0909-5.45454h.5455l17.0909 5.54545c.3636.09091.6364.45455.6364.90909 0 .45455-.2728.72728-.6364.9091l-17.0909 5.45458c-.0909.0909-.1818.0909-.2727.0909zm-14.091-6.45458 14.091 4.54548 14.0909-4.54548-14.0909-4.54545z"/><path d="m47.7273 14.4546c-.5455 0-.9091-.3636-.9091-.9091v-6.18182c0-.54545.3636-.90909.9091-.90909.5454 0 .9091.36364.9091.90909v6.18182c0 .5455-.4546.9091-.9091.9091z"/><path d="m47.7273 19.1819c-1.8182 0-3.2728-1.4545-3.2728-3.2727s1.4546-3.2727 3.2728-3.2727c1.8181 0 3.2727 1.4545 3.2727 3.2727s-1.4546 3.2727-3.2727 3.2727zm0-4.7272c-.8182 0-1.4546.6363-1.4546 1.4545s.6364 1.4545 1.4546 1.4545c.8181 0 1.4545-.6363 1.4545-1.4545s-.6364-1.4545-1.4545-1.4545z"/><path d="m30.2727 59.0909c-1.2727 0-2.5454-.1818-3.8182-.4546-.4545-.0909-.7272-.5454-.7272-1 .1818-1.3636-.2728-2.4545-1.0909-2.8181-.8182-.3637-1.9091.0909-2.8182 1.0909-.2727.3636-.8182.4545-1.1818.1818-2.0909-1.3636-3.8182-3.1818-5.0909-5.2727-.2728-.3637-.1819-.9091.1818-1.1819 1.0909-.8181 1.5454-2 1.1818-2.8181-.3636-.8182-1.4546-1.2728-2.8182-1.1819-.4545.091-.9091-.2727-1-.7272-.4545-2.4546-.4545-4.9091.0909-7.3637.0909-.4545.5455-.7272 1-.7272 1.3637.1818 2.4546-.2728 2.8182-1.091.3636-.8181-.0909-1.909-1.0909-2.8181-.4546-.1818-.5455-.6364-.2727-1.0909 1.3636-2.091 3.1818-3.8182 5.2727-5.091.3636-.2727.9091-.1818 1.1818.1819.8182 1.0909 2 1.5454 2.8182 1.1818.8182-.3637 1.2727-1.4546 1.1818-2.8182 0-.4545.2727-.9091.7273-1 2.4545-.4545 4.9091-.4545 7.3636.0909.4546.0909.7273.5455.7273 1-.1818 1.3636.2727 2.4546 1.0909 2.8182s1.9091-.0909 2.8182-1.0909c.2727-.3637.8182-.4546 1.1818-.1818 2.0909 1.3636 3.8182 3.1818 5.0909 5.2727.2727.3636.1818.9091-.1818 1.1818-1.0909.8182-1.5455 2-1.1818 2.8182.3636.8182 1.4545 1.2727 2.8181 1.1818.4546 0 .9091.2727 1 .7273.4546 2.4545.4546 4.9091-.0909 7.3636-.0909.4546-.5454.7273-1 .7273-1.3636-.1818-2.4545.2727-2.8181 1.0909-.3637.8182.0909 1.9091 1.0909 2.8182.3636.2727.4545.8182.1818 1.1818-1.3637 2.0909-3.1818 3.8182-5.2727 5.0909-.3637.2727-.9091.1818-1.1819-.1818-.8181-1.0909-2-1.5455-2.8181-1.1818-.8182.3636-1.2728 1.4545-1.1819 2.8182 0 .4545-.2727.909-.7272 1-1.1818.1818-2.3637.2727-3.4546.2727zm-2.7272-2.0909c1.7272.2727 3.3636.3636 5.0909.0909.0909-1.8182 1-3.2727 2.3636-3.8182 1.3636-.5454 3-.0909 4.2727 1.0909 1.3637-1 2.6364-2.1818 3.6364-3.5454-1.1818-1.3637-1.6364-3-1-4.3637.5454-1.3636 2.0909-2.1818 3.8182-2.2727.2727-1.7273.3636-3.3636.0909-5.0909-1.8182-.0909-3.2728-.9091-3.8182-2.3636-.5455-1.4546-.0909-3 1.0909-4.2728-1-1.3636-2.1818-2.6363-3.5455-3.6363-1.3636 1.1818-2.9999 1.6363-4.3636 1-1.3636-.5455-2.1818-2.0909-2.2727-3.8182-1.7273-.2727-3.3636-.3637-5.0909-.0909-.0909 1.8181-.9091 3.2727-2.3637 3.8182-1.3636.5454-3 .0909-4.2727-1.091-1.3636 1-2.6363 2.1819-3.6363 3.5455 1.1818 1.3636 1.6363 3 1 4.3636-.5455 1.3637-2.091 2.1819-3.8182 2.2728-.2728 1.7272-.3637 3.3636-.0909 5.0909 1.8181.0909 3.2727.9091 3.8181 2.3636.5455 1.3636.091 3-1.0909 4.2727 1 1.3637 2.1819 2.6364 3.5455 3.6364 1.3636-1.1818 3-1.6364 4.3636-1 1.3637.5455 2.1818 2.0909 2.2728 3.8182z"/><path d="m35.1818 48.3636h-9.9091c-1.1818 0-2.0909-.9091-2.0909-2.0909v-9.9091c0-1.1818.9091-2.0909 2.0909-2.0909h9.9091c1.1818 0 2.0909.9091 2.0909 2.0909v9.9091c0 1.1818-.9091 2.0909-2.0909 2.0909zm-9.9091-12.2727c-.1818 0-.2727.0909-.2727.2727v9.9091c0 .1818.0909.2727.2727.2727h9.9091c.1818 0 .2728-.0909.2728-.2727v-9.9091c0-.1818-.091-.2727-.2728-.2727z"/><path d="m26.4545 36.0908c-.5454 0-.9091-.3636-.9091-.909v-2.4546c0-.5454.3637-.9091.9091-.9091.5455 0 .9091.3637.9091.9091v2.4546c0 .5454-.3636.909-.9091.909z"/><path d="m30.2727 36.0908c-.5454 0-.9091-.3636-.9091-.909v-2.4546c0-.5454.3637-.9091.9091-.9091.5455 0 .9091.3637.9091.9091v2.4546c0 .5454-.4545.909-.9091.909z"/><path d="m34 36.0908c-.5455 0-.9091-.3636-.9091-.909v-2.4546c0-.5454.3636-.9091.9091-.9091s.9091.3637.9091.9091v2.4546c0 .5454-.3636.909-.9091.909z"/><path d="m26.4545 51.2727c-.5454 0-.9091-.3636-.9091-.9091v-2.4545c0-.5455.3637-.9091.9091-.9091.5455 0 .9091.3636.9091.9091v2.4545c0 .5455-.3636.9091-.9091.9091z"/><path d="m30.2727 51.2727c-.5454 0-.9091-.3636-.9091-.9091v-2.4545c0-.5455.3637-.9091.9091-.9091.5455 0 .9091.3636.9091.9091v2.4545c0 .5455-.4545.9091-.9091.9091z"/><path d="m34 51.2727c-.5455 0-.9091-.3636-.9091-.9091v-2.4545c0-.5455.3636-.9091.9091-.9091s.9091.3636.9091.9091v2.4545c0 .5455-.3636.9091-.9091.9091z"/><path d="m23.9091 46.2728h-2.4546c-.5454 0-.9091-.3637-.9091-.9091 0-.5455.3637-.9091.9091-.9091h2.4546c.5454 0 .9091.3636.9091.9091 0 .5454-.4546.9091-.9091.9091z"/><path d="m23.9091 42.4544h-2.4546c-.5454 0-.9091-.3636-.9091-.9091 0-.5454.3637-.9091.9091-.9091h2.4546c.5454 0 .9091.3637.9091.9091 0 .5455-.4546.9091-.9091.9091z"/><path d="m23.9091 38.6363h-2.4546c-.5454 0-.9091-.3636-.9091-.9091 0-.5454.3637-.9091.9091-.9091h2.4546c.5454 0 .9091.3637.9091.9091 0 .5455-.4546.9091-.9091.9091z"/><path d="m39.0909 46.2728h-2.4545c-.5455 0-.9091-.3637-.9091-.9091 0-.5455.3636-.9091.9091-.9091h2.4545c.5455 0 .9091.3636.9091.9091 0 .5454-.4546.9091-.9091.9091z"/><path d="m39.0909 42.4544h-2.4545c-.5455 0-.9091-.3636-.9091-.9091 0-.5454.3636-.9091.9091-.9091h2.4545c.5455 0 .9091.3637.9091.9091 0 .5455-.4546.9091-.9091.9091z"/><path d="m39.0909 38.6363h-2.4545c-.5455 0-.9091-.3636-.9091-.9091 0-.5454.3636-.9091.9091-.9091h2.4545c.5455 0 .9091.3637.9091.9091 0 .5455-.4546.9091-.9091.9091z"/><path d="m31.6364 44.5455h-2.7273c-.3636 0-.6364-.1819-.8182-.4546l-1.3636-2.3636c-.1818-.2728-.1818-.6364 0-.9091l1.3636-2.3637c.1818-.2727.4546-.4545.8182-.4545h2.7273c.3636 0 .6363.1818.8181.4545l1.3637 2.3637c.1818.2727.1818.6363 0 .9091l-1.3637 2.3636c-.1818.2727-.5454.4546-.8181.4546zm-2.1819-1.8182h1.6364l.8182-1.4546-.8182-1.4545h-1.6364l-.8181 1.4545z"/><path d="m51.6364 42.4544h-4.3637c-.5454 0-.9091-.3636-.9091-.9091 0-.5454.3637-.9091.9091-.9091h4.2728c.5454 0 .9091.3637.9091.9091 0 .5455-.3637.9091-.8182.9091z"/><path d="m55.1818 45.4544c-2.1818 0-3.9091-1.7273-3.9091-3.9091s1.7273-3.9091 3.9091-3.9091 3.9091 1.7273 3.9091 3.9091-1.7273 3.9091-3.9091 3.9091zm0-6c-1.1818 0-2.0909.9091-2.0909 2.0909s.9091 2.0909 2.0909 2.0909 2.0909-.9091 2.0909-2.0909-.9091-2.0909-2.0909-2.0909z"/><path d="m54.7273 59.0909c-2.1819 0-3.9091-1.7273-3.9091-3.9091s1.7272-3.9091 3.9091-3.9091c2.1818 0 3.9091 1.7273 3.9091 3.9091s-1.7273 3.9091-3.9091 3.9091zm0-6.0909c-1.1819 0-2.0909.9091-2.0909 2.0909s.909 2.0909 2.0909 2.0909c1.1818 0 2.0909-.9091 2.0909-2.0909 0-1.0909-.9091-2.0909-2.0909-2.0909z"/><path d="m51.6364 56.0908h-4c-.2728 0-.4546-.0909-.6364-.2727l-3.9091-3.9091c-.3636-.3637-.3636-.9091 0-1.2727.3636-.3637.9091-.3637 1.2727 0l3.6364 3.6363h3.5454c.5455 0 .9091.3637.9091.9091 0 .5455-.2727.9091-.8181.9091z"/><path d="m54.7273 31.909c-2.1819 0-3.9091-1.7273-3.9091-3.9091s1.7272-3.9091 3.9091-3.9091c2.1818 0 3.9091 1.7273 3.9091 3.9091 0 2.0909-1.7273 3.9091-3.9091 3.9091zm0-6.0909c-1.1819 0-2.0909.9091-2.0909 2.0909s.909 2.0909 2.0909 2.0909c1.1818 0 2.0909-.9091 2.0909-2.0909 0-1.0909-.9091-2.0909-2.0909-2.0909z"/><path d="m43.8182 32.8181c-.2727 0-.4546-.0909-.6364-.2727-.3636-.3637-.3636-.9091 0-1.2728l3.9091-3.9091c.1818-.1818.3636-.2727.6364-.2727h4c.5454 0 .9091.3637.9091.9091 0 .5455-.3637.9091-.9091.9091h-3.5455l-3.6363 3.6364c-.2728.1818-.5455.2727-.7273.2727z"/><path d="m12.7273 42.4544h-4.36368c-.54545 0-.90909-.3636-.90909-.9091 0-.5454.36364-.9091.90909-.9091h4.36368c.5454 0 .909.3637.909.9091 0 .5455-.4545.9091-.909.9091z"/><path d="m4.81818 45.4544c-2.18182 0-3.909092-1.7273-3.909092-3.9091s1.727272-3.9091 3.909092-3.9091 3.90909 1.7273 3.90909 3.9091c.09091 2.1818-1.72727 3.9091-3.90909 3.9091zm0-6c-1.18182 0-2.09091.9091-2.09091 2.0909s.90909 2.0909 2.09091 2.0909 2.09091-.9091 2.09091-2.0909c.09091-1.1818-.90909-2.0909-2.09091-2.0909z"/><path d="m5.27274 31.909c-2.18182 0-3.90909-1.7273-3.90909-3.9091s1.72727-3.9091 3.90909-3.9091 3.90909 1.7273 3.90909 3.9091c.09091 2.0909-1.72727 3.9091-3.90909 3.9091zm0-6.0909c-1.18182 0-2.09091.9091-2.09091 2.0909s.90909 2.0909 2.09091 2.0909 2.09091-.9091 2.09091-2.0909c.09091-1.0909-.90909-2.0909-2.09091-2.0909z"/><path d="m16.1818 32.8181c-.2727 0-.4545-.0909-.6364-.2727l-3.6363-3.6364h-3.54548c-.54545 0-.90909-.3636-.90909-.9091 0-.5454.36364-.9091.90909-.9091h3.99998c.2727 0 .4546.0909.6364.2727l3.9091 3.9091c.3636.3637.3636.9091 0 1.2728-.2728.1818-.4546.2727-.7273.2727z"/><path d="m5.27274 59.0909c-2.18182 0-3.90909-1.7273-3.90909-3.9091s1.72727-3.9091 3.90909-3.9091 3.90909 1.7273 3.90909 3.9091c.09091 2.1818-1.72727 3.9091-3.90909 3.9091zm0-6.0909c-1.18182 0-2.09091.9091-2.09091 2.0909s.90909 2.0909 2.09091 2.0909 2.09091-.9091 2.09091-2.0909c.09091-1.0909-.90909-2.0909-2.09091-2.0909z"/><path d="m12.2727 56.0908h-3.90908c-.54545 0-.90909-.3636-.90909-.9091 0-.5454.36364-.9091.90909-.9091h3.54548l3.6363-3.6363c.3637-.3637.9091-.3637 1.2728 0 .3636.3636.3636.909 0 1.2727l-3.9091 3.9091c-.1818.1818-.3637.2727-.6364.2727z"/></g></svg>