<svg fill="none" height="60" viewBox="0 0 60 60" width="60" xmlns="http://www.w3.org/2000/svg"><g fill="#6d30fb"><path d="m29.0625 25.3125h-1.875c-.6214.0007-1.2172.2478-1.6566.6872s-.6865 1.0351-.6871 1.6565v6.0938c0 .2486.0987.4871.2745.6629.1759.1758.4143.2746.6629.2746.2487 0 .4871-.0988.663-.2746.1758-.1758.2746-.4143.2746-.6629v-2.8125h2.8124v2.8125c0 .2486.0988.4871.2746.6629.1759.1758.4143.2746.663.2746.2486 0 .487-.0988.6629-.2746.1758-.1758.2745-.4143.2745-.6629v-6.0938c-.0006-.6214-.2477-1.2171-.6871-1.6565s-1.0352-.6865-1.6566-.6872zm-2.3437 3.75v-1.4063c.0001-.1242.0495-.2434.1374-.3312.0879-.0879.207-.1373.3313-.1375h1.875c.1243.0002.2434.0496.3313.1375.0879.0878.1373.207.1374.3312v1.4063z"/><path d="m33.2812 26.25v7.5c0 .2486.0988.4871.2746.6629.1759.1758.4143.2746.663.2746.2486 0 .487-.0988.6629-.2746.1758-.1758.2745-.4143.2745-.6629v-7.5c0-.2486-.0987-.4871-.2745-.6629-.1759-.1758-.4143-.2746-.6629-.2746-.2487 0-.4871.0988-.663.2746-.1758.1758-.2746.4143-.2746.6629z"/><path d="m52.7535 16.8759c-2.8171-4.8953-13.45-2.6641-22.7371 1.7204l-.0017.0012c-2.1542-1.0246-4.3701-1.9142-6.6348-2.6636 1.6138-6.41476 4.2146-10.3089 6.6429-10.3089.4968.03681.9808.17544 1.4218.40728.441.23185.8296.55194 1.1417.94038.0846.08933.186.16111.2984.21125s.2335.07765.3565.08097c.1231.00331.2455-.01763.3604-.06165.115-.04401.2201-.11023.3094-.19487.0894-.08464.1611-.18605.2113-.29843.0501-.11238.0776-.23354.0809-.35656.0034-.12301-.0176-.24548-.0616-.3604s-.1102-.22005-.1949-.30938c-.4831-.57803-1.0818-1.04865-1.7575-1.38165-.6758-.33299-1.4137-.52099-2.1664-.55194-3.5686 0-6.6491 4.5742-8.4421 11.6355-7.0093-1.9754-12.50707-1.5964-14.28863 1.4895-2.83406 4.9063 4.38813 12.9601 12.85553 18.819.1895 2.3959.5296 4.7775 1.0181 7.1306-6.3835 1.8422-11.0074 1.5138-12.25132-.6399-.21642-.4466-.33852-.9329-.35868-1.4288s.06204-.9906.2415-1.4532c.03486-.1181.04613-.2419.03316-.3643s-.04992-.2411-.10876-.3492c-.05883-.1082-.13838-.2037-.23412-.2811s-.20578-.1351-.32385-.17c-.11806-.0349-.24184-.0461-.36426-.0332-.12242.013-.24109.05-.34923.1088-.2184.1188-.38065.3195-.45107.558-.2577.7058-.36476 1.4579-.3143 2.2076.05046.7498.25733 1.4807.6073 2.1457 1.05656 1.8301 3.41953 2.709 6.63113 2.709 2.5955-.0629 5.1707-.4743 7.6566-1.2229 1.7929 7.0632 4.8738 11.6389 8.443 11.6389 5.6683 0 9.0321-10.2799 9.8752-20.5521 1.9648-1.353 3.8435-2.8271 5.625-4.4138 4.746 4.6044 6.819 8.8015 5.6082 10.9007-.2781.4111-.6378.7606-1.0568 1.0268s-.8882.4433-1.3785.5204c-.1198.0286-.2327.0805-.3324.1528s-.1842.1634-.2486.2684c-.0644.1049-.1076.2214-.127.343s-.0146.2458.014.3656c.0578.2418.2093.4508.4211.5809.105.0645.2215.1076.3431.127s.2458.0146.3656-.014c.7381-.135 1.4406-.4204 2.0637-.8386s1.1535-.9601 1.5581-1.5921c1.7818-3.0881-.6392-8.0415-5.8558-13.125 5.2166-5.0835 7.6376-10.0366 5.8558-13.1241zm-32.8373 13.1241c0 1.1145.0285 2.208.078 3.2824-8.1215-5.9138-12.84055-12.419-11.07799-15.4699 1.24219-2.1519 5.86609-2.4804 12.24959-.6379-.8556 4.2209-1.2744 8.5187-1.2496 12.8254zm10.1066 24.375c-2.4283 0-5.029-3.8941-6.6429-10.3089 4.0698-1.3672 7.9888-3.1477 11.6957-5.3137.9678-.5592 1.9047-1.1307 2.8107-1.7146-1.0629 9.9971-4.3383 17.3372-7.8635 17.3372zm4.1153-17.2467c-3.5451 2.0746-7.2868 3.7935-11.1703 5.1315-.8061-4.0363-1.2003-8.1439-1.1766-12.2598-.0238-4.1161.3705-8.224 1.1767-12.2605 3.8836 1.3381 7.6252 3.0572 11.1702 5.1322 3.5644 2.0328 6.9141 4.4211 9.9977 7.1282-3.0836 2.7073-6.4332 5.0956-9.9977 7.1284zm11.3848-8.4126c-3.2182-2.8396-6.7189-5.3421-10.4473-7.4681-.9679-.5581-1.931-1.0834-2.8894-1.5758 9.1838-4.0648 17.1959-4.8959 18.9432-1.8593 1.2119 2.1009-.8607 6.2987-5.6065 10.9032z"/><path d="m33.3278 11.1484c0 .5563.165 1.1001.474 1.5626.3091.4625.7483.823 1.2622 1.0358.5139.2129 1.0794.2686 1.625.1601s1.0467-.3764 1.4401-.7697c.3933-.3934.6612-.8945.7697-1.4401.1085-.5455.0528-1.111-.1601-1.625-.2128-.51388-.5733-.95313-1.0358-1.26217s-1.0063-.47399-1.5626-.47399c-.7456.00081-1.4605.29739-1.9878.82466s-.8239 1.2422-.8247 1.9878zm2.8125-.9375c.1854 0 .3667.055.5209.158.1541.103.2743.2495.3453.4208.0709.1713.0895.3598.0533.5416-.0362.1819-.1254.3489-.2566.4801-.1311.1311-.2981.2204-.48.2565-.1818.0362-.3703.0176-.5416-.0533-.1713-.071-.3178-.1911-.4208-.3453s-.158-.3354-.158-.5209c.0002-.2486.099-.4869.2748-.6627s.4141-.2746.6627-.2748z"/><path d="m10.6383 36.9407c.5563 0 1.1-.165 1.5626-.474.4625-.3091.823-.7483 1.0358-1.2622.2129-.5139.2686-1.0794.1601-1.625s-.3764-1.0467-.7697-1.4401c-.3934-.3933-.8945-.6612-1.4401-.7697s-1.1111-.0528-1.62498.1601c-.51391.2128-.95317.5733-1.26221 1.0358s-.47399 1.0063-.47399 1.5626c.00081.7456.29739 1.4605.82466 1.9878s1.24217.8239 1.98782.8247zm0-3.75c.1854 0 .3667.055.5209.158.1541.103.2743.2494.3453.4207.0709.1713.0895.3598.0533.5417-.0362.1818-.1255.3489-.2566.48s-.2981.2204-.48.2566c-.1818.0361-.3703.0176-.5416-.0534-.1714-.0709-.31777-.1911-.42078-.3453-.10302-.1541-.158-.3354-.158-.5208.00017-.2486.09899-.487.27477-.6628.17581-.1757.41411-.2746.66271-.2747z"/><path d="m43.2897 41.9111c-.5563 0-1.1.165-1.5626.474-.4625.3091-.823.7483-1.0358 1.2622-.2129.514-.2686 1.0795-.1601 1.625.1085.5456.3764 1.0467.7697 1.4401.3934.3933.8945.6612 1.4401.7697s1.1111.0528 1.625-.1601c.5139-.2128.9531-.5733 1.2622-1.0358.309-.4625.474-1.0063.474-1.5626-.0008-.7456-.2974-1.4605-.8247-1.9878-.5272-.5273-1.2421-.8239-1.9878-.8247zm0 3.75c-.1854 0-.3667-.0549-.5209-.158-.1541-.103-.2743-.2494-.3453-.4207-.0709-.1713-.0895-.3598-.0533-.5417.0362-.1818.1255-.3489.2566-.48s.2981-.2204.48-.2565c.1818-.0362.3703-.0177.5416.0533.1714.071.3178.1911.4208.3453s.158.3354.158.5208c-.0002.2486-.099.487-.2748.6628-.1758.1757-.4141.2746-.6627.2747z"/></g></svg>