<svg fill="none" height="32" viewBox="0 0 206 32" width="206" xmlns="http://www.w3.org/2000/svg" xmlns:xlink="http://www.w3.org/1999/xlink"><clipPath id="a"><path d="m0 0h205.474v32h-205.474z"/></clipPath><g clip-path="url(#a)" fill="#c6c9d5"><path d="m193.217 11.7065c1.165-1.4012 2.602-2.11083 4.313-2.12901.928-.01819 1.747.1365 2.457.46401.709.3093 1.282.7369 1.719 1.2828.528.6369.891 1.383 1.092 2.2382.2.837.3 1.7741.3 2.8114v7.888h-3.876v-7.5878c0-.5095-.055-.9917-.163-1.4466-.091-.4732-.255-.8734-.492-1.201-.237-.3458-.555-.6005-.955-.7642-.382-.1638-.819-.2457-1.31-.2457-.619.0182-1.146.1547-1.583.4094-.419.2548-.737.5823-.955.9826-.219.3822-.373.8189-.464 1.3102-.074.4731-.11.9553-.11 1.4466v7.0965h-3.848v-14.3842h3.684z"/><path d="m179.584 24.4803c-2.328 0-4.121-.655-5.377-1.9651-1.255-1.3283-1.883-3.1662-1.883-5.5135 0-1.1283.164-2.1472.491-3.057.346-.928.82-1.7196 1.42-2.3747.618-.6551 1.373-1.1463 2.265-1.4739.91-.3457 1.938-.51859 3.084-.51859 1.128 0 2.138.17289 3.03.51859.91.3276 1.674.8188 2.293 1.4739.637.6551 1.119 1.4467 1.447 2.3747.345.9098.518 1.9287.518 3.057 0 2.3655-.637 4.2034-1.91 5.5135-1.256 1.3101-3.049 1.9651-5.378 1.9651zm0-11.4636c-1.182 0-2.056.382-2.62 1.1463-.564.7642-.846 1.7196-.846 2.866 0 1.1645.282 2.1289.846 2.8932.564.7642 1.438 1.1463 2.62 1.1463 1.183 0 2.047-.3821 2.594-1.1463.545-.7643.818-1.7287.818-2.8932 0-1.1464-.273-2.1018-.818-2.866-.547-.7643-1.411-1.1463-2.594-1.1463z"/><path d="m167.695 3.19055c.71 0 1.283.20926 1.72.62777.437.41852.655.97351.655 1.66498 0 .72786-.218 1.30105-.655 1.71956-.437.40032-1.01.60048-1.72.60048-.691 0-1.265-.20016-1.72-.60048-.436-.41851-.655-.9917-.655-1.71956 0-.69147.219-1.24646.655-1.66498.455-.41851 1.029-.62777 1.72-.62777zm1.939 21.07145h-3.85v-14.38422h3.85z"/><path d="m160.058 13.2351v5.8138c0 1.2374.629 1.856 1.884 1.856h1.419v3.3573h-1.801c-1.911.0727-3.284-.2912-4.121-1.0918-.82-.8007-1.229-2.0107-1.229-3.6303v-6.305h-2.184v-3.35727h2.184v-3.9031h3.848v3.9031h3.44v3.35727z"/><path d="m148.479 22.4878c-.546.7279-1.21 1.2465-1.993 1.5559-.782.3093-1.692.4549-2.729.4366-1.329-.0363-2.439-.4093-3.331-1.119-.473-.4003-.845-.8735-1.119-1.4193-.254-.5641-.381-1.2283-.381-1.9925.017-.7825.191-1.474.518-2.0744.346-.6187.865-1.1282 1.556-1.5285.582-.3094 1.237-.5277 1.965-.6551.746-.1274 1.556-.191 2.429-.191h2.948c.055-.8917-.155-1.5558-.628-1.9925-.455-.4549-1.101-.6915-1.938-.7097-.273 0-.555.0182-.846.0546s-.564.1091-.819.2183c-.236.1092-.445.2639-.628.464-.163.182-.273.4095-.326.6824h-3.958c.091-.8734.327-1.6013.709-2.1836.401-.6005.901-1.0827 1.501-1.4466.601-.3639 1.265-.61864 1.993-.76424.746-.16379 1.51-.24565 2.293-.24565.436 0 .882.02729 1.337.08186.455.03638.901.12741 1.337.27301.437.12732.846.30932 1.229.54582.4.2184.773.5095 1.119.8735.618.7096 1 1.5285 1.146 2.4565.164.9098.237 1.8014.218 2.6748v7.7791h-3.521zm-.137-4.5854h-2.812c-.272 0-.581.0273-.928.0819-.345.0545-.645.1546-.9.3002s-.473.3366-.655.5732c-.164.2365-.246.5276-.246.8734 0 .2911.055.5459.164.7642.128.2184.282.4004.464.546.2.1456.437.2638.709.3548.274.0728.547.1092.82.1092.527.0182 1.019-.0728 1.473-.273.474-.2001.883-.4822 1.229-.8461.218-.2911.382-.6187.491-.9827.127-.382.191-.8825.191-1.5011z"/><path d="m136.966 12.6619-6.987 8.2431h6.987v3.3572h-12.009v-2.8114l6.932-8.2429h-6.932v-3.32997h12.009z"/><path d="m120.331 3.19055c.71 0 1.283.20926 1.719.62777.437.41852.656.97351.656 1.66498 0 .72786-.219 1.30105-.656 1.71956-.436.40032-1.009.60048-1.719.60048-.692 0-1.265-.20016-1.72-.60048-.436-.41851-.655-.9917-.655-1.71956 0-.69147.219-1.24646.655-1.66498.455-.41851 1.028-.62777 1.72-.62777zm1.937 21.07145h-3.848v-14.38422h3.848z"/><path d="m105.364 11.7065c1.164-1.4012 2.602-2.11083 4.312-2.12901.928-.01819 1.747.1365 2.456.46401.71.3093 1.284.7369 1.72 1.2828.528.6369.892 1.383 1.092 2.2382.201.837.3 1.7741.3 2.8114v7.888h-3.875v-7.5878c0-.5095-.055-.9917-.165-1.4466-.09-.4732-.254-.8734-.49-1.201-.237-.3458-.555-.6005-.955-.7642-.383-.1638-.82-.2457-1.311-.2457-.619.0182-1.147.1547-1.583.4094-.418.2548-.737.5823-.956.9826-.218.3822-.373.8189-.464 1.3102-.072.4731-.108.9553-.108 1.4466v7.0965h-3.849v-14.3842h3.684z"/><path d="m94.8779 22.4878c-.5465.7279-1.2101 1.2465-1.9933 1.5559-.7823.3093-1.6917.4549-2.7292.4366-1.328-.0363-2.4379-.4093-3.3297-1.119-.4733-.4003-.8463-.8735-1.1192-1.4193-.2543-.5641-.3823-1.2283-.3823-1.9925.0185-.7825.1912-1.474.5188-2.0744.3461-.6187.864-1.1282 1.5562-1.5285.5819-.3094 1.237-.5277 1.9646-.6551.7461-.1274 1.5562-.191 2.4295-.191h2.9482c.0539-.8917-.155-1.5558-.6282-1.9925-.4548-.4549-1.1007-.6915-1.9377-.7097-.2729 0-.555.0182-.8463.0546-.2914.0364-.5642.1091-.8186.2183-.2366.1092-.4463.2639-.6282.464-.1633.182-.2728.4095-.3275.6824h-3.9579c.0909-.8734.3275-1.6013.7099-2.1836.4-.6005.901-1.0827 1.5014-1.4466.6005-.3639 1.2649-.61864 1.9925-.76424.7461-.16379 1.5098-.24565 2.293-.24565.4362 0 .8825.02729 1.3373.08186.4547.03638.9002.12741 1.3372.27301.4371.12732.8463.30932 1.2287.54582.4.2184.773.5095 1.1183.8735.6189.7096 1.0012 1.5285 1.1469 2.4565.1634.9098.2367 1.8014.2181 2.6748v7.7791h-3.5208zm-.1364-4.5854h-2.8118c-.2728 0-.5819.0273-.928.0819-.3461.0545-.6459.1546-.9011.3002-.2543.1456-.4724.3366-.6543.5732-.1642.2365-.2459.5276-.2459.8734 0 .2911.0548.5459.1634.7642.128.2184.2821.4004.464.546.2004.1456.4371.2638.7099.3548.2728.0728.5457.1092.8185.1092.528.0182 1.019-.0728 1.4745-.273.4725-.2001.8826-.4822 1.2278-.8461.219-.2911.3824-.6187.4918-.9827.1272-.382.1912-.8825.1912-1.5011z"/><path d="m78.9185 22.7881c-.5459.6187-1.201 1.0554-1.9652 1.3101-.7643.2548-1.5922.3822-2.4838.3822s-1.765-.1365-2.6203-.4095c-.837-.2911-1.5648-.7551-2.1835-1.392-.6915-.7279-1.1738-1.5649-1.4467-2.5111s-.4094-1.9197-.4094-2.9205c0-2.3656.655-4.258 1.9652-5.6773.5641-.6187 1.292-1.1009 2.1836-1.4466.9098-.34577 1.8833-.50956 2.9205-.49137.6732-.03638 1.4012.08193 2.1836.35486.7824.27291 1.4557.72781 2.0198 1.36471l.4094-1.47385h3.3299v13.48355c0 .5822-.0364 1.1554-.1091 1.7196-.0546.5822-.1547 1.1372-.3002 1.6649-.1456.5459-.364 1.0645-.6551 1.5558-.3276.6005-.7279 1.11-1.201 1.5285-.4549.4185-.9644.7643-1.5285 1.0372-.5641.2911-1.1646.5004-1.8015.6278-.6368.1273-1.2828.191-1.9379.191-.837 0-1.6376-.1001-2.4019-.3002-.7642-.182-1.4648-.4913-2.1017-.928-.6187-.4185-1.1372-.9553-1.5558-1.6104-.4003-.6551-.6641-1.4375-.7915-2.3473h4.0942c.0727.4367.3639.8279.8734 1.1736.5095.3458 1.1282.5186 1.856.5186.7825 0 1.4194-.1546 1.9107-.464.5094-.3093.8916-.7188 1.1463-1.2282.2548-.5095.4186-1.0918.4913-1.7469.0729-.6551.1092-1.3102.1092-1.9652zm-3.5755-1.7196c.6004 0 1.1281-.1091 1.583-.3275.4731-.2184.8553-.5095 1.1464-.8734.2911-.3822.5095-.8189.6551-1.3102.1456-.5095.2183-1.0463.2183-1.6103 0-1.1282-.3185-2.0563-.9553-2.7841-.6187-.746-1.5103-1.1282-2.6749-1.1464-.6004 0-1.1373.1092-1.6104.3275-.4549.2184-.837.5096-1.1463.8734-.2911.364-.5095.7916-.6551 1.2829s-.2184 1.019-.2184 1.5831c0 .6005.0728 1.1463.2184 1.6377.1638.4731.4003.8916.7096 1.2555.3094.3458.6915.6187 1.1464.8189.4549.1819.9827.2729 1.5832.2729z"/><path d="m61.168 11.6792c.5823-.6914 1.2009-1.21 1.856-1.5558.6733-.34574 1.474-.51854 2.402-.51854.2365 0 .464.00909.6823.02728.2184.01819.4185.04548.6005.08186v3.5483c-.4185 0-.8461.0091-1.2828.0273-.4186 0-.8189.0364-1.201.1092s-.7552.1911-1.1191.3548c-.3457.1456-.655.3639-.928.655-.4186.4732-.6824.9827-.7915 1.5286-.0911.5459-.1365 1.1646-.1365 1.856v6.4688h-3.8485v-14.38421h3.5483z"/><path d="m47.6422 24.4803c-2.3291 0-4.1215-.655-5.377-1.9651-1.2556-1.3283-1.8834-3.1662-1.8834-5.5135 0-1.1283.1638-2.1472.4913-3.057.3458-.928.8189-1.7196 1.4194-2.3747.6187-.6551 1.3738-1.1463 2.2654-1.4739.9098-.3457 1.938-.51859 3.0843-.51859 1.1282 0 2.1381.17289 3.0297.51859.9099.3276 1.6741.8188 2.2928 1.4739.6368.6551 1.119 1.4467 1.4466 2.3747.3457.9098.5186 1.9287.5186 3.057 0 2.3655-.6369 4.2034-1.9106 5.5135-1.2556 1.3101-3.0479 1.9651-5.3771 1.9651zm0-11.4636c-1.1827 0-2.0562.382-2.6203 1.1463-.564.7642-.8461 1.7196-.8461 2.866 0 1.1645.2821 2.1289.8461 2.8932.5641.7642 1.4376 1.1463 2.6203 1.1463 1.1828 0 2.0471-.3821 2.593-1.1463.5459-.7643.8189-1.7287.8189-2.8932 0-1.1464-.273-2.1018-.8189-2.866-.5459-.7643-1.4102-1.1463-2.593-1.1463z"/><path d="m14.0717 3.07368c0-1.12176-.9141-2.04614-2.0241-1.88478-1.1518.16741-2.28086.47743-3.36095.92481-1.70724.70716-3.25848 1.74367-4.56516 3.05035-1.30667 1.30667-2.34318 2.85792-3.05035 4.56521-.707166 1.70723-1.07113996 3.53703-1.07114 5.38493s.363974 3.6777 1.07114 5.385c.70717 1.7073 1.74368 3.2585 3.05035 4.5651 1.30668 1.3067 2.85792 2.3433 4.56516 3.0504 1.70725.7072 3.53705 1.0712 5.38505 1.0712v-6.7544c-.961 0-1.9125-.1893-2.8002-.5571-.8878-.3676-1.69449-.9066-2.3739-1.5861-.6795-.6795-1.21848-1.4861-1.58621-2.3739s-.557-1.8393-.557-2.8002.18927-1.9124.557-2.8002c.36773-.8877.90671-1.6944 1.58621-2.37387.67941-.67949 1.4861-1.21844 2.3739-1.58618.26-.1077.5255-.20008.795-.2769 1.0788-.30739 2.0052-1.18946 2.0052-2.31121z"/><path d="m25.9224 15.1143c1.1217 0 2.0462.914 1.8847 2.024-.1674 1.1518-.4773 2.2809-.9248 3.361-.7071 1.7073-1.7436 3.2585-3.0503 4.5652-1.3066 1.3066-2.8579 2.3431-4.5652 3.0503-1.7072.7072-3.537 1.0711-5.385 1.0711v-6.7543c.961 0 1.9125-.1893 2.8003-.557.8877-.3678 1.6944-.9068 2.3738-1.5862.6795-.6795 1.2185-1.4861 1.5862-2.3739.1077-.26.2001-.5255.277-.795.3073-1.0788 1.1893-2.0052 2.3111-2.0052z"/><path d="m28.2964 1.04871c1.1217 0 2.0461.91399 1.8848 2.02408-.1674 1.15172-.4774 2.28084-.9248 3.36091-.7072 1.70725-1.7437 3.25849-3.0504 4.5652-1.3067 1.3067-2.8579 2.3431-4.5651 3.0503-1.0801.4474-2.2092.7574-3.361.9248-1.11.1614-2.024-.763-2.024-1.8848v-2.6921c0-1.12175.9263-2.00383 2.0051-2.31122.2696-.07681.5351-.16921.795-.2769.8878-.36773 1.6944-.90672 2.3739-1.58619s1.2185-1.48612 1.5862-2.37388c.1077-.26001.2001-.52548.2769-.79506.3074-1.07881 1.1895-2.00514 2.3112-2.00514z"/></g></svg>