<svg enable-background="new 0 0 512 512" fill="#fff" height="60" viewBox="0 0 512 512" width="60" xmlns="http://www.w3.org/2000/svg"><path d="m483.111.501-42.59 461.314-184.524 49.684-184.527-49.684-42.581-461.314zm-85.821 93.801h-141.459-143.965l6.885 55.708h137.08 7.7l-7.7 3.205-132.07 55.006 4.38 54.453 127.69.414 68.438.217-4.381 72.606-64.058 18.035v-.057l-.525.146-61.864-15.617-3.754-45.07h-.205-57.382-.202l7.511 87.007 116.423 34.429v-.062l.21.062 115.799-33.802 15.021-172.761h-131.03-.323l.323-.14 135.83-58.071z"/></svg>