<svg fill="none" height="32" viewBox="0 0 168 32" width="168" xmlns="http://www.w3.org/2000/svg" xmlns:xlink="http://www.w3.org/1999/xlink"><clipPath id="a"><path d="m.793945 0h167.111v32h-167.111z"/></clipPath><mask id="b" height="32" maskUnits="userSpaceOnUse" width="168" x="0" y="0"><path d="m167.905 0h-167.111055v32h167.111055z" fill="#fff"/></mask><mask id="c" height="32" maskUnits="userSpaceOnUse" width="167" x="1" y="0"><path d="m167.072 0h-165.60032v32h165.60032z" fill="#fff"/></mask><g clip-path="url(#a)"><g mask="url(#b)"><g fill="#c6c9d5" mask="url(#c)"><path d="m5.54536 3.56338c2.25138-2.14951 5.30844-3.40414 8.40694-3.56019975 1.0603 0 2.1239.00636454 3.1844-.00318025-.0541 1.13686-.0001 2.27688-.0318 3.41369-.1496 2.54118-1.0891 5.02503-2.6718 7.01851-2.0571 2.6813-5.20334 4.4804-8.5438 4.9453-1.45846.2358-2.93926.086-4.40726.1274.02545-1.2515-.05415-2.506.04459-3.7543.28661-3.09532 1.74826-6.06003 4.01873-8.18722z"/><path d="m18.1182 0c1.1368.0127264 2.2737-.0063638 3.4137.00636257 2.8374.20060243 5.6365 1.28967743 7.7731 3.17808743 2.3564 2.02208 3.971 4.91355 4.3852 8.00245.1811 1.433.0667 2.882.1369 4.3212-.9938-.0032-1.9839-.0064-2.9778 0-2.4423-.0668-4.8433-.8566-6.8877-2.1876-.9426-.6752-1.9106-1.3597-2.6175-2.296-1.5509-1.73234-2.6049-3.90728-3.003-6.20007-.2994-1.59225-.1783-3.21626-.2229-4.82443z"/><path d="m1.48344 16.4188c1.00949.0573 2.02215-.0479 3.0284.0637 4.30852.0923 8.48966 2.5124 10.72186 6.1968 1.2803 2.0636 1.9681 4.5089 1.8789 6.9389-.0032.7959.0096 1.5891-.0127 2.3818-1.5986-.0474-3.2131.0831-4.7957-.2259-3.51567-.5921-6.74784-2.6845-8.69357-5.6715-1.47437-2.1718-2.20996-4.8244-2.13355-7.4452 0-.7483 0-1.4935.00636-2.2386z"/><path d="m28.4464 16.7562c1.7326-.3853 3.5186-.3216 5.2798-.3216l.0765.0764c-.0381 1.6656.0924 3.3501-.242 4.9964-.7037 3.6939-3.1493 6.9928-6.4389 8.8048-2.0476 1.14-4.3977 1.7008-6.7383 1.675-.7484.0032-1.4999-.0125-2.2482.0097 0-1.379-.0574-2.7643.0987-4.1367.363-3.3212 2.159-6.4132 4.7417-8.5022 1.5985-1.2611 3.4773-2.175 5.4707-2.6018z"/><path d="m46.8753 25.8324c0 .5607-.1942 1.035-.582 1.4233-.3667.3667-.8304.5494-1.3907.5494-.5393 0-.9922-.1827-1.3584-.5494-.3666-.3883-.5501-.8626-.5501-1.4233v-19.98816c0-.5606.1835-1.02419.5501-1.39072.3878-.38811.8623-.58218 1.4232-.58218.5602 0 1.0132.19407 1.3583.58218.3662.36653.5496.83012.5496 1.39072z"/><path d="m62.4539 10.5017c.5604 0 1.0242.194 1.3908.5822.3662.3665.5495.8301.5495 1.3907v8.2152c0 2.2856-.6357 4.0968-1.9079 5.4337-1.2725 1.337-3.105 2.0051-5.4988 2.0051-2.3931 0-4.226-.6681-5.4981-2.0051-1.2506-1.3369-1.8761-3.1481-1.8761-5.4337v-8.2152c0-.5606.1833-1.0242.55-1.3907.3667-.3882.8299-.5822 1.3907-.5822.5609 0 1.0241.194 1.3908.5822.3666.3665.5501.8301.5501 1.3907v8.2152c0 1.3153.2911 2.2964.873 2.9432.5824.6252 1.4554.938 2.6196.938 1.1865 0 2.0703-.3128 2.6527-.938.5818-.6468.873-1.6279.873-2.9432v-8.2152c0-.5606.1833-1.0242.55-1.3907.3661-.3882.8299-.5822 1.3907-.5822z"/><path d="m76.067 10.1783c1.7251 0 2.9972.4205 3.8169 1.2614.8192.8193 1.3583 1.8867 1.6166 3.202l-.5495-.2912.2589-.5173c.2583-.496.6569-1.0243 1.197-1.5848.5383-.5823 1.1855-1.0674 1.9399-1.4555.7761-.4098 1.6384-.6146 2.5881-.6146 1.552 0 2.7271.3342 3.5247 1.0027.8201.6684 1.3801 1.5631 1.6817 2.6844.3023 1.0998.4536 2.3288.4536 3.6872v8.2799c0 .5606-.1841 1.0349-.5504 1.4232-.3665.3667-.8297.5494-1.3905.5494-.5607 0-1.024-.1827-1.3912-.5494-.3663-.3883-.5495-.8626-.5495-1.4232v-8.2799c0-.7116-.0856-1.3476-.2584-1.9082-.1728-.5823-.4857-1.0458-.9384-1.3908-.4529-.345-1.0993-.5176-1.9401-.5176-.82 0-1.52.1726-2.1024.5176s-1.0248.8085-1.3263 1.3908c-.2809.5606-.4209 1.1966-.4209 1.9082v8.2799c0 .5606-.1832 1.0349-.5493 1.4232-.3667.3667-.8305.5494-1.3907.5494-.5608 0-1.0246-.1827-1.3907-.5494-.3668-.3883-.55-.8626-.55-1.4232v-8.2799c0-.7116-.0863-1.3476-.2589-1.9082-.1725-.5823-.4853-1.0458-.9378-1.3908-.453-.345-1.1001-.5176-1.9406-.5176-.8192 0-1.5203.1726-2.1027.5176-.5819.345-1.0241.8085-1.3261 1.3908-.2798.5606-.42 1.1966-.42 1.9082v8.2799c0 .5606-.1832 1.0349-.55 1.4232-.3667.3667-.8299.5494-1.3907.5494-.5609 0-1.0242-.1827-1.3907-.5494-.3667-.3883-.5501-.8626-.5501-1.4232v-13.3579c0-.5604.1834-1.0241.5501-1.3907.3665-.3881.8298-.5821 1.3907-.5821.5608 0 1.024.194 1.3907.5821.3668.3666.55.8303.55 1.3907v1.3908l-.4853-.097c.1941-.3665.4637-.7547.8084-1.1643.3451-.4312.7657-.8302 1.2617-1.1967.4957-.3666 1.0457-.6577 1.6491-.8733.604-.2372 1.2619-.3558 1.9731-.3558z"/><path d="m98.8321 25.8323c0 .5607-.1832 1.0351-.5497 1.4233-.3663.3667-.8303.5495-1.3912.5495-.56 0-1.024-.1828-1.3903-.5495-.3665-.3882-.5497-.8626-.5497-1.4233v-13.3577c0-.5605.1832-1.0241.5497-1.3907.3663-.3882.8303-.5822 1.3903-.5822.5609 0 1.0249.194 1.3912.5822.3665.3666.5497.8302.5497 1.3907zm-1.9729-17.43287c-.7328 0-1.2503-.11865-1.5528-.35584-.3015-.23715-.4519-.6576-.4519-1.26136v-.61453c0-.62532.1615-1.04577.4847-1.26137.3448-.23722.8625-.35579 1.552-.35579.7552 0 1.2841.11857 1.5849.35579.3023.23717.4535.65762.4535 1.26137v.61453c0 .62531-.1623 1.05656-.4855 1.29375-.3232.21561-.8512.32345-1.5849.32345z"/><path d="m110.454 10.1783c1.596 0 2.804.3342 3.622 1.0027.842.6684 1.413 1.5631 1.715 2.6844.323 1.0998.485 2.3288.485 3.6872v8.2799c0 .5606-.183 1.0349-.55 1.4232-.367.3667-.83.5494-1.391.5494-.56 0-1.024-.1827-1.39-.5494-.367-.3883-.55-.8626-.55-1.4232v-8.2799c0-.7116-.097-1.3476-.291-1.9082-.173-.5823-.496-1.0458-.971-1.3908-.474-.345-1.153-.5176-2.037-.5176-.863 0-1.596.1726-2.2.5176-.581.345-1.034.8085-1.358 1.3908-.302.5606-.453 1.1966-.453 1.9082v8.2799c0 .5606-.183 1.0349-.55 1.4232-.366.3667-.83.5494-1.39.5494-.561 0-1.025-.1827-1.391-.5494-.367-.3883-.55-.8626-.55-1.4232v-13.3579c0-.5604.183-1.0241.55-1.3907.366-.3881.83-.5821 1.391-.5821.56 0 1.024.194 1.39.5821.367.3666.55.8303.55 1.3907v1.3908l-.485-.097c.195-.3665.474-.7547.841-1.1643.366-.4312.798-.8302 1.294-1.1967.496-.3666 1.056-.6577 1.681-.8733.626-.2372 1.305-.3558 2.038-.3558z"/><path d="m135.479 19.1697c0 1.7682-.399 3.3315-1.196 4.6898-.778 1.3369-1.834 2.3826-3.171 3.1373-1.314.7544-2.792 1.132-4.431 1.132-1.638 0-3.125-.3776-4.462-1.132-1.316-.7547-2.373-1.8004-3.17-3.1373-.776-1.3583-1.165-2.9216-1.165-4.6898 0-1.768.389-3.3206 1.165-4.6574.797-1.3584 1.854-2.4149 3.17-3.1696 1.337-.7763 2.824-1.1644 4.462-1.1644 1.639 0 3.117.3881 4.431 1.1644 1.337.7547 2.393 1.8112 3.171 3.1696.797 1.3368 1.196 2.8894 1.196 4.6574zm-3.881 0c0-1.0996-.227-2.0484-.68-2.8462-.431-.8193-1.024-1.4554-1.779-1.9082-.732-.4528-1.551-.6793-2.458-.6793-.906 0-1.735.2265-2.49.6793-.733.4528-1.326 1.0889-1.779 1.9082-.432.7978-.646 1.7466-.646 2.8462 0 1.0782.214 2.0269.646 2.8463.453.7977 1.046 1.423 1.779 1.8759.755.4527 1.584.6792 2.49.6792.907 0 1.726-.2265 2.458-.6792.755-.4529 1.348-1.0782 1.779-1.8759.453-.8194.68-1.7681.68-2.8463z"/><path d="m149.945 10.5017c.561 0 1.024.194 1.39.5822.366.3665.55.8301.55 1.3907v8.2152c0 2.2856-.635 4.0968-1.908 5.4337-1.273 1.337-3.105 2.0051-5.499 2.0051-2.393 0-4.225-.6681-5.498-2.0051-1.251-1.3369-1.876-3.1481-1.876-5.4337v-8.2152c0-.5606.183-1.0242.551-1.3907.366-.3882.829-.5822 1.39-.5822.56 0 1.024.194 1.391.5822.366.3665.549.8301.549 1.3907v8.2152c0 1.3153.292 2.2964.873 2.9432.584.6252 1.456.938 2.62.938 1.186 0 2.07-.3128 2.652-.938.582-.6468.874-1.6279.874-2.9432v-8.2152c0-.5606.183-1.0242.55-1.3907.367-.3882.829-.5822 1.391-.5822z"/><path d="m153.467 25.1209c-.215-.3019-.313-.69-.291-1.1643.021-.4744.302-.884.841-1.2291.345-.2157.711-.3018 1.099-.2588.389.0217.766.2157 1.132.5823.626.6252 1.283 1.1104 1.974 1.4554.69.345 1.552.5174 2.588.5174.322-.0215.677-.0645 1.066-.1293.388-.0862.723-.2587 1.003-.5174.301-.2803.453-.7009.453-1.2615 0-.4743-.162-.8517-.486-1.132-.323-.2803-.754-.5174-1.293-.7116-.517-.194-1.1-.3772-1.746-.5498-.669-.194-1.36-.4097-2.071-.6469-.691-.2371-1.326-.539-1.909-.9056-.581-.3881-1.056-.8948-1.422-1.5201s-.549-1.4122-.549-2.361c0-1.0781.3-1.9945.904-2.7493.605-.7546 1.38-1.3368 2.329-1.7464.971-.4098 1.984-.6146 3.04-.6146.669 0 1.37.0863 2.103.2588.733.1509 1.434.4097 2.102.7762.669.345 1.229.8086 1.682 1.3908.237.3235.377.7115.421 1.1643.042.4528-.163.8626-.615 1.229-.323.2587-.701.3774-1.132.3558-.432-.0431-.787-.194-1.067-.4527-.367-.4743-.863-.8517-1.488-1.1321-.604-.2803-1.304-.4204-2.103-.4204-.322 0-.679.043-1.067.1293-.366.0647-.689.2265-.97.4852-.28.2372-.42.6253-.42 1.1643 0 .496.161.8949.485 1.1967.323.2803.754.5176 1.293.7116.56.1726 1.154.345 1.779.5175.647.1725 1.305.3773 1.973.6145.669.2372 1.283.5498 1.843.9379.562.3882 1.014.895 1.358 1.5201.346.6038.52 1.3801.52 2.3288 0 1.0998-.325 2.0377-.972 2.8139-.646.7763-1.456 1.3692-2.425 1.7791-.97.3876-1.963.5819-2.976.5819-1.272 0-2.544-.2158-3.817-.6466-1.271-.453-2.328-1.2401-3.169-2.3613z"/></g></g></g></svg>