<svg fill="none" height="32" viewBox="0 0 119 32" width="119" xmlns="http://www.w3.org/2000/svg" xmlns:xlink="http://www.w3.org/1999/xlink"><clipPath id="a"><path d="m.070313 0h118v32h-118z"/></clipPath><mask id="b" height="31" maskUnits="userSpaceOnUse" width="32" x="0" y="0"><path d="m15.9546 30.7138c8.4507 0 15.3013-6.8506 15.3013-15.3013 0-8.45067-6.8506-15.301294-15.3013-15.301294-8.45065 0-15.30128 6.850624-15.30128 15.301294 0 8.4507 6.85063 15.3013 15.30128 15.3013z" fill="#d9d9d9"/></mask><g clip-path="url(#a)" fill="#c6c9d5"><path d="m104.746 24.383c-1.101-.661-1.983-1.5423-2.644-2.644s-.964-2.3136-.964-3.6356c0-1.2945.303-2.5064.964-3.6081s1.543-1.9831 2.644-2.6441c1.102-.661 2.314-.9915 3.636-.9915 1.295 0 2.506.3305 3.608.9915s1.983 1.5424 2.644 2.6441.992 2.3136.992 3.6081c0 1.322-.331 2.5339-.992 3.6356s-1.542 1.983-2.644 2.644-2.313.964-3.608.964c-1.322 0-2.534-.303-3.636-.964zm5.536-2.947c.579-.3305 1.047-.7987 1.405-1.4047.331-.5784.523-1.2118.523-1.9279 0-.6886-.192-1.3221-.523-1.928-.358-.5784-.826-1.0466-1.405-1.4047-.605-.3305-1.239-.5233-1.928-.5233-.716 0-1.349.1928-1.927.5233-.606.3581-1.075.8263-1.405 1.4047-.331.6059-.496 1.2394-.496 1.928 0 .7161.165 1.3495.496 1.9279.33.606.799 1.0742 1.405 1.4047.578.3305 1.211.4958 1.927.4958.689 0 1.323-.1653 1.928-.4958z"/><path d="m96.1115 8.38084c-.3856-.33051-.551-.82627-.551-1.4322 0-.60594.1654-1.1017.551-1.45975.358-.33051.8538-.52331 1.5148-.52331.6335 0 1.1293.1928 1.5149.52331.358.35805.5507.85381.5507 1.45975 0 .60593-.1928 1.07415-.5784 1.4322s-.8812.52331-1.4872.52331c-.661 0-1.1568-.16526-1.5148-.52331zm-.2204 16.58056v-13.7712h3.4153v13.7712z"/><path d="m89.2092 5.68176h3.4153v19.27964h-3.4153v-1.322c-.6335.5508-1.322.9915-2.0932 1.267-.7712.3029-1.5699.4406-2.3962.4406-1.4047 0-2.6166-.3029-3.6632-.9364-1.0466-.6059-1.8729-1.4873-2.4237-2.589s-.8263-2.3411-.8263-3.7182c0-1.3772.2755-2.6166.8263-3.7183s1.3771-1.9555 2.4237-2.5889c1.0466-.6335 2.2585-.964 3.6632-.964.8263 0 1.5974.1652 2.3686.4682s1.4598.7161 2.1208 1.2394zm-2.0106 15.89194c.6059-.3305 1.1017-.8263 1.4597-1.4322.3581-.6059.5509-1.2945.5509-2.0657 0-1.1568-.4131-2.0932-1.1843-2.8368-.7712-.7161-1.7352-1.1017-2.8644-1.1017-1.1568 0-2.1208.3856-2.8645 1.1292-.7436.7436-1.1017 1.6801-1.1017 2.8369s.3581 2.1207 1.1017 2.8644c.7437.7436 1.7077 1.1017 2.8645 1.1017.7436 0 1.4322-.1653 2.0381-.4958z"/><path d="m72.3029 11.1902h3.4152v13.7712h-3.4152v-1.1568c-.4958.4683-1.0467.8263-1.6526 1.1017-.6059.2755-1.2669.4132-1.928.4132-.8262 0-1.6525-.1653-2.4788-.4958s-1.5424-.964-2.1483-1.8453c-.6059-.8814-.8813-2.0657-.8813-3.553v-8.2352h3.4152v8.2352c0 1.0466.2754 1.7903.8538 2.2309.5784.4407 1.267.6611 2.0382.6611s1.4046-.2479 1.9555-.7988c.5508-.5508.8263-1.4046.8263-2.6165z"/><path d="m58.6451 21.5462c.2754.2478.7437.358 1.4047.358.3856 0 .7987-.0275 1.2669-.0826v3.1398c-.8813.1102-1.5974.1377-2.1483.1377-1.4873 0-2.589-.3305-3.3051-.9915s-1.0741-1.8729-1.0741-3.6356v-6.2246h-2.589v-3.0572h2.589v-3.38767l3.4152-1.15678v4.54445h3.0572v3.0572h-3.0572v6.0043c0 .6334.1377 1.0741.4407 1.2945z"/><path d="m44.2244 15.9275c.4407.1928 1.1292.3856 2.0657.5784 1.0466.2203 1.9555.4682 2.6716.7436.7161.2755 1.322.7161 1.8453 1.3221.5233.6059.7987 1.4046.7987 2.3962 0 .9089-.2754 1.6801-.8262 2.3411-.5509.661-1.267 1.1843-2.1483 1.5148-.9089.3305-1.9005.4958-2.9471.4958-1.4597 0-2.6991-.2755-3.7457-.8263-1.0467-.5509-1.7903-1.322-2.2861-2.3687l2.8094-1.4597c.4957 1.267 1.5699 1.9004 3.2224 1.9004.7161 0 1.3221-.1377 1.8454-.4131.4957-.2754.7712-.661.7712-1.1843 0-.4407-.2479-.7437-.7161-.964-.4683-.2204-1.2119-.4407-2.2585-.7161-1.1017-.2479-1.9831-.4958-2.6441-.7712-.6886-.2479-1.267-.6335-1.7627-1.1843-.4958-.5509-.7437-1.267-.7437-2.1759 0-.8813.2479-1.625.7437-2.286.4957-.661 1.1568-1.1568 2.0106-1.5148.8263-.3306 1.7627-.5233 2.7818-.5233 1.1843 0 2.2584.2478 3.1949.7436.9364.4958 1.6801 1.2119 2.2034 2.1208l-2.7818 1.4046c-.4958-1.019-1.3496-1.5423-2.6165-1.5423-.6611 0-1.1568.1377-1.5424.4131s-.5784.6335-.5784 1.0741c0 .3856.1928.6886.6335.8814z"/><g mask="url(#b)"><path d="m10.3907 15.6511-12.18715 3.2656c-.89716.2404-1.42957 1.1625-1.18918 2.0597l3.265546 12.1872c.240392.8971 1.162554 1.4295 2.059714 1.1891l12.18717-3.2655c.8972-.2404 1.4296-1.1626 1.1892-2.0597l-3.2656-12.1872c-.2403-.8972-1.1625-1.4296-2.0597-1.1892z"/><path d="m29.5694 15.6511-12.1871 3.2656c-.8972.2404-1.4296 1.1625-1.1892 2.0597l3.2655 12.1872c.2404.8971 1.1626 1.4295 2.0597 1.1891l12.1872-3.2655c.8972-.2404 1.4296-1.1626 1.1892-2.0597l-3.2655-12.1872c-.2404-.8972-1.1626-1.4296-2.0598-1.1892z"/><path d="m29.5694-3.52796-12.1871 3.265543c-.8972.2403922-1.4296 1.162558-1.1892 2.059717l3.2655 12.1872c.2404.8971 1.1626 1.4295 2.0597 1.1892l12.1872-3.2656c.8972-.2404 1.4296-1.1625 1.1892-2.0597l-3.2655-12.18719c-.2404-.89715-1.1626-1.42957-2.0598-1.18917z"/><path d="m10.3907-3.52796-12.18715 3.265543c-.89716.240392-1.42957 1.162558-1.18918 2.059717l3.265546 12.1872c.240393.8971 1.162554 1.4295 2.059714 1.1892l12.18717-3.2656c.8972-.2404 1.4296-1.1625 1.1892-2.0597l-3.2656-12.18719c-.2403-.89715-1.1625-1.42957-2.0597-1.18917z"/></g></g></svg>