<svg fill="none" height="32" viewBox="0 0 153 32" width="153" xmlns="http://www.w3.org/2000/svg"><g fill="#c6c9d5"><path d="m150.626 14.8736-3.59.2209c-.061-.3068-.193-.583-.396-.8284-.202-.2517-.469-.4511-.801-.5984-.325-.1534-.714-.2302-1.169-.2302-.607 0-1.12.129-1.537.3867-.417.2516-.626.5892-.626 1.0126 0 .3375.135.6229.405.8561s.733.4203 1.39.5615l2.559.5155c1.375.2823 2.4.7364 3.075 1.3624s1.013 1.4483 1.013 2.467c0 .9267-.273 1.7399-.82 2.4395-.54.6995-1.282 1.2457-2.228 1.6385-.938.3866-2.021.5799-3.249.5799-1.872 0-3.363-.3896-4.474-1.169-1.104-.7855-1.752-1.8534-1.942-3.2035l3.857-.2025c.117.5707.399 1.0065.847 1.3072.448.2945 1.022.4418 1.722.4418.687 0 1.239-.1319 1.656-.3958.424-.27.638-.6168.645-1.0402-.007-.356-.157-.6474-.452-.8745-.294-.2333-.748-.4112-1.362-.534l-2.449-.4879c-1.38-.2761-2.408-.7548-3.083-1.4359-.669-.6813-1.003-1.5497-1.003-2.6052 0-.9082.244-1.6907.736-2.3474.497-.6566 1.193-1.1629 2.089-1.5189.903-.3559 1.958-.5338 3.167-.5338 1.786 0 3.192.3774 4.216 1.1322 1.031.7549 1.633 1.7828 1.804 3.0838z"/><path d="m136.071 14.8736-3.59.2209c-.062-.3068-.193-.583-.396-.8284-.203-.2517-.469-.4511-.801-.5984-.325-.1534-.715-.2302-1.169-.2302-.608 0-1.12.129-1.537.3867-.417.2516-.626.5892-.626 1.0126 0 .3375.134.6229.404.8561.271.2332.735.4203 1.391.5615l2.559.5155c1.375.2823 2.4.7364 3.074 1.3624.675.626 1.013 1.4483 1.013 2.467 0 .9267-.273 1.7399-.82 2.4395-.539.6995-1.282 1.2457-2.226 1.6385-.94.3866-2.023.5799-3.25.5799-1.872 0-3.363-.3896-4.474-1.169-1.105-.7855-1.752-1.8534-1.942-3.2035l3.857-.2025c.116.5707.399 1.0065.847 1.3072.448.2945 1.021.4418 1.721.4418.687 0 1.24-.1319 1.657-.3958.423-.27.638-.6168.644-1.0402-.006-.356-.156-.6474-.451-.8745-.294-.2333-.749-.4112-1.362-.534l-2.449-.4879c-1.381-.2761-2.409-.7548-3.084-1.4359-.669-.6813-1.003-1.5497-1.003-2.6052 0-.9082.246-1.6907.736-2.3474.497-.6566 1.193-1.1629 2.089-1.5189.903-.3559 1.959-.5338 3.168-.5338 1.786 0 3.191.3774 4.216 1.1322 1.031.7549 1.632 1.7828 1.804 3.0838z"/><path d="m115.259 25.2572c-1.454 0-2.706-.2946-3.756-.8837-1.043-.5952-1.847-1.436-2.412-2.5222-.565-1.0924-.847-2.3842-.847-3.8755 0-1.4544.282-2.7309.847-3.8295.565-1.0984 1.36-1.9545 2.384-2.5682 1.032-.6137 2.24-.9205 3.627-.9205.933 0 1.802.1503 2.606.451.81.2946 1.516.7395 2.117 1.3348.607.5953 1.08 1.344 1.418 2.2461.337.896.506 1.9454.506 3.1482v1.077h-11.94v-2.4302h8.249c0-.5646-.124-1.0647-.369-1.5004-.245-.4358-.586-.7764-1.021-1.0218-.43-.2516-.93-.3775-1.501-.3775-.595 0-1.123.1381-1.584.4143-.453.27-.809.6352-1.067 1.0954-.258.4542-.39.9605-.396 1.519v2.3104c0 .6996.129 1.3041.387 1.8135.263.5094.635.9021 1.113 1.1783.479.2762 1.047.4143 1.704.4143.435 0 .834-.0614 1.196-.1841.362-.1228.672-.3069.93-.5524s.454-.5462.589-.9021l3.627.2393c-.184.8715-.562 1.6324-1.132 2.2829-.565.6445-1.295 1.1476-2.191 1.5097-.89.3559-1.918.5339-3.084.5339z"/><path d="m96.6103 16.8068v8.1743h-3.9218v-14.1394h3.7373v2.4946h.1656c.3134-.8223.8377-1.4729 1.5746-1.9516.736-.4848 1.6292-.7271 2.679-.7271.981 0 1.838.2148 2.568.6443.73.4296 1.298 1.0433 1.703 1.8411.404.7917.608 1.7367.608 2.8353v9.0028h-3.922v-8.3033c.005-.8653-.215-1.5403-.663-2.0251-.448-.491-1.065-.7365-1.8501-.7365-.528 0-.9939.1135-1.3996.3406-.399.2271-.7115.5585-.9383.9942-.2212.4297-.3351.9481-.3407 1.5558z"/><path d="m85.6258 24.9811v-14.1394h3.9214v14.1394zm1.9699-15.96208c-.583 0-1.0831-.19331-1.5004-.57994-.4112-.39276-.6168-.86223-.6168-1.40841 0-.54005.2056-1.00339.6168-1.39002.4173-.39276.9174-.58914 1.5004-.58914.5831 0 1.0801.19638 1.4913.58914.4173.38663.626.84997.626 1.39002 0 .54618-.2087 1.01565-.626 1.40841-.4112.38663-.9082.57994-1.4913.57994z"/><path d="m82.8338 14.8736-3.5902.2209c-.0613-.3068-.1933-.583-.3958-.8284-.2026-.2517-.4695-.4511-.8009-.5984-.3252-.1534-.7149-.2302-1.169-.2302-.6076 0-1.12.129-1.5373.3867-.4173.2516-.626.5892-.626 1.0126 0 .3375.135.6229.405.8561s.7334.4203 1.39.5615l2.5592.5155c1.3746.2823 2.3995.7364 3.0745 1.3624.6751.626 1.0126 1.4483 1.0126 2.467 0 .9267-.2731 1.7399-.8193 2.4395-.54.6995-1.2826 1.2457-2.2276 1.6385-.9391.3866-2.0222.5799-3.2495.5799-1.8718 0-3.3631-.3896-4.4738-1.169-1.1047-.7855-1.7521-1.8534-1.9423-3.2035l3.857-.2025c.1165.5707.3989 1.0065.8469 1.3072.448.2945 1.0217.4418 1.7214.4418.6873 0 1.2396-.1319 1.6569-.3958.4235-.27.6382-.6168.6444-1.0402-.0062-.356-.1565-.6474-.4511-.8745-.2946-.2333-.7487-.4112-1.3623-.534l-2.4487-.4879c-1.3808-.2761-2.4087-.7548-3.0837-1.4359-.669-.6813-1.0034-1.5497-1.0034-2.6052 0-.9082.2454-1.6907.7364-2.3474.4971-.6566 1.1936-1.1629 2.0895-1.5189.9022-.3559 1.9578-.5338 3.1667-.5338 1.7858 0 3.1912.3774 4.216 1.1322 1.0311.7549 1.6325 1.7828 1.8044 3.0838z"/><path d="m64.0116 18.9607v-8.119h3.9214v14.1394h-3.7649v-2.5683h-.1473c-.3191.8285-.8499 1.4943-1.5925 1.9975-.7365.5033-1.6355.7549-2.6972.7549-.9451 0-1.7766-.2148-2.4946-.6444s-1.2796-1.0402-1.6846-1.8319c-.3989-.7916-.6014-1.7397-.6076-2.8444v-9.0028h3.9215v8.3032c.0062.8346.2302 1.4943.6719 1.9791.4419.4848 1.0341.7273 1.7767.7273.4726 0 .9145-.1074 1.3256-.3222.4112-.221.7425-.5462.9942-.9758.2577-.4296.3836-.9605.3774-1.5926z"/><path d="m38.5381 24.9811v-18.85256h3.9215v7.08816h.1197c.1718-.3806.4203-.7672.7456-1.1599.3314-.3989.7609-.7303 1.2888-.9942.5339-.27 1.1967-.405 1.9883-.405 1.0311 0 1.9822.27 2.8536.8101.8715.5338 1.568 1.3409 2.0897 2.421.5216 1.0739.7824 2.4209.7824 4.0411 0 1.5772-.2547 2.9089-.764 3.9951-.5033 1.0801-1.1906 1.8994-2.062 2.4579-.8653.5523-1.835.8284-2.9089.8284-.761 0-1.4084-.1257-1.9423-.3774-.5278-.2516-.9604-.5676-1.298-.9482-.3375-.3866-.5952-.7762-.7732-1.169h-.175v2.2645zm3.8387-7.0697c0 .8408.1166 1.5741.3498 2.2.2331.626.5707 1.1139 1.0125 1.4638.4419.3436.9788.5154 1.611.5154.6382 0 1.1783-.1748 1.6202-.5247.4418-.3559.7763-.8468 1.0033-1.4728.2332-.6321.3498-1.3594.3498-2.1817 0-.8162-.1135-1.5343-.3406-2.154-.227-.6199-.5615-1.1047-1.0034-1.4545-.4418-.3498-.9849-.5247-1.6293-.5247-.6383 0-1.1783.1687-1.6202.5063-.4357.3375-.7702.8162-1.0033 1.436-.2332.6198-.3498 1.3501-.3498 2.1909z"/><path clip-rule="evenodd" d="m16.1434 11.6384 4.242 4.242-4.0391 4.0389-4.242-4.2419zm-4.3493-4.34923-2.65948-2.65955c-.15171-.1517-.15171-.39767 0-.54937l3.79988-3.799846c.1517-.151704.3976-.151704.5493 0l12.9904 12.990396c1.4413 1.4412 1.4413 3.7779 0 5.2191l-5.7786 5.7786 2.6595 2.6596c.1517.1517.1517.3976 0 .5494l-3.7998 3.7999c-.1518.1516-.3977.1516-.5494 0l-12.99043-12.9905c-1.4412-1.4412-1.4412-3.7778 0-5.219z" fill-rule="evenodd"/></g></svg>