<svg fill="none" height="32" viewBox="0 0 198 32" width="198" xmlns="http://www.w3.org/2000/svg" xmlns:xlink="http://www.w3.org/1999/xlink"><clipPath id="a"><path d="m.460938 0h197.333v32h-197.333z"/></clipPath><mask id="b" height="32" maskUnits="userSpaceOnUse" width="197" x="0" y="0"><path d="m196.905 0h-196.444062v32h196.444062z" fill="#fff"/></mask><g clip-path="url(#a)"><g fill="#c6c9d5" mask="url(#b)"><path clip-rule="evenodd" d="m20.2625.795044c-3.1246 0-5.6576 2.532986-5.6576 5.657596 0 3.12455 2.533 5.65766 5.6576 5.65766 3.1247 0 5.6575-2.53311 5.6575-5.65766 0-3.12461-2.5328-5.657596-5.6575-5.657596zm-11.06186 11.006456c5.88926 0 10.66336 4.7742 10.66336 10.6633v8.7398h-5.304v-8.7398c0-.627-.1077-1.2291-.3056-1.7884l-7.79086 7.7908-3.7505-3.7507 7.51316-7.5129c-.33193-.0644-.67486-.0982-1.02556-.0982h-8.739702v-5.3039zm22.25576 0c-5.8892 0-10.6635 4.7742-10.6635 10.6633v8.7398h5.3039v-8.7398c0-.4911.0661-.9671.19-1.419l8.1497 8.1498 3.7507-3.7507-8.1499-8.1496c.452-.1237.9279-.1899 1.4191-.1899h8.7396v-5.3039z" fill-rule="evenodd"/><path d="m48.6826 31.5101v-30.48654h8.6342l9.2571 26.12494h.6678v-26.12494h4.94v30.48654h-8.4559l-9.48-26.16945h-.623v26.16945z"/><path d="m91.973 27.5048 1.2462-.1334.0889 3.605c-3.3822.6824-6.3794 1.0236-8.9904 1.0236-3.2933 0-5.667-.9052-7.1208-2.715-1.4242-1.81-2.1364-4.7028-2.1364-8.6786 0-7.8925 3.2192-11.8387 9.6579-11.8387 6.2305 0 9.3461 3.3973 9.3461 10.192l-.311 3.4716h-13.7974c.0298 1.8393.4304 3.1895 1.2019 4.0497.7712.8607 2.2104 1.2907 4.3171 1.2907 2.1064 0 4.2721-.0888 6.4979-.2669zm-2.6704-8.8122c0-2.1957-.3562-3.7237-1.0683-4.5841-.6821-.8902-1.8543-1.3353-3.5159-1.3353s-2.878.4599-3.6495 1.3798c-.7418.9198-1.1277 2.433-1.157 4.5396z"/><path d="m108.476 13.3962h-6.141v9.7912c0 1.8102.133 3.0118.4 3.6051.267.5936.949.8904 2.048.8904l3.649-.1337.222 3.8718c-1.988.3859-3.501.579-4.54.579-2.522 0-4.2566-.579-5.2068-1.7359-.92-1.1573-1.3795-3.338-1.3795-6.5423v-10.3256h-2.848v-4.13903h2.848v-6.45334h4.8073v6.45334h6.141z"/><path d="m108.494 9.25732h4.763l3.515 18.11418h.89l4.229-17.66911h4.984l4.229 17.66911h.89l3.471-18.11418h4.807l-4.719 22.25298h-7.698l-3.472-15.2655-3.471 15.2655h-7.7z"/><path d="m143.369 11.6606c1.542-1.92861 4.094-2.8929 7.655-2.8929 3.56 0 6.097.96429 7.609 2.8929 1.544 1.9287 2.315 4.8215 2.315 8.6788 0 3.8571-.741 6.7647-2.225 8.7232-1.484 1.9583-4.05 2.9374-7.699 2.9374s-6.217-.9791-7.7-2.9374c-1.484-1.9585-2.225-4.8661-2.225-8.7232 0-3.8573.756-6.7501 2.27-8.6788zm3.648 14.4644c.683 1.187 2.019 1.7803 4.007 1.7803s3.323-.5933 4.005-1.7803c.683-1.1866 1.023-3.1301 1.023-5.8301 0-2.7001-.371-4.6139-1.112-5.7413-.712-1.1275-2.017-1.6914-3.916-1.6914-1.9 0-3.22.5639-3.961 1.6914-.712 1.1274-1.068 3.0412-1.068 5.7413 0 2.7.341 4.6435 1.022 5.8301z"/><path d="m163.541 31.5102v-22.25297h4.807v2.67037c2.522-1.6319 5.045-2.68513 7.566-3.1599v4.8512c-2.552.5044-4.732 1.1571-6.542 1.9583l-.979.4005v15.5325z"/><path d="m182.249 31.5103h-4.851v-31.5103h4.851v18.2029l2.759-.267 5.252-8.67866h5.429l-6.408 10.41446 6.765 11.8386h-5.474l-5.43-9.391-2.893.312z"/></g></g></svg>