<svg fill="none" height="32" viewBox="0 0 158 32" width="158" xmlns="http://www.w3.org/2000/svg" xmlns:xlink="http://www.w3.org/1999/xlink"><clipPath id="a"><path d="m.070313 0h157.6v32h-157.6z"/></clipPath><mask id="b" height="31" maskUnits="userSpaceOnUse" width="30" x="0" y="1"><path d="m29.8233 1.81995h-29.531308v29.53125h29.531308z" fill="#fff"/></mask><g clip-path="url(#a)" fill="#c6c9d5"><path d="m146.621 16.6034h5.705c-.052-1.2705-.882-2.5152-2.853-2.5152-1.789 0-2.775 1.3484-2.852 2.5152zm6.041 3.3191 2.879.8557c-.648 2.204-2.671 4.045-5.809 4.045-3.5 0-6.586-2.5152-6.586-6.8195 0-4.0711 3.008-6.7159 6.276-6.7159 3.94 0 6.3 2.5152 6.3 6.6121 0 .4927-.052 1.0113-.052 1.0631h-9.127c.078 1.6855 1.504 2.9042 3.215 2.9042 1.608 0 2.489-.8038 2.904-1.9447z"/><path d="m131.636 20.882 2.956-.6483c.077 1.0113.829 1.9448 2.333 1.9448 1.141 0 1.686-.5964 1.686-1.2705 0-.5705-.389-1.0372-1.374-1.2447l-1.686-.3889c-2.463-.5446-3.578-2.0226-3.578-3.8117 0-2.2819 2.023-4.1747 4.771-4.1747 3.63 0 4.849 2.3077 5.005 3.682l-2.879.6482c-.104-.7519-.648-1.7114-2.1-1.7114-.908 0-1.633.5446-1.633 1.2706 0 .6223.466 1.0113 1.166 1.141l1.815.3889c2.515.5186 3.786 2.0484 3.786 3.9154 0 2.0744-1.607 4.2006-4.952 4.2006-3.838 0-5.16-2.4893-5.316-3.9413z"/><path d="m129.552 24.4344h-3.449v-12.7575h3.449zm-3.864-16.93224c0-1.19278.96-2.15218 2.126-2.15218 1.193 0 2.126.9594 2.126 2.15218 0 1.14094-.933 2.1003-2.126 2.1003-1.166 0-2.126-.95936-2.126-2.1003z"/><path d="m124.194 11.6248v3.4747c-.388-.0778-.725-.1038-1.036-.1038-1.764 0-3.294.8558-3.294 3.6043v5.8342h-3.448v-12.7574h3.345v1.8928c.777-1.6854 2.541-1.9966 3.63-1.9966.285 0 .544.0259.803.0518z"/><path d="m104.506 29.361h-3.448v-17.6842h3.345v1.5558c.571-.9853 1.996-1.841 3.915-1.841 3.734 0 5.886 2.8523 5.886 6.6381 0 3.8635-2.411 6.7158-6.015 6.7158-1.763 0-3.06-.7001-3.683-1.5558zm6.301-11.3054c0-2.2559-1.4-3.5783-3.163-3.5783s-3.19 1.3224-3.19 3.5783 1.427 3.6042 3.19 3.6042 3.163-1.3224 3.163-3.6042z"/><path d="m99.1493 11.6248v3.4747c-.3888-.0778-.7264-.1038-1.0376-.1038-1.7632 0-3.2928.8558-3.2928 3.6043v5.8342h-3.4488v-12.7574h3.3448v1.8928c.7784-1.6854 2.5416-1.9966 3.6304-1.9966.2848 0 .5448.0259.804.0518z"/><path d="m80.0729 16.6036h5.7048c-.052-1.2706-.8816-2.5152-2.852-2.5152-1.7896 0-2.7744 1.3483-2.8528 2.5152zm6.0416 3.319 2.8784.8557c-.648 2.204-2.6704 4.045-5.808 4.045-3.5007 0-6.5863-2.5152-6.5863-6.8195 0-4.071 3.0079-6.7158 6.2751-6.7158 3.9416 0 6.3008 2.5152 6.3008 6.612 0 .4928-.052 1.0113-.052 1.0632h-9.1271c.0775 1.6854 1.5039 2.9041 3.2151 2.9041 1.608 0 2.4896-.8038 2.904-1.9447z"/><path d="m72.7051 7.86523v3.81177h2.567v3.0596h-2.567v5.3416c0 1.115.5185 1.478 1.5039 1.478.4149 0 .8816-.0518 1.0631-.1037v2.8523c-.3111.1297-.9334.3111-1.9447.3111-2.4893 0-4.045-1.478-4.045-3.9413v-5.938h-2.3078v-3.0596h.6483c1.3483 0 1.9706-.8817 1.9706-2.0226v-1.78917z"/><path d="m57.2788 17.0963v7.3382h-3.4487v-12.7575h3.3449v1.5816c.778-1.3224 2.3078-1.9188 3.6821-1.9188 3.1635 0 4.6155 2.256 4.6155 5.0564v8.0383h-3.4487v-7.4419c0-1.4262-.7001-2.5412-2.3596-2.5412-1.5039 0-2.3855 1.1668-2.3855 2.6449z"/><path d="m42.5313 16.6036h5.7045c-.0518-1.2706-.8816-2.5152-2.8523-2.5152-1.7891 0-2.7745 1.3483-2.8522 2.5152zm6.0417 3.319 2.8781.8557c-.6482 2.204-2.6707 4.045-5.8082 4.045-3.5006 0-6.5863-2.5152-6.5863-6.8195 0-4.071 3.008-6.7158 6.2751-6.7158 3.9413 0 6.3009 2.5152 6.3009 6.612 0 .4928-.0518 1.0113-.0518 1.0632h-9.1274c.0779 1.6854 1.504 2.9041 3.2154 2.9041 1.6076 0 2.4893-.8038 2.9042-1.9447z"/><g clip-rule="evenodd" fill-rule="evenodd" mask="url(#b)"><path d="m.823242 21.7441c0 .7094.718438 1.1928 1.375548.9257l8.78041-3.5693c.3767-.1531.623-.5191.623-.9256v-4.0306c0-.4066.2463-.7726.6229-.9258l8.8127-3.58228c.3766-.15312.6229-.51912.6229-.92568v-4.72557c0-.55188-.4473-.99925-.9992-.99925h-8.7805c-.5519 0-.9992.44737-.9992.99925v7.46583c0 .5519-.4474.9993-.99931.9993h-8.05999c-.55187 0-.999257.4473-.999257.9992z"/><path d="m29.2857 9.82442c0-.70936-.7185-1.19288-1.3755-.92576l-8.7805 3.56924c-.3767.1532-.623.5192-.623.9258v4.0304c0 .4066-.2463.7726-.6229.9257l-8.81268 3.5823c-.37656.1531-.62288.5192-.62288.9258v4.7255c0 .5518.44736.9993.9992.9993h8.78046c.5519 0 .9992-.4475.9992-.9993v-7.4657c0-.5518.4475-.9992.9993-.9992h8.06c.5519 0 .9993-.4474.9993-.9993z"/></g></g></svg>