<svg fill="#fff" height="60" viewBox="0 0 64 64" width="60" xmlns="http://www.w3.org/2000/svg"><path d="m32 3a29 29 0 1 0 29 29 29 29 0 0 0 -29-29zm21.78 13.07a22.42 22.42 0 0 1 -.78 12.62l-.15.46a11.94 11.94 0 0 0 -2.39-6.47c-2.32-2.75-3.26-4.12-3.26-6.69s1.91-4 2.75-4h.1a27.22 27.22 0 0 1 3.73 4.08zm-21.78-11.07a26.86 26.86 0 0 1 16.31 5.5 6.47 6.47 0 0 0 -3.06 5.5c0 3.2 1.2 5 3.74 8 3.17 3.75 1.72 11.73 1.62 12.29l-3.73 11.53-10.81-28.82h3.85a1 1 0 0 0 0-2h-16.46a1 1 0 0 0 0 2h1.76s0 0 0 0l5.23 14.57-4.57 14.25-10.81-28.82h3.93a1 1 0 0 0 0-2h-9.44a27 27 0 0 1 22.44-12zm9.13 52.41-13.78-38.41h6.65a1 1 0 0 0 .06.35l11.71 31.22a1 1 0 0 0 .14.25l-1.63 5.06a1 1 0 0 0 0 .16 26.83 26.83 0 0 1 -3.15 1.37zm-21.51-1.41-12.43-34.64q.52-1.21 1.15-2.36h4.66a1 1 0 0 0 .06.35l11.71 31.22a1 1 0 0 0 .14.25l-2.12 6.56a26.84 26.84 0 0 1 -3.17-1.38zm-14.62-24a26.9 26.9 0 0 1 1.12-7.7l10.8 30.08a27 27 0 0 1 -11.92-22.38zm19.7 26 6.87-21.3 7.65 21.3a26.86 26.86 0 0 1 -14.52 0zm22.1-3.43 8.14-25.24a25.5 25.5 0 0 0 1.4-9 27 27 0 0 1 -9.54 34.23z"/></svg>