<svg fill="none" height="32" viewBox="0 0 178 32" width="178" xmlns="http://www.w3.org/2000/svg" xmlns:xlink="http://www.w3.org/1999/xlink"><clipPath id="a"><path d="m.225586 0h177.231v32h-177.231z"/></clipPath><mask id="b" height="32" maskUnits="userSpaceOnUse" width="178" x="0" y="0"><path d="m177.456 0h-177.230414v32h177.230414z" fill="#fff"/></mask><mask id="c" height="32" maskUnits="userSpaceOnUse" width="177" x="0" y="0"><path d="m176.787 0h-176.000867v32h176.000867z" fill="#fff"/></mask><g clip-path="url(#a)"><g mask="url(#b)"><g fill="#c6c9d5" mask="url(#c)"><path d="m57.126 28.5883c-2.5333 0-4.7728-.4975-6.7184-1.493-1.9457-1.0182-3.4498-2.4543-4.513-4.3094s-1.5948-4.0381-1.5948-6.549c0-2.511.5316-4.694 1.5948-6.54894 1.0632-1.87762 2.5673-3.31405 4.513-4.30939 1.9456-1.01799 4.1851-1.52701 6.7184-1.52701 1.7194 0 3.2351.18101 4.547.54296 1.335.33933 2.5563.88222 3.6646 1.62875v4.92023c-.9952-.8144-2.1374-1.40258-3.4268-1.7645-1.2669-.38464-2.7145-.57688-4.3433-.57688-1.5157 0-2.8847.31672-4.1061.95008-1.1988.6108-2.1488 1.493-2.8501 2.6467s-1.0522 2.4997-1.0522 4.038c0 1.5609.3168 2.9295.9501 4.1058.6562 1.1538 1.5723 2.0472 2.7485 2.6807 1.1764.6333 2.5338.95 4.072.95 1.4026 0 2.6239-.2487 3.6646-.7464v-4.5808h-3.8343v-3.8005h8.8223v11.4352c-2.2394 1.5381-5.1912 2.3074-8.8563 2.3074z"/><path d="m67.1738 11.7918h4.9539v2.3414c.6562-.7917 1.5723-1.3912 2.7485-1.7984 1.1764-.4299 2.5113-.6447 4.004-.6447v3.9022c-1.5608 0-2.9407.2375-4.1396.7126-1.1762.475-1.9906 1.1989-2.4432 2.1717v9.6028h-5.1236z"/><path d="m88.7268 28.5883c-3.1223 0-5.5767-.7467-7.3639-2.2394-1.7869-1.5157-2.6803-3.631-2.6803-6.3455 0-2.6921.7919-4.8185 2.3754-6.3793 1.6057-1.5609 3.8905-2.3414 6.8544-2.3414 1.9449 0 3.5961.362 4.9536 1.0859 1.3577.7239 2.3872 1.7306 3.088 3.0199.7017 1.2668 1.0521 2.7033 1.0521 4.3094v2.0699h-13.4368c.3616 2.0813 2.3072 3.122 5.8359 3.122 1.04 0 2.1152-.0907 3.2233-.2719 1.1088-.1806 2.0704-.4296 2.8848-.7463v3.5969c-.792.3395-1.8105.6107-3.0544.8144-1.2441.2033-2.488.3054-3.7321.3054zm3.4265-10.1459c-.0672-1.0858-.4745-1.9227-1.2208-2.5109-.7465-.6109-1.776-.9163-3.088-.9163-1.2896 0-2.3081.3054-3.0544.9163-.7465.6107-1.1536 1.4477-1.2208 2.5109z"/><path d="m107.509 28.5883c-3.122 0-5.576-.7467-7.363-2.2394-1.7875-1.5157-2.6812-3.631-2.6812-6.3455 0-2.6921.792-4.8185 2.3753-6.3793 1.6069-1.5609 3.8909-2.3414 6.8549-2.3414 1.945 0 3.596.362 4.954 1.0859 1.357.7239 2.386 1.7306 3.087 3.0199.702 1.2668 1.053 2.7033 1.053 4.3094v2.0699h-13.438c.362 2.0813 2.307 3.122 5.836 3.122 1.041 0 2.116-.0907 3.224-.2719 1.108-.1806 2.07-.4296 2.884-.7463v3.5969c-.792.3395-1.809.6107-3.053.8144-1.245.2033-2.488.3054-3.733.3054zm3.427-10.1459c-.068-1.0858-.475-1.9227-1.222-2.5109-.746-.6109-1.776-.9163-3.087-.9163-1.289 0-2.308.3054-3.054.9163-.747.6107-1.154 1.4477-1.222 2.5109z"/><path d="m116.925 11.7917h4.954v2.0021c.747-.837 1.629-1.4592 2.647-1.8664 1.041-.4298 2.126-.6447 3.257-.6447 2.217 0 3.869.5995 4.955 1.7984 1.108 1.1765 1.662 2.7712 1.662 4.7845v10.2136h-5.124v-9.6368c0-2.1037-.972-3.1556-2.918-3.1556-.859 0-1.663.2148-2.408.6447-.748.4072-1.381 1.0179-1.901 1.8323v10.3154h-5.124z"/><path d="m138.92 9.28083c-.791 0-1.458-.26015-2.001-.78048-.543-.52024-.815-1.17627-.815-1.96804 0-.7691.272-1.41381.815-1.93415.543-.5429 1.21-.81435 2.001-.81435.793 0 1.46.27145 2.003.81435.544.52034.815 1.16505.815 1.93415 0 .79177-.271 1.4478-.815 1.96804-.543.52033-1.21.78048-2.003.78048zm-2.578 2.51097h5.158v16.2876h-5.158z"/><path d="m150.239 28.5883c-1.222 0-2.534-.1355-3.936-.4074-1.38-.2489-2.466-.6107-3.258-1.0857v-4.004c.904.5429 1.99.9841 3.258 1.3234 1.267.3395 2.443.5092 3.528.5092.928 0 1.606-.0797 2.036-.2378.43-.1583.645-.4524.645-.8822 0-.3394-.124-.6107-.373-.8144-.249-.2262-.634-.4185-1.154-.5769-.498-.181-1.335-.4411-2.511-.7804-1.38-.4072-2.465-.8143-3.257-1.2216-.769-.4297-1.357-.9614-1.765-1.5948-.385-.6333-.577-1.4477-.577-2.4432 0-1.6966.667-2.9634 2.002-3.8004 1.358-.8596 3.191-1.2894 5.497-1.2894 1.131 0 2.297.1244 3.495.3733 1.221.2262 2.16.5316 2.816.9161v3.9023c-.656-.4299-1.515-.7805-2.578-1.0519-1.04-.2715-2.059-.4073-3.054-.4073-.928 0-1.651.0906-2.171.2716-.498.181-.748.5202-.748 1.0179 0 .4299.238.7579.714.9841.497.2261 1.414.5089 2.748.8483l.678.1696c1.426.3846 2.535.8144 3.326 1.2894.791.4525 1.346 1.0067 1.663 1.6627.339.6335.509 1.4365.509 2.4092 0 1.4931-.645 2.6918-1.935 3.5968-1.289.8826-3.155 1.3235-5.598 1.3235z"/><path d="m158.956 3.0033h5.124v10.6548c.769-.7918 1.64-1.38 2.613-1.7645.972-.4072 2.013-.6108 3.121-.6108 2.218 0 3.868.5995 4.955 1.7984 1.108 1.1764 1.663 2.7712 1.663 4.7845v10.2137h-5.125v-9.6368c0-2.1039-.972-3.1557-2.917-3.1557-.86 0-1.664.2149-2.41.6447-.746.4071-1.38 1.0179-1.9 1.8323v10.3155h-5.124z"/><path clip-rule="evenodd" d="m26.8008 7.80443c0 4.31027-3.4939 7.80447-7.8042 7.80447-4.3104 0-7.8045-3.4942-7.8045-7.80447 0-4.31026 3.4941-7.80443 7.8045-7.80443 4.3103 0 7.8042 3.49417 7.8042 7.80443zm-25.957953 7.23727c8.502723-.5731 15.913153 5.7929 16.603353 14.3136.0717.883.0682 1.755-.0049 2.6089-8.50277.573-15.91314-5.7929-16.603408-14.3136-.071479-.883-.068076-1.7547.004955-2.6089zm22.099853 16.6241c8.5208-.6903 14.8868-8.1005 14.3136-16.6033-.8544-.073-1.7259-.0763-2.6088-.0048-8.521.6901-14.8868 8.1006-14.3136 16.6031.8541.0731 1.7259.0767 2.6088.005z" fill-rule="evenodd"/></g></g></g></svg>