<svg fill="none" height="32" viewBox="0 0 154 32" width="154" xmlns="http://www.w3.org/2000/svg" xmlns:xlink="http://www.w3.org/1999/xlink"><clipPath id="a"><path d="m.927734 0h152.533v32h-152.533z"/></clipPath><mask id="b" height="32" maskUnits="userSpaceOnUse" width="154" x="0" y="0"><path d="m153.461 0h-152.533266v32h152.533266z" fill="#fff"/></mask><mask id="c" height="32" maskUnits="userSpaceOnUse" width="153" x="1" y="0"><path d="m153.415 0h-152.00094v32h152.00094z" fill="#fff"/></mask><g clip-path="url(#a)"><g mask="url(#b)"><g fill="#c6c9d5" mask="url(#c)"><path d="m1.41406 21.3547 10.82034-4.816 6.2279 3.6119 1.2581 11.8493-7.6747-.063 1.1322-8.2376-1.321-.7608-6.47961 5.0695z"/><path d="m19.1543 19.6434 9.5622 7.0338 3.7745-6.7803-7.675-3.105v-1.5208l7.675-3.1683-3.7745-6.71681-9.5622 7.03361z"/><path d="m18.4623 11.8495 1.2581-11.8495-7.6747.12674 1.1322 8.23759-1.321.76041-6.54251-5.06928-3.90033 6.59004 10.82034 4.8158z"/><path d="m58.0968 14.58v11.1014h4.1306v-14.1476h-6.0155v3.0462z"/><path d="m57.9668 9.54581c.3786.39573.9552.59369 1.7297.59369.7748 0 1.3424-.19796 1.7036-.59369.3792-.41326.568-.9296.568-1.54899 0-.63694-.1888-1.15327-.568-1.54904-.3612-.41304-.9288-.61966-1.7036-.61966-.7745 0-1.3511.20662-1.7297.61966-.3612.39577-.542.9121-.542 1.54904 0 .61939.1808 1.13573.542 1.54899z"/><path d="m43.7163 25.3714c1.1701.5335 2.6073.8004 4.3108.8004 1.6009 0 2.9775-.2495 4.131-.7488 1.1531-.4989 2.0393-1.1962 2.6588-2.0909.6372-.9125.9553-1.971.9553-3.1757 0-1.1703-.3007-2.16-.9031-2.969-.5856-.8261-1.4027-1.4715-2.4531-1.936-1.0498-.4821-2.263-.7833-3.64-.9036l-1.4456-.1291c-.8606-.069-1.4802-.3012-1.8589-.6972-.3787-.3958-.568-.8605-.568-1.3939 0-.4133.1036-.7918.3096-1.136.2068-.3615.5163-.6455.9297-.8521.4303-.20638.9552-.30972 1.5748-.30972.6536 0 1.1961.12033 1.6264.36152.0947.0509.1847.1054.2691.1632l.0204.0143c.0316.0218.0628.0445.093.0673.2615.1998.4696.4366.6244.7103.2234.3788.336.8003.336 1.2651h4.13c0-1.2393-.284-2.315-.8515-3.22711-.568-.9294-1.3855-1.64367-2.4525-2.14294-1.0504-.51632-2.3151-.77448-3.7953-.77448-1.4115 0-2.6333.24111-3.6661.72295-1.0325.4648-1.8414 1.136-2.4265 2.0136-.5684.87787-.8525 1.91928-.8525 3.12408 0 1.6694.56 3.0118 1.6785 4.0274 1.1185 1.0154 2.6162 1.6006 4.4922 1.7553l1.42.1291c1.1527.1034 1.9877.3358 2.504.6971.5161.3442.7744.8175.7744 1.4199 0 .2768-.0451.5366-.136.7791-.0673.1801-.1594.3505-.2768.5118-.2758.3616-.6801.6451-1.2136.8521-.5335.2064-1.1962.3095-1.9881.3095-.8775 0-1.5919-.1202-2.1424-.3612-.551-.2584-.9638-.594-1.2396-1.0068-.2581-.4133-.3868-.8607-.3868-1.3427h-4.105c0 1.2219.3011 2.3064.9033 3.2531.6025.9292 1.489 1.6695 2.6597 2.2201z"/><path d="m71.4425 25.8619c-1.4286 0-2.5813-.172-3.459-.5165-.8781-.3612-1.5233-.9548-1.9365-1.7808-.3958-.8435-.5936-1.9795-.5936-3.4082v-5.6022h-2.1429v-3.0204h2.1429v-3.82091h3.8465v3.82091h4.1306v3.0204h-4.1306v5.7573c0 .6712.1719 1.1874.5167 1.5486.3606.3446.8686.5164 1.5233.5164h2.0906v3.4854z"/><path clip-rule="evenodd" d="m78.4038 25.5522c.9292.4131 1.9967.6195 3.2012.6195 1.1875 0 2.2374-.2064 3.1501-.6195.912-.4132 1.6694-.9899 2.2713-1.7297.6026-.7403 1.0073-1.5834 1.2133-2.53h-3.7947c-.1719.4302-.4993.7914-.9813 1.0839-.4813.293-1.1013.4393-1.8587.4393-.4685 0-.888-.0555-1.2572-.1667-.2814-.0845-.5334-.2009-.7561-.3497-.5166-.3441-.8952-.8265-1.136-1.4458-.0673-.1764-.1246-.361-.1726-.5532-.0487-.1949-.0887-.3976-.1187-.6086h10.334v-1.3941c0-1.2909-.276-2.4784-.8259-3.5626-.5514-1.1017-1.3514-1.988-2.4014-2.6593-1.0327-.6884-2.3067-1.0326-3.8214-1.0326-1.1526 0-2.186.2066-3.098.6196-.894.3958-1.6427.9379-2.2453 1.6264-.6027.6884-1.0673 1.4716-1.3947 2.3495-.3093.8604-.4646 1.7639-.4646 2.7105v.5164c0 .9123.1553 1.8072.4646 2.6849.3274.8606.792 1.6435 1.3947 2.3493.6194.6888 1.3847 1.2393 2.2974 1.6525zm-.168-8.4132c.0113-.0547.0233-.1086.0367-.1616.0359-.1459.0773-.2858.1239-.4193.0267-.0762.0547-.1504.0853-.2225.2581-.6369.6367-1.1187 1.1354-1.4458.1867-.1221.3887-.2215.606-.298.3653-.1282.7747-.1925 1.2266-.1925.7067 0 1.2913.1636 1.7561.4905.4819.3098.8433.7659 1.0839 1.3682.0201.0487.038.0982.056.1482.0287.0799.0554.1618.08.2457.0361.125.0681.2542.096.3879.0207.0985.038.1993.054.3027h-6.3793c.0121-.0691.0246-.1368.0394-.2035z" fill-rule="evenodd"/><path d="m90.2021 25.6815v-14.1477h3.2794v3.5632c.0441-.2117.0946-.4151.1514-.61.0486-.1642.1006-.3226.1579-.4748.3621-.9639.904-1.6866 1.6267-2.1687.7227-.499 1.6086-.7485 2.6593-.7485h.1801c1.0673 0 1.9541.2495 2.6591.7485.723.4821 1.266 1.2048 1.627 2.1687l.029.0727.024.0665c.016-.0469.033-.0933.05-.1392.379-.9639.929-1.6866 1.652-2.1687.723-.499 1.61-.7485 2.659-.7485h.182c1.065 0 1.961.2495 2.684.7485.741.4821 1.3 1.2048 1.677 2.1687.379.9638.569 2.1687.569 3.6144v8.0549h-4.13v-8.2873c0-.7745-.207-1.4027-.62-1.8846-.395-.4819-.964-.7229-1.704-.7229s-1.325.2497-1.755.7487c-.43.4818-.646 1.1273-.646 1.9363v8.2098h-4.1565v-8.2873c0-.7745-.2066-1.4027-.6193-1.8846-.3961-.4819-.9553-.7229-1.678-.7229-.758 0-1.3513.2497-1.7813.7487-.4307.4818-.6461 1.1273-.6461 1.9363v8.2098z"/><path clip-rule="evenodd" d="m123.104 22.9553v2.7261h3.278v-8.6745c0-1.3081-.258-2.3751-.774-3.2013-.516-.8434-1.273-1.4716-2.272-1.8846-.98-.413-2.194-.6196-3.64-.6196-.313 0-.641.0033-.981.0101-.201.0042-.408.0094-.62.0157-.567.0172-1.119.043-1.652.0774l-.407.0276c-.209.0145-.407.0289-.591.0434-.139.0108-.271.0216-.395.0324v3.4853c.533-.0345 1.126-.069 1.781-.1033.183-.0096.364-.0185.544-.0268.26-.012.516-.0225.769-.0316.202-.0073.4-.0137.597-.0192.619-.0172 1.119-.0257 1.497-.0257.758 0 1.308.1806 1.653.5421.344.3615.516.9036.516 1.6266v.0515h-2.556c-1.256 0-2.366.1636-3.331.4905-.963.3098-1.712.8004-2.245 1.4715-.534.6542-.8 1.4975-.8 2.53 0 .9468.215 1.7643.645 2.4529.43.6713 1.024 1.1872 1.781 1.5488.775.3613 1.67.5421 2.685.5421.981 0 1.807-.1808 2.479-.5421.688-.3616 1.221-.8775 1.6-1.5488.066-.1133.129-.2307.188-.3526.081-.1723.154-.3535.218-.5437zm-.697-2.5147v-1.1359h-2.583c-.722 0-1.281.1806-1.676.5421-.379.3442-.569.8175-.569 1.4197 0 .2836.047.5417.141.7736.096.2328.238.4396.428.621.395.3441.954.5159 1.676.5159.139 0 .271-.0068.4-.02.105-.0111.207-.0269.306-.0469.189-.0384.368-.0934.535-.1655.379-.1718.688-.4558.929-.8521.241-.3957.379-.9462.413-1.6519z" fill-rule="evenodd"/><path d="m128.854 25.6815v-14.1478h3.279v4.6697c.157-1.333.553-2.4079 1.188-3.224.86-1.0843 2.099-1.6263 3.718-1.6263h.542v3.5626h-1.033c-1.136 0-2.014.3098-2.633.9293-.62.6024-.93 1.4803-.93 2.6334v7.2031z"/><path d="m142.819 19.0722h1.368l4.466 6.6092h4.648l-5.664-8.1169 4.657-6.0308h-4.337l-5.138 6.7269v-11.42552h-4.131v18.84632h4.131z"/></g></g></g></svg>