<svg fill="none" height="32" viewBox="0 0 133 32" width="133" xmlns="http://www.w3.org/2000/svg"><g fill="#c6c9d5"><path d="m124.525 24.0821c-1.362 0-2.556-.2892-3.583-.8676-1.025-.5971-1.818-1.4273-2.378-2.4908-.56-1.0634-.839-2.3135-.839-3.7501 0-1.418.279-2.6587.839-3.7222.56-1.0821 1.353-1.9217 2.378-2.5188 1.027-.6156 2.221-.92352 3.583-.92352 1.38 0 2.575.30792 3.582.92352 1.027.6158 1.819 1.4647 2.379 2.5468.56 1.0635.84 2.2855.84 3.6662 0 .2053-.01.4104-.028.6157 0 .1865-.019.3451-.056.4758h-10.524v-2.7427h7.753l-.56 1.3154c0-1.1568-.28-2.099-.84-2.8267-.54-.7276-1.389-1.0914-2.546-1.0914-1.007 0-1.819.3172-2.435.9515-.616.6157-.924 1.446-.924 2.4908v1.4833c0 1.1008.308 1.9683.924 2.6027.635.6157 1.492.9236 2.575.9236.951 0 1.698-.1959 2.238-.5878.542-.3918 1.008-.8769 1.4-1.4553l2.547 1.4553c-.616 1.1381-1.455 2.0151-2.519 2.6307-1.045.5971-2.314.8956-3.806.8956z"/><path d="m111.903 10.117.924 3.7781v9.9071h-3.666v-13.6852zm.168 5.6531-.672-.3078v-2.7986l.253-.3079c.205-.3358.513-.6996.923-1.0914.43-.3919.914-.7277 1.455-1.0075.56-.29857 1.138-.44782 1.736-.44782.298 0 .568.01867.811.056.243.03734.429.10258.56.19592v3.3303h-.896c-1.212 0-2.145.1959-2.798.5877-.653.3732-1.11.9703-1.372 1.7911z"/><path d="m98.2257 24.138c-1.0257 0-1.8471-.1586-2.4622-.4758-.616-.3172-1.0915-.737-1.4275-1.2594-.3174-.5411-.5316-1.1567-.6436-1.847-.112-.6904-.168-1.4088-.168-2.155v-8.284h3.6658v8.3119c0 .8397.1778 1.3994.5324 1.6792.3725.2799.8116.4199 1.3147.4199.4667 0 .9333-.084 1.3997-.252.466-.1679.905-.4104 1.315-.7276.429-.3358.784-.7183 1.064-1.1474l.448 1.931h-.896v-10.215h3.667v13.6854h-2.743l-.756-2.6028 1.175.028c-.466.5411-.998 1.0355-1.595 1.4833-.578.4477-1.203.8022-1.875 1.0635-.6526.2424-1.3246.3638-2.0153.3638z"/><path d="m88.689 24.054c-1.3993 0-2.5094-.3639-3.3303-1.0915-.8023-.7463-1.2034-1.931-1.2034-3.5542v-9.1235l-.056-.168.7557-3.21836h2.9665v11.92206c0 .5971.1399 1.0356.4198 1.3154.2985.2613.6716.3918 1.1195.3918.2984 0 .5686-.0186.8113-.056.2426-.056.4577-.1119.6435-.1679v3.4143c-.2978.112-.6151.196-.9511.252-.3358.0559-.7276.0839-1.1755.0839zm-6.6607-10.5508v-3.3864h8.7873v3.3864z"/><path d="m75.765 9.80896c.9329 0 1.6792.15858 2.239.47584.5784.3171 1.0074.7462 1.2873 1.2873.2985.541.4944 1.1568.5878 1.8471.0932.6717.1399 1.3714.1399 2.099v8.2839h-3.6662v-8.3119c0-.8396-.168-1.3993-.5038-1.6792-.3171-.2798-.7276-.4198-1.2314-.4198-.4664 0-.9422.0933-1.4272.2799-.4852.1679-.9423.4198-1.3714.7556-.4105.3172-.765.681-1.0635 1.0915l-.4757-1.9031h.9235v10.187h-3.6662v-13.6852h2.7427l.7555 2.6306-1.1753-.056c.485-.5597 1.0354-1.0541 1.6512-1.4832.6343-.4291 1.306-.7649 2.015-1.0075.709-.26117 1.4553-.39184 2.2388-.39184z"/><path d="m58.495 24.0819c-1.362 0-2.556-.2891-3.5822-.8675-1.0262-.5971-1.8191-1.4273-2.3788-2.4908-.5598-1.0634-.8397-2.3135-.8397-3.7501 0-1.4181.2799-2.6588.8397-3.7222.5597-1.0822 1.3526-1.9217 2.3788-2.5188 1.0262-.6156 2.2202-.92354 3.5822-.92354 1.3807 0 2.5748.30794 3.5823.92354 1.0261.6157 1.8191 1.4646 2.3788 2.5468.5597 1.0634.8396 2.2855.8396 3.6662 0 .2052-.0094.4104-.028.6156 0 .1866-.0187.3452-.0559.4759h-10.5229v-2.7427h7.7522l-.5597 1.3154c0-1.1568-.2799-2.0991-.8396-2.8267-.5411-.7276-1.39-1.0915-2.5468-1.0915-1.0075 0-1.8191.3173-2.4348.9516-.6156.6157-.9236 1.4459-.9236 2.4907v1.4833c0 1.1008.308 1.9684.9236 2.6028.6344.6156 1.4926.9235 2.5748.9235.9515 0 1.6978-.1959 2.2389-.5877s1.0075-.8769 1.3993-1.4553l2.5467 1.4553c-.6157 1.1381-1.4553 2.015-2.5187 2.6307-1.0449.597-2.3135.8955-3.8062.8955z"/><path d="m51.1332 10.1168-5.0095 13.6854h-3.5263l-5.2615-13.6854h3.8622l3.5822 10.4669h-.8676l3.4423-10.4669z"/><path clip-rule="evenodd" d="m10.9982 2.3988c-.4769 0-.8636.38664-.8636.86358v8.20392c-5.00769.0001-9.06722 4.0597-9.06722 9.0675s4.05964 9.0674 9.06752 9.0674h8.2039c.4769 0 .8635-.3866.8635-.8636v-8.2038c5.0078-.0002 9.0672-4.0598 9.0672-9.0675 0-5.00785-4.0596-9.0675-9.0674-9.0675zm8.2041 18.135v-8.2039c0-.477-.3866-.8636-.8635-.8636h-8.2042c-.0001 0 .0001 0 0 0v8.2038c0 .477.3867.8637.8636.8637z" fill-rule="evenodd"/><path d="m10.901 2.3988c-.4232 0-.7662.34308-.7662.76627v8.30123h8.3011c.4232 0 .7663.343.7663.7662v8.3013c5.0079 0 9.0675-4.0597 9.0675-9.0675 0-5.00785-4.0596-9.0675-9.0675-9.0675z"/></g></svg>